<?xml version="1.0" encoding="UTF-8" standalone="no"?>
<!-- Created with Inkscape (http://www.inkscape.org/) -->

<svg
   xmlns:dc="http://purl.org/dc/elements/1.1/"
   xmlns:cc="http://creativecommons.org/ns#"
   xmlns:rdf="http://www.w3.org/1999/02/22-rdf-syntax-ns#"
   xmlns:svg="http://www.w3.org/2000/svg"
   xmlns="http://www.w3.org/2000/svg"
   xmlns:sodipodi="http://sodipodi.sourceforge.net/DTD/sodipodi-0.dtd"
   xmlns:inkscape="http://www.inkscape.org/namespaces/inkscape"
   width="744.09448819"
   height="1052.3622047"
   id="svg2"
   version="1.1"
   inkscape:version="0.48.5 r10040"
   sodipodi:docname="logo.svg">
  <title
     id="title4090">Guile-SSH Logo</title>
  <defs
     id="defs4" />
  <sodipodi:namedview
     id="base"
     pagecolor="#ffffff"
     bordercolor="#666666"
     borderopacity="1.0"
     inkscape:pageopacity="0.0"
     inkscape:pageshadow="2"
     inkscape:zoom="0.98994949"
     inkscape:cx="393.7095"
     inkscape:cy="585.03173"
     inkscape:document-units="px"
     inkscape:current-layer="layer7"
     showgrid="false"
     inkscape:window-width="1278"
     inkscape:window-height="1004"
     inkscape:window-x="0"
     inkscape:window-y="18"
     inkscape:window-maximized="1"
     inkscape:snap-global="false">
    <inkscape:grid
       type="xygrid"
       id="grid2985" />
  </sodipodi:namedview>
  <metadata
     id="metadata7">
    <rdf:RDF>
      <cc:Work
         rdf:about="">
        <dc:format>image/svg+xml</dc:format>
        <dc:type
           rdf:resource="http://purl.org/dc/dcmitype/StillImage" />
        <dc:title>Guile-SSH Logo</dc:title>
        <cc:license
           rdf:resource="http://creativecommons.org/licenses/by-sa/4.0/" />
        <dc:date>2015-11-25</dc:date>
        <dc:creator>
          <cc:Agent>
            <dc:title>Artyom V. Poptsov &lt;poptsov.artyom@gmail.com&gt;</dc:title>
          </cc:Agent>
        </dc:creator>
        <dc:subject>
          <rdf:Bag>
            <rdf:li>GNU</rdf:li>
            <rdf:li>Guile</rdf:li>
            <rdf:li>Scheme</rdf:li>
            <rdf:li>SSH</rdf:li>
            <rdf:li>Secure Shell</rdf:li>
            <rdf:li>Logo</rdf:li>
            <rdf:li>Lisp</rdf:li>
          </rdf:Bag>
        </dc:subject>
      </cc:Work>
      <cc:License
         rdf:about="http://creativecommons.org/licenses/by-sa/3.0/">
        <cc:permits
           rdf:resource="http://creativecommons.org/ns#Reproduction" />
        <cc:permits
           rdf:resource="http://creativecommons.org/ns#Distribution" />
        <cc:requires
           rdf:resource="http://creativecommons.org/ns#Notice" />
        <cc:requires
           rdf:resource="http://creativecommons.org/ns#Attribution" />
        <cc:permits
           rdf:resource="http://creativecommons.org/ns#DerivativeWorks" />
        <cc:requires
           rdf:resource="http://creativecommons.org/ns#ShareAlike" />
      </cc:License>
    </rdf:RDF>
  </metadata>
  <g
     inkscape:groupmode="layer"
     id="layer7"
     inkscape:label="sand"
     style="display:inline">
    <path
       style="fill:#e9c6af;fill-opacity:1;fill-rule:nonzero;stroke:none"
       d="m 310.12848,498.09647 c -3.21764,16.06868 -10.35133,31.44241 -10.47879,48.52432 -2.18465,14.70754 -6.77425,28.31825 -10.45264,42.70819 -6.01511,9.76939 2.39824,5.196 -6.74166,2.50551 -8.95268,-4.84405 -30.88477,-5.75233 -32.0511,-11.82453 5.53116,-14.63922 7.17721,-17.99403 15.23553,-30.72175 9.82434,-10.67178 12.62571,-25.15006 21.73823,-36.10948 8.66375,-7.10726 8.68616,-32.64018 21.52058,-23.51818 8.70777,2.82803 24.12867,11.19216 24.62906,13.47973 1.42541,-8.43633 3.09637,14.4623 1.38857,19.06813 -4.84018,17.4958 -14.20972,33.198 -17.45274,51.179 -4.94948,7.45567 -3.74649,20.27039 -9.79803,7.34268 -7.27042,-8.17252 -17.98209,-18.34164 -27.20799,-12.21925 6.47519,-12.87748 19.72658,-22.16029 23.69415,-36.28206 3.06447,-9.43041 10.88481,-21.96696 15.72142,-32.79591 3.68661,-14.52401 20.29566,-18.42609 27.20908,-3.52585 4.16343,2.2525 -1.99358,23.26978 3.14893,10.93015 5.60768,-6.79898 1.65823,19.62511 -1.79265,23.88934 -2.62771,16.81179 -10.22245,31.35989 -14.90512,47.3261 -1.54513,10.96118 -6.88445,-14.76355 -12.93846,-16.5634 -5.46222,-7.55362 -17.5673,-2.67712 -18.8966,2.22547 3.13828,-13.39759 15.34533,-19.96094 20.17968,-32.13227 6.77834,-12.07733 11.94999,-26.82935 18.8067,-39.89756 7.243,-13.03162 14.28882,-28.27789 31.95794,-21.27124 12.57285,10.24679 11.56245,32.69233 1.48705,46.23596 -0.97715,-1.32657 -4.15525,18.22725 -9.553,23.46048 -2.0291,6.57654 -9.98667,28.22029 -8.72824,25.55987 0.003,-11.84371 -22.89602,-11.84504 -22.52994,-15.06355 12.00802,-8.84938 15.37744,-23.44081 22.63154,-35.6462 9.6548,-8.32673 3.26616,-28.82145 19.43574,-28.72275 21.30411,-3.73306 18.45498,24.02702 15.04325,37.20373 -5.47372,15.20169 -12.20622,29.86317 -15.87668,45.73366 -1.63306,5.65286 -0.74073,8.26064 1.09212,0.56363 -2.35926,8.29358 -2.24415,10.86606 -4.25083,0.90876 -4.64351,-11.88219 -36.37319,-0.20155 -19.64508,-18.6401 12.13081,-10.80929 11.26362,-27.97269 17.7436,-41.06632 3.13709,-14.96139 10.88568,-43.14572 32.86083,-30.51531 12.3024,7.64883 10.39369,23.55383 6.88526,35.66429 -4.99434,16.56714 -8.47834,33.47562 -14.5236,49.9105 -4.50941,1.28173 0.31235,23.39072 -5.97185,8.94476 -8.73121,-4.87342 -20.36161,-21.10167 -30.19342,-12.58128 5.91692,-7.04737 11.87476,-26.49333 18.41373,-37.89709 8.12878,-11.96176 9.57507,-26.61649 17.5196,-38.65621 4.22219,-23.16527 32.34338,-11.44723 37.88263,4.15906 1.49412,13.91849 -3.93542,26.44934 -8.66156,39.57186 -1.35129,12.3961 -4.70893,20.26844 -9.34736,33.6978 -2.15272,6.10706 -0.27819,14.54367 -2.87619,2.47337 -0.79109,-16.31188 -39.48606,-2.18033 -19.82275,-19.84981 4.37896,-11.34411 14.09857,-19.67995 17.82479,-31.45305 6.29366,-10.23881 11.13464,-21.10929 17.2361,-31.21956 8.63361,-13.40296 28.46471,-11.96428 37.02222,0.68152 8.2061,8.66202 -2.95633,24.48666 -2.66282,30.2517 -4.96168,24.93238 -18.54995,47.1432 -23.63349,72.09258 3.82379,-15.24302 -20.61462,-25.57873 -30.87858,-21.45513 1.47244,-8.37748 15.77375,-14.46857 17.75309,-24.95762 3.84756,-11.20121 10.74185,-21.37361 12.9967,-32.80157 0.64697,-7.05442 6.91282,-26.1479 19.1134,-30.15374 11.55024,-2.5808 25.60104,4.18488 28.16125,16.21288 0.68269,14.85658 -5.84564,23.74704 -9.09924,36.24842 -6.87887,10.38091 -14.5087,33.39733 -13.54492,38.80428 1.8353,-14.77266 -23.48104,-18.90391 -28.50945,-17.90117 5.17227,-11.33408 11.84834,-20.79469 17.41201,-31.92822 4.76757,-5.78169 5.53875,-14.63786 10.87778,-20.96741 7.81474,-7.20474 12.05073,-33.28259 23.72795,-24.80308 9.5441,6.42906 30.29986,19.65681 17.56748,31.82156 2.85255,12.92369 -4.64071,26.5998 -7.55807,39.55692 -4.1851,11.48694 -12.84952,37.04556 -13.837,39.06312 0.0286,-14.41402 -23.10513,-22.64299 -32.63349,-19.61185 -1.47674,-7.36138 19.08614,-25.51271 14.89099,-25.35776 9.63995,-14.9076 10.05767,-34.42936 21.70149,-47.59571 3.13932,-5.07933 8.36311,-13.09843 1.5845,-3.35894 2.59061,11.8 21.69398,23.58031 31.89144,21.08428 1.38328,-18.58771 1.07657,14.50994 -2.79575,20.29194 -1.52802,16.1255 -12.30643,29.24196 -13.82758,44.47765 0.31552,-13.85182 -21.44848,-26.72103 -29.7831,-22.82236 7.2381,-8.29797 12.09496,-18.49592 19.40589,-29.40729 7.06609,-14.97163 10.96261,-31.52781 19.18716,-45.93067 7.2282,-15.07028 25.16814,-19.17044 34.77314,-3.63933 12.54499,11.68431 2.0947,28.40459 -0.66913,42.09108 -9.51728,13.39644 -7.40865,30.96689 -16.86239,44.08752 -1.07828,7.43736 -6.81859,27.33231 -9.08817,26.67937 2.51721,-19.77805 -18.24139,-13.81573 -30.54258,-18.5704 4.94636,-12.24856 16.53437,-19.48015 19.842,-33.63275 10.80139,-22.55241 25.16316,-43.2898 39.44247,-63.6803 13.74586,-5.14283 33.13867,12.38664 26.09227,27.42699 -3.23599,14.22566 -5.61085,21.28811 -8.06153,33.75133 -6.57488,12.60296 -5.99307,26.10764 -13.81711,37.67115 -8.45701,4.63128 -3.89824,30.13516 -9.18946,12.64582 -7.42067,-9.41953 -16.20063,-20.06915 -29.65478,-16.47669 12.34226,-9.0538 19.93853,-22.54788 27.08828,-35.82769 6.47162,-14.04954 12.03525,-28.05996 20.34734,-40.91507 13.50168,-16.96784 43.2252,-3.16276 34.45662,18.30543 -3.33814,13.95215 -11.64766,24.79473 -15.34044,39.14805 -3.35839,11.86517 -12.08454,22.86969 -10.42263,35.21037 -1.15413,-15.64258 -21.96812,-21.08902 -30.15961,-19.26572 6.54475,-8.13947 2.11392,1.41188 7.23545,-8.13034 5.80714,-12.35965 15.1337,-22.98432 20.79427,-35.15618 4.39507,-11.93629 7.76878,-22.44142 16.11253,-31.86625 13.14789,-10.43354 37.0176,6.10062 29.85505,21.60439 1.73795,15.21812 -11.91939,27.35259 -10.79214,42.50947 -3.4761,7.13493 -5.36048,16.58085 -5.88917,3.46672 -4.91825,-8.83623 -21.06478,-11.78414 -25.3265,-6.34011 6.6363,-14.67963 21.16798,-21.76102 29.26638,-35.12839 5.83389,-10.55201 10.90229,-36.81586 27.88267,-24.1046 15.98511,10.83806 2.22126,28.274 0.37898,42.06154 -3.47604,13.13182 -7.17724,26.78777 -10.10778,39.61633 2.50529,7.69781 -3.94781,-14.52101 -11.81071,-13.58343 -8.10999,-10.21834 -29.68604,10.05311 -16.86382,-6.15553 10.05561,-11.69067 10.99197,-26.72461 22.36658,-37.66025 9.20796,-5.68187 15.94457,-13.92939 17.31265,-24.66626 16.66429,-8.32369 42.33926,3.78573 30.5044,24.37292 -1.60592,12.86448 -12.54806,24.87652 -15.89606,34.48903 -7.36547,3.66014 -8.1801,29.88331 -7.10242,10.30351 -0.34283,-12.14594 -28.88677,-14.27652 -25.02657,-13.71286 6.80147,-9.44701 14.32501,-19.28577 18.93635,-30.31757 10.312,-12.56983 33.94861,-18.36716 36.99299,3.47444 -0.0101,13.24283 -4.982,34.99454 -22.14715,32.71772 -6.2722,4.18809 -13.06842,9.34637 -7.73753,-2.27291 -6.90109,-8.5304 -5.16636,-18.03658 0.61146,-26.398 1.58113,9.16588 21.5088,7.48586 18.46281,6.88877 -8.90114,12.55158 -4.6251,28.83106 -11.75568,42.76466 -5.43295,11.80103 -21.18954,22.26819 -33.52918,16.78768 -19.18345,-4.7732 -22.28535,-24.80972 -16.10445,-40.94878 17.97643,-46.81336 26.07766,-27.69686 35.52711,-28.48947 5.70377,2.73942 26.05181,-1.42363 22.06948,-5.473 -3.13377,5.29901 -4.72459,2.02711 -8.38092,11.08649 -6.96183,11.39775 -9.58207,26.12685 -14.68606,39.08524 -3.87226,14.3453 -8.43038,32.95501 -25.60735,36.27264 -13.2135,4.22321 -32.22237,-2.87569 -32.31132,-18.78838 -6.87339,-15.54739 2.60985,-30.74847 6.44769,-45.75532 6.35193,-12.43248 10.11152,-23.38382 17.30592,-34.36733 33.24181,-14.07974 14.81172,10.46558 16.32584,19.85478 -3.32496,14.87445 -0.87628,30.40516 -9.16574,44.23041 -2.62339,13.17507 -18.03735,26.35418 -31.61223,19.84749 -19.11686,-4.76516 -19.85138,-28.02079 -13.82534,-43.04925 -0.059,-14.53288 10.19931,-28.01732 16.14417,-39.16384 0.9658,-0.54678 12.04773,16.95886 21.90929,10.17577 7.13104,-10.26275 -12.19734,12.48659 -7.61251,20.34346 1.21766,15.21092 -5.12172,29.06072 -8.21574,43.63713 -5.16768,13.80713 -15.40124,30.38489 -31.83182,31.00614 -16.84772,0.11077 -27.39233,-16.35266 -26.87091,-31.64851 1.17116,-17.16572 5.72006,-34.36272 15.06649,-48.71915 1.50011,-8.29568 10.83074,-20.52541 13.53017,-25.06699 5.52331,-4.14315 7.10789,-10.66333 4.96009,0.63197 -0.63598,16.16111 29.81651,13.47736 28.58398,8.87947 -9.72096,11.45777 -7.13336,29.12875 -12.35108,43.23533 -5.16585,7.06275 -8.74781,24.73047 -16.85756,35.03439 -9.07172,11.2117 -22.94388,27.62694 -38.94463,19.89792 -19.96535,-0.98814 -20.37136,-19.38521 -18.15933,-34.59117 2.25107,-17.42175 12.28953,-32.72903 18.25669,-49.22906 1.27464,-4.92271 6.78554,-23.46886 8.67152,-19.90653 -0.78478,2.67024 9.75164,-37.15148 17.20694,-14.87632 4.04478,3.9954 24.15566,9.24945 17.84359,2.72768 -10.00191,8.46341 -16.48093,22.56102 -16.41818,35.92327 -1.58571,12.45819 -2.39706,24.63993 -5.92671,36.77416 -2.18202,14.95374 -9.90881,29.45032 -21.65686,38.74872 -11.5291,1.49151 -28.84327,6.46122 -38.15359,-3.62593 -7.03139,-17.28296 0.91198,-31.54817 3.27208,-48.45053 4.36415,-13.4544 9.48552,-26.65753 15.50521,-39.41094 3.09939,-9.58083 9.79701,-26.6148 15.95629,-28.09159 8.41836,6.58261 20.24343,20.01708 29.40964,6.90012 -4.18313,10.92877 -14.5993,25.90926 -15.59943,40.23029 -4.91564,13.19328 -4.27462,27.61212 -12.76557,39.78513 -6.61666,10.68616 -16.34065,25.59544 -30.42985,24.56017 -11.90389,-5.44296 -27.95141,-12.03635 -26.83569,-27.53975 -0.32836,-11.42727 10.80108,-31.90598 10.00961,-36.0119 2.3075,-5.50353 11.86036,-24.84675 15.77368,-36.51885 5.18841,-7.21091 12.16439,-30.07625 26.93566,-21.69932 16.43493,4.11444 20.95934,20.84937 7.52665,31.4571 -4.3798,10.84836 -2.82208,24.44719 -7.9244,35.78313 -3.71419,14.88962 -12.77798,27.8635 -18.27791,42.24862 -7.39749,10.05636 -14.63488,28.72399 -30.2587,22.58943 -17.68905,1.18312 -29.69038,-13.57146 -26.21748,-30.66902 5.16991,-16.5361 9.52104,-33.39302 16.61453,-49.09544 1.16977,-8.31829 6.31677,-15.21973 7.55784,-23.4947 7.01777,-8.38375 11.57491,-36.69891 24.19058,-24.4521 7.451,5.98842 20.29708,20.17904 23.89884,19.76595 -9.71227,11.71993 -14.11642,27.44155 -18.73813,41.52787 -3.63616,15.13702 -7.25273,31.40188 -17.47209,43.67392 -10.29709,12.76655 -29.03613,19.25261 -43.45193,8.9484 -14.69658,-11.50034 -12.61941,-33.39178 -7.33128,-49.27633 5.70951,-14.31232 9.86158,-29.09472 18.72776,-41.85847 6.79336,-16.99277 1.21917,10.50328 13.53336,11.45866 8.06985,10.95377 26.56075,-6.11434 24.8625,-3.93673 -4.47367,14.37393 -5.55039,31.07279 -13.88113,44.83973 -6.97139,15.73377 -11.68556,32.48728 -23.29569,45.67425 -9.41421,14.12822 -27.85295,7.84766 -40.08289,1.6374 -11.38728,-12.54662 -7.37943,-31.18686 -1.38002,-45.27373 6.96083,-15.94254 9.10352,-33.60258 16.8261,-49.15112 3.31461,-7.60144 14.38954,-33.66572 14.01128,-11.38212 5.85251,9.15431 19.25342,19.98026 29.31533,9.866 -8.41427,8.10282 -9.93071,19.6787 -14.14754,30.06114 -5.04007,12.7161 -6.99738,26.71741 -15.22107,38.08163 -6.01013,15.49651 -21.22277,28.47179 -38.50414,25.13421 -20.10573,2.58055 -23.66157,-22.61695 -22.86124,-37.25758 5.19912,-14.03961 9.54275,-31.39771 14.83637,-43.32731 3.10895,-4.38067 5.79738,-34.01863 15.07572,-18.18668 6.83206,11.80977 26.75171,5.19633 26.7895,3.79265 -7.12139,13.91361 -10.99219,28.82753 -14.09076,44.09695 -6.32609,17.2517 -13.14453,34.6536 -24.05221,49.59524 -12.11347,10.01309 -36.28828,0.68911 -39.20584,-15.31991 -4.77916,-16.7834 5.96385,-31.3281 10.22915,-46.71046 2.56903,-14.52504 10.23732,-27.18826 15.41881,-40.27403 1.69014,10.1255 26.70229,26.44781 33.58596,7.68784 -4.73459,25.31375 -10.68907,50.91875 -23.40601,73.51417 -1.76824,18.59978 -24.52062,26.3348 -40.21937,20.53397 -12.74647,-10.90136 -9.92747,-31.16213 -4.59743,-45.46422 5.88728,-16.83667 11.62604,-33.96829 21.09966,-49.19733 -2.04223,16.68063 28.07984,22.97931 27.30272,5.02814 0.90811,-0.94353 -2.33394,10.93344 -1.11186,20.28281 -9.27252,14.8254 -11.94248,33.14091 -23.44464,46.63629 -5.84194,20.93073 -40.71574,19.62611 -45.08039,-0.59647 -0.58848,-16.49259 3.69738,-33.04591 9.77778,-48.36893 9.1642,-11.8525 10.94103,-27.5404 20.19334,-39.243 4.72335,13.04114 14.79098,19.53417 28.72783,13.63087 -6.78613,-1.33539 -15.54477,21.45888 -14.3511,31.43554 0.26737,4.96058 -9.05554,26.58264 -5.43973,14.38893 -5.86742,12.77533 -8.95537,26.65361 -17.72855,38.06439 -7.35653,9.88707 -19.24014,23.44884 -32.82021,15.84866 -17.39489,-3.18846 -15.5353,-20.8302 -10.47817,-33.23819 6.36549,-17.55621 11.99321,-35.50719 19.01478,-52.81578 -0.35524,-9.83532 4.79426,-0.58202 5.96866,-12.40804 3.60141,-16.48897 14.75413,17.41503 23.95439,8.20026 6.67926,-3.96224 -5.58361,6.42483 -3.31784,10.3769 -6.9071,10.78958 -13.72431,24.2415 -13.13539,36.44223 -0.16483,17.08517 -11.74244,29.70032 -18.36846,44.64123 -8.42399,14.78389 -31.99516,3.77281 -36.94444,-9.04038 -5.43111,-16.54935 5.86138,-30.97329 11.34942,-45.55447 1.96016,-14.0105 9.72775,-24.94849 13.38759,-34.18607 1.82857,3.08838 -2.53974,-16.95891 4.99267,-20.43736 4.96429,-7.92852 26.85842,0.13097 33.92806,6.73629 -3.33545,14.23206 -14.91437,26.91449 -18.13048,42.12408 -4.88064,13.37569 -17.62323,23.2328 -21.6124,36.31497 -10.31526,7.03326 -5.16218,31.18956 -23.33679,21.14146 -10.38185,-2.87261 -36.41254,-2.43403 -23.48224,-19.15016 1.5488,-10.19241 5.03783,-21.34727 9.29684,-33.33693 5.1579,-17.71515 9.37668,-35.76425 16.6127,-52.77984 4.51696,-11.01032 11.51512,-7.10423 19.06645,-1.97442 5.75223,3.18262 11.50437,6.3659 17.25667,9.54812 z"
       id="path3996"
       inkscape:connector-curvature="0"
       inkscape:export-filename="/home/avp/src/projects/guile-ssh/doc/logo.png"
       inkscape:export-xdpi="144.019"
       inkscape:export-ydpi="144.019"
       sodipodi:nodetypes="ccccccccccccccccccccccccccccccccccccccccccccccccccccccccccccccccccccccccccccccccccccccccccccccccccccccccccccccccccccccccccccccccccccccccccccccccccccccccccccccccccccccccccccccccccccccccccccccccccccccccccccccccccccccccccccccccccccccccccccccc" />
  </g>
  <g
     inkscape:groupmode="layer"
     id="layer4"
     inkscape:label="shell-color"
     style="display:inline">
    <path
       style="fill:#e3dbdb;fill-opacity:1;fill-rule:nonzero;stroke:none"
       d="m 201.93835,443.58416 c -1.92272,4.78649 -12.42385,4.33644 -3.89916,6.13935 -5.55993,9.18444 -18.69938,9.85841 -24.68274,19.22046 -3.42984,2.19051 -10.99384,14.05156 -2.58501,5.90936 8.13233,-7.90937 -2.3598,2.45568 -5.13445,3.61943 -6.77676,7.46572 -10.57784,14.70989 -13.84761,22.97577 -1.27767,6.41856 -6.31989,11.72965 0.39262,15.42358 3.82948,9.35798 10.22514,18.59139 19.09749,23.98956 10.21175,6.15113 21.10455,10.9818 32.05126,15.63803 1.09887,-7.6452 12.02008,-10.91209 19.75168,-13.06436 8.07618,-2.9719 14.1708,-9.95207 22.81679,-11.7031 9.29941,-2.09151 14.22252,-10.75945 22.17258,-15.21814 3.77462,-2.25037 8.4883,-7.12726 2.42118,-1.09934 -3.05701,2.91105 -7.50161,8.25449 -3.00976,3.44133 8.74389,-4.39257 11.33053,-12.25276 16.16094,-19.8069 1.48769,-1.00107 0.75713,-9.48013 4.59724,-3.61677 1.78505,4.46003 -11.55186,-17.08793 -3.00201,-8.17746 9.95097,5.29208 0.64403,12.12735 -6.57329,7.17194 8.74708,0.14119 -10.18244,19.79812 -2.24076,10.4142 7.04973,-4.8119 0.45866,-7.46369 2.48803,-13.09557 7.29841,9.13917 2.21293,21.34756 0.25027,31.50698 -3.19708,18.34725 -19.58989,30.17107 -34.79042,38.71756 -13.53914,8.68867 -29.85813,12.49785 -45.81138,12.24558 -15.71333,-2.23032 -32.09523,-10.46031 -38.75449,-25.66797 -5.85998,-9.7949 -12.01624,-21.027 -8.97976,-32.83181 2.12177,-11.5305 -3.93991,-24.6537 4.46852,-34.74706 7.40679,-6.17534 6.192,-16.47636 10.86818,-24.17132 8.71273,-7.08416 10.89788,-18.12244 18.56421,-25.84428 5.52618,-8.21209 15.13848,-10.31001 21.93849,-16.73222 7.74148,-7.39257 19.49135,-6.1085 28.63389,-2.35207 10.5048,-1.26828 19.81913,5.57179 24.58154,14.54039 5.7543,9.33294 1.64483,19.98902 2.73297,29.91429 0.98207,10.34258 -6.43954,7.45044 -8.91187,0.48552 -3.29957,-2.78088 -8.31233,-6.75954 -0.88394,-2.55407 9.22658,5.79442 13.58602,17.06924 15.48585,27.34829 1.59416,11.7082 -10.68048,15.46754 -17.67243,21.83449 -4.49909,7.80098 -19.64094,4.65585 -21.66436,4.427 5.55033,0.29394 8.69432,2.06095 12.78648,5.92892 4.42215,-1.35627 14.02315,-11.97562 11.75504,-0.47192 -1.37029,11.10301 -11.92844,15.75958 -20.23,20.94 -7.04632,6.37801 -16.33681,11.13481 -25.71919,6.36039 -10.70367,-1.95393 -20.10591,-9.22622 -24.91002,-18.96705 -7.90354,-17.39315 -6.28959,-38.68732 4.37119,-54.58694 4.17595,-9.30437 19.43806,-13.56639 17.22708,1.06173 4.21808,8.96727 17.57866,7.31318 22.56653,14.5366 1.73785,4.21529 -3.0677,14.29039 4.35905,6.96088 9.4596,-8.59015 -0.0956,7.66037 -2.61645,11.18611 -5.23745,9.98786 -17.45268,16.49641 -28.50791,12.26244 -9.95187,-3.31807 -22.4176,0.91786 -30.70094,-6.56096 -8.87822,-2.67206 -6.04481,-21.49317 1.90835,-9.97328 4.54397,10.14728 18.79921,9.83987 23.67053,19.4987 2.76469,13.39053 -14.17589,15.22448 -23.43802,12.07653 -10.50985,-1.58365 -21.31822,-7.34419 -25.58354,-17.45804 2.37181,-2.50082 6.86687,8.00817 12.69045,6.07498 8.80185,5.43154 14.3937,-3.84175 21.17813,-5.3495 8.04918,11.09023 -12.05215,19.07706 -13.54199,4.69064 -2.15639,-6.6266 -17.05597,-14.75571 -2.51602,-12.27343 7.28588,0.87301 19.44612,13.3342 12.55569,14.30189 -11.74822,-5.95741 -9.96236,11.01333 -8.23682,17.69952 -2.29673,11.33528 -14.68863,8.85281 -21.27747,5.7061 8.91901,6.82137 -3.48622,-3.51185 -6.79382,-4.75747 -6.8937,-6.47261 -10.71318,-15.93691 -13.61885,-24.74464 -1.3481,-14.61873 17.32239,-18.27957 25.14593,-27.88646 10.46507,-3.86929 20.44919,1.27698 29.21327,6.69817 -0.97946,0.40163 -1.10452,2.74069 -0.15445,1.43119 -5.15599,-7.74865 -16.70984,-6.63735 -21.26536,-14.24866 -0.14061,-13.09801 16.78187,-10.28626 25.41937,-8.75775 10.27688,1.48578 19.9662,6.97659 24.76669,16.44218 8.49361,7.73728 4.60522,22.92448 -6.65107,24.98443 -14.02123,-2.60521 -31.28473,0.31407 -41.83653,-11.45587 -4.90967,-11.81202 4.33659,-23.4235 11.95517,-31.61884 3.53988,-2.6314 15.03131,-13.48688 6.05258,-4.64443 10.88467,-4.42277 17.59401,-21.25883 30.99549,-15.56119 8.40107,3.87716 19.87892,3.83836 25.43567,12.08939 0.97007,10.74389 11.05271,19.44688 3.40195,30.43127 -2.61004,6.77863 -8.33032,26.60113 -17.08508,14.25002 -7.08836,-4.6793 -17.5753,-7.25881 -25.72682,-8.10385 -3.8559,2.47542 -15.88437,11.93072 -10.49283,0.71655 6.36521,-9.89897 18.72377,-12.62138 26.54413,-21.02336 7.92919,-7.07972 20.16213,-4.71867 29.53689,-2.08343 -8.57763,-3.34445 -19.36509,0.5952 -24.5497,7.03299 3.16594,2.47438 -8.01419,-1.44384 -0.67339,-4.85142 7.47869,-7.85129 16.40526,9.97526 19.14374,8.65843 -9.29797,-4.20814 -13.91949,-13.9662 -16.80933,-23.10171 4.1159,-4.57173 -4.85787,-18.28242 4.12922,-12.48486 -1.8054,-6.03011 2.09066,-4.36964 4.09747,-0.10141 -3.51785,0.83651 -13.96532,17.33981 -5.55292,8.86183 8.71277,-6.2834 -8.03613,5.16496 -11.05395,7.8578 -5.35315,8.42929 -0.67566,17.85594 -1.7229,27.24169 -2.97308,8.05729 -9.46717,13.52648 -5.39781,22.51946 2.60357,6.39542 -7.26655,11.55152 -2.84486,5.4312 8.88693,-2.7511 16.57447,-8.44346 25.61975,-10.96888 5.40922,-0.20022 18.2572,-7.96146 8.70589,-0.0809 -6.00453,3.41802 -0.0196,5.22327 -0.71154,8.04709 -4.36697,-8.81167 0.64106,-18.87743 -0.10691,-28.32978 0.41424,-9.67892 4.43551,-18.3066 11.57963,-24.88107 5.36216,-8.00074 14.4242,-11.57174 23.7062,-12.13978 10.7063,-1.65972 21.01855,-9.29556 31.92829,-3.57534 8.81056,4.01075 17.88856,10.45393 21.72399,19.22947 4.83395,9.31767 14.1866,19.02867 9.61668,30.46426 -0.42497,9.99296 -2.21742,19.46458 -7.99294,27.83657 -1.95846,12.43673 -10.02634,22.41491 -18.97403,30.75432 -8.55628,8.49223 -14.69976,19.41018 -25.39958,25.57997 -11.55317,7.26124 -23.29824,15.40339 -37.01835,17.75454 -8.86,0.0937 -17.88561,-1.73431 -26.1939,2.32345 -11.11751,2.07236 -21.75181,-2.05792 -32.05644,-5.53215 -7.1824,-3.12363 -17.68292,-4.03865 -25.538,-8.22 -17.29322,-7.04333 -31.58716,-20.98474 -40.20983,-37.53861 -6.01993,-7.37012 -8.57268,-16.40357 -10.0439,-25.62182 -2.91268,-10.25523 -5.71131,-21.25759 -1.59283,-31.61632 -1.53135,3.2715 2.69622,-12.34918 5.95006,-15.92491 4.77019,-7.30703 7.8249,-14.69827 11.3089,-22.94118 5.729,-9.51905 14.56374,-17.61156 24.31502,-22.93551 7.48298,-8.46083 18.13582,-12.4666 27.35196,-18.595 11.69613,-6.45971 26.81818,-9.55424 39.24743,-3.43337 7.357,6.61477 0.4402,16.4933 -4.19977,22.51883 -2.9392,3.5994 -5.37033,8.42568 -9.44412,10.67993 z"
       id="path3475"
       inkscape:connector-curvature="0"
       inkscape:export-filename="/home/avp/src/projects/guile-ssh/doc/logo.png"
       inkscape:export-xdpi="144.019"
       inkscape:export-ydpi="144.019" />
  </g>
  <g
     inkscape:groupmode="layer"
     id="layer2"
     inkscape:label="shell"
     style="display:inline">
    <path
       style="fill:#241c1c;fill-opacity:1;fill-rule:nonzero;stroke:none"
       d="m 203.16719,486.8478 c 4.69145,10.20232 13.06429,2.26176 4.42803,-2.53308 -15.47884,-3.82797 -6.23743,18.49376 3.87574,11.04834 9.4548,-7.83462 3.79291,-23.62366 -8.65775,-21.09184 -11.33469,0.22 -18.94138,10.96305 -15.952,21.86558 6.12017,14.99098 23.25097,16.34304 33.92082,12.39969 15.65914,-7.80437 22.28983,-30.44433 10.05952,-44.42544 -9.27803,-11.29157 -28.58004,-11.891 -40.12557,-5.53361 -17.66457,8.0437 -23.00329,32.31188 -18.2165,50.04834 4.97307,9.79861 2.39586,9.77739 21.67352,20.33146 12.29823,3.30033 21.56948,4.47291 34.0602,1.89108 20.10644,-5.59045 33.8493,-26.4609 38.50385,-44.07384 3.37693,-13.64068 1.53168,-29.2013 -6.51534,-40.97723 -7.04568,-9.20839 -17.01253,-15.15353 -29.113,-17.69018 -20.56832,-4.73491 -46.32014,-2.29867 -63.46864,6.63889 -28.07149,14.14927 -44.07973,41.32581 -41.55766,77.93112 -0.16992,15.83031 9.06197,42.49525 25.72091,58.68923 9.89292,9.944 23.627,11.65885 35.81635,15.63939 26.81043,1.26458 50.16927,4.09065 70.90022,-6.87546 23.81942,-13.88723 23.05598,-11.78475 38.08489,-25.90311 10.60329,-9.94671 36.77312,-46.46909 31.73374,-69.08213 0.50214,-14.86 -33.30861,-26.30852 -48.29084,-23.18506 -11.41704,0.88039 -13.44151,9.33056 -9.23298,-0.30456 9.42684,-2.41842 20.88784,-3.26165 31.00399,-1.85799 18.87444,7.45914 31.19647,10.51219 29.66891,36.74094 -1.67907,22.7707 -19.31068,56.7417 -38.01192,69.40691 -14.99219,11.55703 -19.61308,16.06328 -37.09143,23.74137 -25.17336,9.98386 -59.98616,5.92533 -85.68447,-0.14641 -15.98933,-7.50634 -25.74512,-15.97782 -34.34822,-28.13239 -14.20885,-21.27642 -16.96008,-45.6732 -13.51776,-70.74468 6.7701,-36.63766 24.87748,-50.78711 57.54928,-63.57034 19.48016,-4.85534 49.80712,-4.68728 68.94412,5.55961 13.38225,10.4083 19.04677,15.57785 23.18301,32.74924 0.20781,20.88451 -7.75792,44.43952 -22.44223,59.56823 -12.08264,12.35788 -30.63121,16.1976 -47.25294,13.52301 -8.49726,-2.00795 -18.49197,-3.83172 -25.68754,-10.61442 -11.35805,-9.126 -13.87246,-22.04632 -12.75536,-35.87665 1.44567,-17.30878 12.53757,-35.50058 29.35085,-40.60826 12.22843,-4.6616 28.23879,-2.53427 39.85994,7.60147 10.50748,11.20366 8.36422,30.14644 0.40702,42.7084 -5.37378,9.35487 -15.62038,16.68179 -26.84645,14.9241 -10.05056,0.0764 -20.10711,-6.43033 -23.49504,-15.7608 -4.98579,-9.34477 -0.90993,-22.27826 9.3106,-26.73449 9.90262,-6.69647 25.00747,-3.45408 27.40521,9.37078 2.36882,10.38554 -5.14172,21.3907 -16.82693,16.53368 -10.44164,-7.40587 -5.13671,-24.05165 7.04651,-16.00971 8.48073,11.03207 -9.36629,11.87888 -7.86941,3.30441 0.43008,-0.69421 3.63136,-3.60563 0.45275,-0.48359 z"
       id="path3033"
       inkscape:connector-curvature="0"
       sodipodi:nodetypes="cccccccccccccccccccccccccccccccccccccccccccccccc"
       inkscape:export-filename="/home/avp/src/projects/guile-ssh/doc/logo.png"
       inkscape:export-xdpi="144.019"
       inkscape:export-ydpi="144.019" />
    <path
       style="fill:#241c1c;fill-opacity:1;fill-rule:nonzero;stroke:none"
       d="m 293.96379,462.34573 c -0.0953,6.84314 -2.90814,14.08303 -5.05944,20.7466 -1.22693,7.14972 -2.69041,14.20305 -6.54216,20.35908 -4.0965,6.67288 -8.42568,13.25514 -13.29946,19.38565 -3.57497,3.8206 -7.54574,7.25008 -11.41506,10.76116 -1.65137,1.7142 -5.79869,5.21459 -24.71871,12.10159 10.07109,-6.85087 24.91332,-15.42531 27.03331,-18.88249 5.07409,-4.54385 8.22169,-10.47874 11.80928,-16.26923 4.40104,-6.0736 7.58676,-12.93116 9.91868,-20.03401 2.89798,-9.48189 3.23024,-21.05948 3.01935,-28.15543 1.32984,-3.45412 9.53869,-3.7499 9.25421,-0.0129 z"
       id="path3039"
       inkscape:connector-curvature="0"
       sodipodi:nodetypes="cccccccccccc"
       inkscape:export-filename="/home/avp/src/projects/guile-ssh/doc/logo.png"
       inkscape:export-xdpi="144.019"
       inkscape:export-ydpi="144.019" />
    <path
       style="fill:#241c1c;fill-opacity:1;fill-rule:nonzero;stroke:none"
       d="m 314.5423,468.37835 c -1.39719,12.06042 -7.61599,22.74707 -13.7414,32.96779 -3.47362,6.7526 -7.40711,13.29273 -12.41538,19.02829 -2.94813,3.89254 -6.21364,7.56785 -9.66965,11.00149 -2.08117,2.19627 -14.0617,11.33415 -11.08492,7.39887 4.67983,-4.829 14.07364,-16.29846 16.83874,-20.64827 2.93245,-4.00116 5.92602,-7.98583 7.97619,-12.54165 3.5948,-7.43473 8.23327,-14.32285 11.35218,-21.98734 2.44988,-5.33906 1.39991,-11.3731 2.40974,-17.1587 1.13275,-3.41218 9.10431,-1.59623 8.3345,1.93952 z"
       id="path3043"
       inkscape:connector-curvature="0"
       sodipodi:nodetypes="cccccccccc"
       inkscape:export-filename="/home/avp/src/projects/guile-ssh/doc/logo.png"
       inkscape:export-xdpi="144.019"
       inkscape:export-ydpi="144.019" />
    <path
       style="fill:#241c1c;fill-opacity:1;fill-rule:nonzero;stroke:none"
       d="m 328.96355,484.00191 c -2.586,9.4353 -7.45765,19.90269 -11.8323,28.56625 -3.51193,6.18578 -7.51831,10.15647 -11.7429,15.88005 -2.75334,2.11665 -14.66942,14.56503 -17.33237,15.55603 1.56435,-4.97959 8.29907,-10.3089 10.49201,-14.20379 3.44845,-4.07855 5.80416,-8.92074 8.59035,-13.45597 9.14859,-12.4463 9.99094,-26.89029 17.25465,-39.8315 2.37777,-0.64611 5.49379,5.15847 4.57056,7.48893 z"
       id="path3045"
       inkscape:connector-curvature="0"
       sodipodi:nodetypes="cccccccc"
       inkscape:export-filename="/home/avp/src/projects/guile-ssh/doc/logo.png"
       inkscape:export-xdpi="144.019"
       inkscape:export-ydpi="144.019" />
    <path
       style="fill:#241c1c;fill-opacity:1;fill-rule:nonzero;stroke:none"
       id="path3126"
       d="m 261.92831,482.62111 c -0.1231,0.51974 -0.26486,1.03556 -0.37617,1.55786 -0.16308,0.5784 -0.35285,1.15146 -0.49917,1.73603 -0.16671,0.52063 -0.36544,1.02976 -0.55136,1.5443 -0.16488,0.45427 -0.40065,0.89981 -0.47302,1.38184 -0.16571,0.40669 -0.318,0.81636 -0.5024,1.21555 -0.15642,0.41982 -0.31216,0.84061 -0.4738,1.2598 -0.18103,0.43019 -0.38229,0.85118 -0.58615,1.2716 -0.16839,0.45587 -0.36863,0.89881 -0.58961,1.3319 -0.20471,0.43644 -0.42399,0.86863 -0.66367,1.28688 -0.24676,0.47355 -0.47619,0.96143 -0.7618,1.41477 -0.37853,0.58887 -0.74964,1.17855 -1.16351,1.74339 -0.40689,0.61561 -0.78374,1.25197 -1.21878,1.84836 -0.41922,0.61489 -0.83649,1.23697 -1.28875,1.8313 -0.4636,0.70941 -0.95767,1.40805 -1.47685,2.07983 -0.50419,0.69554 -0.92479,1.44319 -1.44658,2.12459 -0.44282,0.76801 -0.96173,1.49183 -1.51898,2.18165 -0.53923,0.73522 -1.08849,1.4665 -1.64924,2.18675 -0.54293,0.70288 -1.1024,1.38409 -1.72152,2.02152 -0.57086,0.66434 -1.1601,1.32043 -1.78628,1.934 -0.54531,0.55702 -1.12449,1.07917 -1.66891,1.63696 -0.51421,0.5296 -1.0936,0.99493 -1.5939,1.53707 -0.52331,0.47441 -1.06689,0.9318 -1.54627,1.45005 -0.44504,0.47684 -1.01543,0.80713 -1.48928,1.24649 -0.50107,0.3558 -1.0745,0.59652 -1.56322,0.96758 -0.5558,0.27883 -1.1377,0.48967 -1.70032,0.75789 -0.58249,0.20598 -1.18188,0.40458 -1.7419,0.67673 -0.57555,0.1904 -1.16118,0.38719 -1.71362,0.63714 -0.60975,0.23996 -1.24013,0.41252 -1.84688,0.65909 -0.69215,0.20712 -1.38534,0.41755 -2.07015,0.65018 -0.64277,0.1725 -1.29459,0.31543 -1.93927,0.48451 -0.53362,0.13648 -1.08218,0.18238 -1.62475,0.26637 -0.50415,0.0272 -1.00517,0.10277 -1.51046,0.0767 -0.4743,0.006 -0.94439,-0.009 -1.41675,-0.0598 -0.48019,-0.002 -0.97086,0.005 -1.4439,-0.0719 -0.48434,-0.0811 -0.98134,-0.0795 -1.45933,-0.19052 -0.46179,-0.1083 -0.92675,-0.12558 -1.3951,-0.20321 -0.4527,0.0232 -0.89081,-0.0196 -1.3401,-0.0805 -0.44366,-0.0497 -0.87714,-0.063 -1.31872,-0.13576 -0.39201,-0.15387 -0.79541,-0.0208 -1.19573,-0.0494 -0.35876,0.0627 -0.71791,0.004 -1.07894,0.0256 -0.34335,0.008 -0.66937,-0.11567 -0.99951,-0.19456 -0.30339,-0.11289 -0.59353,-0.18329 -0.91527,-0.21799 -0.29593,-0.068 -0.59348,-0.11355 -0.89508,-0.15474 -0.29351,-0.04 -0.59645,0.0153 -0.89381,0.0256 -0.29963,-9.1e-4 -0.59537,0.0477 -0.89397,0.0596 -0.3033,0.0793 -0.61376,0.074 -0.92338,0.0674 -0.31681,0.004 -0.58638,0.0535 -0.91303,0.0612 -0.42056,0.0603 -0.68661,0.0285 -0.99491,-0.27633 -0.3218,-0.23712 -0.15774,-0.0871 -0.46477,-0.47821 -0.0992,0.0127 -0.11715,-0.12757 -0.018,-0.14028 l 0,0 c 0.20984,-0.45902 0.0799,-0.27384 0.3541,-0.57899 0.27756,-0.39784 0.60827,-0.45399 1.07775,-0.42554 0.3293,-0.008 0.60293,0.0314 0.91957,0.0347 0.2981,-0.021 0.59528,-0.048 0.8932,0.006 0.302,-0.0121 0.60342,0.0145 0.90552,-0.005 0.31528,-0.0108 0.63512,0.0214 0.94557,-0.0266 0.31368,-0.0421 0.62481,-0.0787 0.93477,-0.13845 0.32391,-0.0233 0.61926,-0.0797 0.92771,-0.18225 0.30026,-0.0618 0.59084,-0.16842 0.89864,-0.17776 0.3137,0.008 0.61386,-0.069 0.92803,-0.059 0.37473,-0.0888 0.77725,-0.0262 1.12033,-0.247 0.47113,-0.16408 0.95052,-0.25223 1.43942,-0.34493 0.51299,-0.1062 1.02375,-0.17495 1.54781,-0.14399 0.49324,-0.0612 0.98101,-0.06 1.4702,-0.14028 0.47818,-0.0793 0.96672,-0.0459 1.44875,-0.10032 0.42417,-0.0554 0.85979,-0.0293 1.28905,-0.0409 0.39251,-0.0584 0.78169,-0.0959 1.17529,-0.13899 0.35057,-0.0725 0.71374,-0.0696 1.0599,-0.16751 0.41197,-0.0617 0.80905,-0.19694 1.21651,-0.28178 0.5603,-0.11488 1.1105,-0.29739 1.65182,-0.47551 0.63644,-0.15952 1.26676,-0.36285 1.8762,-0.60339 0.58677,-0.15787 1.14127,-0.41014 1.71336,-0.61386 0.56597,-0.16635 1.12376,-0.39716 1.66427,-0.63246 0.57437,-0.1617 1.13306,-0.41015 1.67728,-0.63827 0.42605,-0.13041 0.82976,-0.32724 1.21093,-0.549 0.40988,-0.10756 0.77841,-0.38105 1.1282,-0.60825 0.47592,-0.19006 0.85374,-0.58619 1.30426,-0.83109 0.58526,-0.33811 1.11735,-0.76517 1.65318,-1.17689 0.61582,-0.38915 1.1584,-0.88718 1.76021,-1.29867 0.59957,-0.41432 1.1614,-0.87806 1.72844,-1.33528 0.62761,-0.53593 1.27778,-1.04687 1.91147,-1.57514 0.58696,-0.56645 1.20188,-1.09183 1.78628,-1.66109 0.61708,-0.61259 1.21499,-1.23897 1.79417,-1.88659 0.5324,-0.65979 1.09483,-1.29521 1.67501,-1.91193 0.49323,-0.68944 1.06474,-1.31356 1.55179,-2.00984 0.47014,-0.69588 0.98086,-1.36978 1.49214,-2.03395 0.40726,-0.62331 0.85491,-1.2208 1.29422,-1.81854 0.40389,-0.60034 0.84996,-1.1709 1.25144,-1.77333 0.35566,-0.57221 0.76106,-1.1073 1.12794,-1.67156 0.26806,-0.42806 0.57953,-0.82777 0.85258,-1.25103 0.22251,-0.38794 0.45209,-0.77175 0.67411,-1.1602 0.22381,-0.4375 0.45635,-0.87046 0.72061,-1.28472 0.22125,-0.3966 0.46019,-0.7808 0.68954,-1.17235 0.22772,-0.36774 0.45881,-0.73707 0.66749,-1.114 0.18091,-0.39144 0.38682,-0.76806 0.56861,-1.15862 0.30156,-0.37169 0.48637,-0.83134 0.69236,-1.25862 0.22493,-0.45946 0.42638,-0.93301 0.59321,-1.41568 0.22131,-0.53302 0.37077,-1.09619 0.50505,-1.65489 0.15564,-0.50073 0.27232,-1.01379 0.38831,-1.52502 0.19299,-0.8204 1.35322,-0.54748 1.16023,0.27293 z"
       inkscape:connector-curvature="0"
       inkscape:export-filename="/home/avp/src/projects/guile-ssh/doc/logo.png"
       inkscape:export-xdpi="144.019"
       inkscape:export-ydpi="144.019" />
    <path
       style="fill:#241c1c;fill-opacity:1;fill-rule:nonzero;stroke:none"
       id="path3154"
       d="m 231.97556,479.29662 c 0.0189,0.46051 0.0708,0.92483 0.14733,1.38107 0.0765,0.47598 0.0721,0.96063 0.13327,1.43787 -0.009,0.39462 0.0194,0.78563 0.0374,1.17911 0.025,0.34234 0.0179,0.67891 -0.0212,1.02029 -0.0263,0.3145 -0.0646,0.62865 -0.0871,0.94572 -0.0332,0.30837 -0.11472,0.60895 -0.17843,0.91209 -0.0367,0.30916 -0.13573,0.61199 -0.22146,0.91192 -0.0655,0.3273 -0.21622,0.63139 -0.28705,0.95476 -0.10696,0.35548 -0.28762,0.68726 -0.39858,1.03907 -0.17948,0.35367 -0.34968,0.71247 -0.53055,1.06607 -0.25457,0.28529 -0.50953,0.50869 -0.66572,0.86516 -0.12261,0.27666 -0.35777,0.40562 -0.43374,0.69606 -0.0896,0.22981 -0.17896,0.46598 -0.25465,0.70349 -0.12048,0.24166 -0.25748,0.48065 -0.37051,0.72799 -0.1259,0.29234 -0.28223,0.5723 -0.40686,0.8649 -0.14754,0.29376 -0.22046,0.6044 -0.35082,0.90562 -0.1293,0.35694 -0.29094,0.70054 -0.48817,1.02601 -0.19695,0.33701 -0.36037,0.69318 -0.56178,1.02822 -0.19519,0.33528 -0.36395,0.68444 -0.5544,1.02218 -0.17796,0.3626 -0.38005,0.71069 -0.57925,1.0632 -0.23778,0.33731 -0.53263,0.62945 -0.7749,0.96172 -0.22733,0.31502 -0.49229,0.60359 -0.76905,0.87584 -0.2415,0.28322 -0.48506,0.55938 -0.75022,0.82133 -0.29754,0.29696 -0.58059,0.60622 -0.91557,0.86185 -0.33121,0.21112 -0.60452,0.49819 -0.92923,0.71716 -0.31226,0.21778 -0.6245,0.42362 -0.96126,0.60323 -0.31948,0.19811 -0.65778,0.3596 -0.9872,0.54173 -0.35369,0.14492 -0.66037,0.37485 -0.99903,0.54267 -0.34454,0.21684 -0.71327,0.39385 -1.09364,0.54475 -0.38202,0.19091 -0.77128,0.37821 -1.17943,0.50999 -0.39681,0.16732 -0.77875,0.37102 -1.18743,0.51543 -0.39835,0.19958 -0.83558,0.34373 -1.26763,0.46566 -0.43441,0.1321 -0.87025,0.27546 -1.31708,0.36724 -0.43715,0.12797 -0.87723,0.2671 -1.32632,0.35026 -0.46015,0.10743 -0.92925,0.1692 -1.39678,0.23616 -0.43465,0.07 -0.87272,0.0745 -1.30976,0.10372 -0.36483,0.003 -0.72915,0.0132 -1.09418,0.0142 -0.32217,0.0321 -0.63682,-0.0666 -0.95197,-0.074 -0.28645,0.005 -0.56725,-0.0173 -0.85313,-0.005 -0.3137,-0.0116 -0.62726,-0.0255 -0.93852,-0.0917 -0.34016,0.008 -0.5665,-0.26806 -0.88677,-0.32952 -0.30398,-0.0754 -0.5874,-0.19895 -0.88036,-0.3007 -0.28329,-0.10851 -0.55248,-0.26152 -0.84092,-0.35444 -0.22671,-0.14819 -0.49789,-0.20376 -0.75024,-0.29472 -0.26356,-0.10063 -0.54559,-0.15681 -0.8079,-0.25634 -0.29839,-0.0961 -0.6005,-0.16856 -0.82298,-0.39959 -0.21106,-0.1626 -0.46042,-0.24975 -0.69665,-0.36527 -0.25629,-0.0822 -0.51383,-0.17357 -0.73008,-0.33751 -0.2682,-0.13168 -0.56974,-0.21579 -0.81458,-0.38403 -0.23502,-0.12725 -0.46586,-0.27787 -0.67913,-0.43924 -0.29232,-0.20929 -0.60303,-0.36731 -0.76281,-0.70586 -0.17297,-0.32259 0.17896,-0.50989 -0.10393,-0.7737 -0.0754,-0.0657 0.0176,-0.1723 0.093,-0.10656 l 0,0 c 0.29587,0.24131 0.42217,-0.11889 0.76249,-0.0259 0.29578,0.0575 0.49487,0.26927 0.75225,0.40655 0.20302,0.0933 0.40449,0.19167 0.60618,0.2885 0.2147,0.0607 0.40803,0.19762 0.64035,0.22446 0.29236,-0.0127 0.57774,0.084 0.84864,0.18523 0.28701,0.075 0.56108,0.19376 0.85367,0.24961 0.25679,-0.009 0.4684,0.10617 0.70546,0.1926 0.25688,0.0687 0.50522,0.17719 0.76859,0.22993 0.30822,0.0789 0.60188,0.20795 0.91541,0.26388 0.25943,0.11165 0.53296,0.19766 0.80236,0.2812 0.21835,0.0765 0.45572,0.11777 0.68245,0.1702 0.23264,0.0713 0.44264,-0.12125 0.67843,-0.0311 0.20881,-6.2e-4 0.41526,0.0356 0.62122,0.0153 0.25931,0.0165 0.51697,-0.0148 0.77722,-0.0214 0.29578,-0.0209 0.58571,-0.1362 0.88992,-0.12997 0.3402,-0.0285 0.68035,-0.0524 1.01934,-0.0919 0.36021,-0.0233 0.71932,-0.0822 1.07871,-0.12018 0.36693,-0.0516 0.72521,-0.13498 1.0829,-0.23097 0.41498,-0.13254 0.84579,-0.22228 1.26898,-0.32085 0.38898,-0.13182 0.79133,-0.21862 1.18092,-0.34289 0.36252,-0.12899 0.72948,-0.25075 1.09409,-0.36006 0.3959,-0.16913 0.81203,-0.27812 1.21492,-0.42251 0.35665,-0.16923 0.73236,-0.29268 1.1039,-0.42 0.32528,-0.15638 0.65057,-0.30132 0.98455,-0.43368 0.33179,-0.16453 0.69199,-0.27039 1.01602,-0.45881 0.32407,-0.14876 0.63665,-0.31548 0.96507,-0.4527 0.28452,-0.15205 0.57858,-0.27397 0.86398,-0.42011 0.27419,-0.15273 0.581,-0.25516 0.82386,-0.45946 0.27482,-0.20734 0.57713,-0.37753 0.83189,-0.61101 0.28542,-0.24488 0.57979,-0.47178 0.8881,-0.68674 0.26636,-0.22348 0.53898,-0.43997 0.80675,-0.66144 0.27157,-0.20684 0.51031,-0.45783 0.72913,-0.71939 0.25964,-0.23487 0.47579,-0.49658 0.68637,-0.77525 0.20341,-0.30451 0.42446,-0.59599 0.59317,-0.92277 0.17813,-0.34968 0.38972,-0.68085 0.5758,-1.02556 0.15975,-0.31292 0.34833,-0.60875 0.52133,-0.91301 0.16273,-0.30589 0.37224,-0.56503 0.53448,-0.87155 0.17837,-0.27783 0.34678,-0.5612 0.54291,-0.82743 0.15694,-0.22405 0.29674,-0.4632 0.44368,-0.69207 0.1589,-0.17149 0.31523,-0.35624 0.4391,-0.55136 0.19702,-0.23603 0.1439,-0.52302 0.32453,-0.78072 0.21279,-0.31786 0.25829,-0.63705 0.33617,-1.00509 0.16891,-0.3304 0.34611,-0.65978 0.48475,-1.00338 0.16956,-0.28862 0.24841,-0.63684 0.36312,-0.95072 0.13615,-0.27644 0.20036,-0.58627 0.30464,-0.87671 0.0783,-0.27408 0.13948,-0.55383 0.22777,-0.8234 0.0602,-0.28509 0.0959,-0.57335 0.15471,-0.85864 0.0752,-0.2927 0.13319,-0.58386 0.17614,-0.88124 0.036,-0.31201 0.0898,-0.61855 0.13962,-0.92733 0.044,-0.37275 0.0802,-0.74079 0.0482,-1.11725 0.0296,-0.46592 -0.0235,-0.9358 -0.0326,-1.40164 -3.3e-4,-0.45684 -0.0325,-0.91909 -0.11012,-1.36775 -0.0561,-0.52775 0.69031,-0.60702 0.74636,-0.0793 z"
       inkscape:connector-curvature="0"
       inkscape:export-filename="/home/avp/src/projects/guile-ssh/doc/logo.png"
       inkscape:export-xdpi="144.019"
       inkscape:export-ydpi="144.019" />
    <path
       style="fill:#241c1c;fill-opacity:1;fill-rule:nonzero;stroke:none"
       id="path3156"
       d="m 132.4655,502.18383 c -0.11123,0.6546 -0.17454,1.31425 -0.25756,1.97242 -0.10505,0.84056 -0.10314,1.6871 -0.15139,2.53134 0.003,0.93439 9.3e-4,1.86843 1.5e-4,2.80271 -0.005,0.91663 0.0514,1.83212 0.0566,2.74854 0.004,0.81094 0.0382,1.62197 0.0457,2.43301 0.0438,0.73238 0.0759,1.465 0.1187,2.19745 0.0401,0.62618 0.0835,1.25542 0.18518,1.87519 0.0471,0.59481 0.14386,1.18484 0.24338,1.77464 0.1011,0.59404 0.24754,1.17553 0.41634,1.75462 0.22747,0.61339 0.36902,1.25369 0.59236,1.86791 0.19118,0.66933 0.41402,1.33153 0.68086,1.97238 0.30333,0.71378 0.53483,1.44803 0.79575,2.17775 0.26751,0.8065 0.51407,1.62221 0.81912,2.41588 0.25959,0.83817 0.51902,1.68335 0.87902,2.48554 0.29826,0.82327 0.57114,1.66586 0.92997,2.46547 0.32342,0.83361 0.64197,1.67425 0.99991,2.49386 0.35097,0.86393 0.69654,1.72846 1.05478,2.58929 0.27883,0.86738 0.588,1.72918 0.92907,2.57479 0.2971,0.76266 0.56685,1.53588 0.88824,2.28884 0.29077,0.76349 0.68129,1.48129 1.01138,2.22757 0.3033,0.75181 0.6756,1.47319 0.99593,2.21666 0.34621,0.62778 0.718,1.23911 1.07598,1.85947 0.39355,0.66292 0.85353,1.29011 1.24488,1.95483 0.50663,0.71267 1.03747,1.41823 1.47384,2.17661 0.47286,0.78779 1.09018,1.48496 1.55841,2.26933 0.4878,0.72668 1.14019,1.31098 1.69763,1.9782 0.6234,0.60626 1.31802,1.12685 1.96845,1.70226 0.63584,0.49178 1.31349,0.92703 1.94126,1.42682 0.60689,0.41892 1.20843,0.84179 1.82632,1.24429 0.54274,0.38937 1.1052,0.74986 1.65982,1.12168 0.47877,0.32273 0.95427,0.65196 1.44114,0.96248 0.4455,0.34752 0.89781,0.68453 1.35331,1.01784 0.58325,0.41234 1.14381,0.85006 1.74177,1.24128 0.71906,0.49135 1.40842,1.03671 2.17713,1.44661 0.74553,0.47388 1.50162,0.94676 2.29631,1.33194 0.70464,0.38901 1.40345,0.81031 2.14061,1.13234 0.52505,0.28849 1.0522,0.6039 1.61611,0.81227 0.44307,0.21781 0.90138,0.42315 1.37019,0.5898 0.46464,0.22049 0.94979,0.40727 1.44545,0.54722 0.62797,0.22771 1.26679,0.41324 1.91236,0.58825 0.77976,0.27833 1.56896,0.53168 2.36183,0.76889 0.76742,0.25097 1.55792,0.41967 2.34385,0.6006 0.73901,0.13573 1.47308,0.30165 2.2186,0.39834 0.80918,0.14893 1.62425,0.26104 2.44246,0.34841 1.13123,0.11067 2.25919,0.24771 3.37387,0.47198 1.11358,0.21902 1.81197,0.98465 2.52455,1.80068 0.0983,0.0186 0.072,0.15753 -0.0263,0.13896 l 0,0 c -0.94138,0.47164 -1.86186,0.89909 -2.94461,0.72441 -1.08497,-0.14231 -2.16863,-0.29203 -3.25725,-0.40411 -0.85674,-0.11473 -1.71331,-0.22886 -2.56733,-0.36116 -0.77512,-0.15803 -1.56216,-0.25611 -2.3333,-0.43525 -0.85137,-0.16684 -1.68917,-0.38579 -2.53172,-0.59194 -0.80765,-0.21349 -1.61519,-0.428 -2.43021,-0.61273 -0.67899,-0.20954 -1.35827,-0.40317 -2.03773,-0.608 -0.54654,-0.21041 -1.09784,-0.40421 -1.64227,-0.61855 -0.48447,-0.23409 -0.99543,-0.41035 -1.48535,-0.62707 -0.57372,-0.31764 -1.181,-0.57469 -1.76322,-0.87619 -0.69139,-0.43543 -1.43523,-0.794 -2.16387,-1.16519 -0.8109,-0.49304 -1.65643,-0.92886 -2.45662,-1.44413 -0.73736,-0.54618 -1.5512,-0.98047 -2.29518,-1.52128 -0.58464,-0.43982 -1.19621,-0.83745 -1.78034,-1.27813 -0.44549,-0.32423 -0.891,-0.64741 -1.34576,-0.95921 -0.43236,-0.34353 -0.90034,-0.64112 -1.36146,-0.94414 -0.55833,-0.37587 -1.10366,-0.77132 -1.67153,-1.13306 -0.61951,-0.43891 -1.25045,-0.86057 -1.85643,-1.31809 -0.72343,-0.46221 -1.39609,-1.003 -2.05597,-1.55228 -0.79168,-0.58113 -1.52427,-1.25014 -2.20479,-1.95582 -0.75189,-0.67297 -1.35576,-1.49929 -1.95608,-2.30502 -0.62655,-0.72363 -1.09925,-1.58319 -1.64563,-2.37003 -0.53313,-0.71208 -0.98147,-1.49186 -1.43156,-2.25855 -0.45709,-0.66848 -0.84066,-1.39573 -1.23808,-2.09899 -0.39407,-0.68295 -0.74719,-1.38847 -1.0404,-2.12123 -0.3803,-0.73893 -0.69174,-1.51284 -1.04673,-2.26442 -0.34091,-0.76979 -0.62296,-1.56287 -0.96568,-2.33181 -0.31115,-0.80265 -0.64191,-1.59794 -0.89302,-2.4224 -0.25817,-0.87365 -0.54213,-1.74299 -0.86107,-2.59561 -0.2522,-0.88568 -0.52543,-1.76553 -0.82349,-2.63682 -0.26048,-0.87171 -0.55749,-1.73316 -0.80671,-2.60892 -0.20703,-0.85665 -0.50287,-1.69526 -0.76496,-2.53622 -0.19754,-0.86645 -0.46594,-1.71706 -0.72711,-2.56514 -0.19981,-0.81429 -0.46583,-1.61298 -0.74392,-2.40312 -0.23804,-0.74188 -0.50908,-1.46802 -0.69808,-2.22481 -0.16933,-0.68712 -0.38448,-1.36261 -0.601,-2.03869 -0.15385,-0.65606 -0.37642,-1.29592 -0.46408,-1.96718 -0.12213,-0.618 -0.25474,-1.2286 -0.36552,-1.8481 -0.10249,-0.60871 -0.17996,-1.21964 -0.27873,-1.82713 -0.0461,-0.64805 -0.12416,-1.29366 -0.16047,-1.94253 -0.0422,-0.74321 -0.0778,-1.48768 -0.0768,-2.23217 -0.0361,-0.8123 -0.0281,-1.6267 -0.0564,-2.43915 -0.0331,-0.9184 -0.0196,-1.83786 -0.0545,-2.75628 -0.0265,-0.94746 -0.0425,-1.89728 -0.002,-2.8445 -0.004,-0.87441 0.0743,-1.74775 0.15369,-2.61772 0.0602,-0.68051 0.1521,-1.35876 0.25406,-2.03416 0.12401,-0.7533 1.18934,-0.57792 1.06533,0.17538 z"
       inkscape:connector-curvature="0"
       inkscape:export-filename="/home/avp/src/projects/guile-ssh/doc/logo.png"
       inkscape:export-xdpi="144.019"
       inkscape:export-ydpi="144.019" />
    <path
       style="fill:#241c1c;fill-opacity:1;fill-rule:nonzero;stroke:none"
       id="path3160"
       d="m 164.0636,536.21309 c 0.45407,0.57706 0.94928,1.13148 1.46844,1.65267 0.76975,0.82946 1.62619,1.56986 2.4589,2.33423 1.00014,0.91527 1.9913,1.84041 2.97469,2.77364 0.99796,0.88892 1.99849,1.77506 3.03417,2.62001 0.96446,0.78864 1.97517,1.50548 2.97027,2.25506 1.01351,0.73929 2.10534,1.34797 3.19249,1.9688 1.34058,0.7585 2.74951,1.3723 4.14818,2.01199 1.69627,0.79554 3.43683,1.48807 5.15208,2.23851 1.7934,0.70568 3.62149,1.30867 5.41795,2.00345 1.71672,0.60883 3.47082,1.08401 5.22344,1.57499 1.69831,0.47058 3.45083,0.60902 5.18462,0.86994 1.77625,0.19582 3.55793,0.28491 5.34285,0.33981 1.84207,0.0325 3.6844,0.0341 5.52635,0.0837 2.02571,0.0598 4.05418,0.0887 6.07775,0.20669 2.07777,0.057 4.15369,0.18018 6.22965,0.28545 1.86585,0.0738 3.73131,0.15241 5.59778,0.0684 1.65742,-0.0301 3.29949,-0.25331 4.91611,-0.6082 1.75944,-0.36231 3.48,-0.9014 5.15187,-1.55446 1.8843,-0.67654 3.73375,-1.46687 5.54914,-2.31224 1.8881,-0.90477 3.7833,-1.75526 5.78247,-2.38141 1.49145,-0.32792 0.76006,-0.11617 2.19427,-0.63491 0.0837,-0.0547 0.16109,0.0636 0.0774,0.11837 l 0,0 c -1.07261,1.12184 -0.55566,0.53929 -1.54972,1.74865 -1.63682,1.51785 -3.38506,2.5669 -5.40941,3.50098 -1.89171,0.88074 -3.78377,1.75269 -5.7452,2.471 -1.82692,0.59876 -3.64395,1.23314 -5.52797,1.63729 -1.78027,0.33013 -3.57153,0.59671 -5.38586,0.63039 -1.92764,-0.006 -3.85581,-0.0243 -5.77987,-0.16085 -2.07077,-0.10674 -4.14138,-0.22704 -6.20989,-0.36907 -2.01128,-0.0627 -4.02028,-0.19125 -6.0325,-0.22745 -1.85685,-0.0482 -3.71349,-0.12279 -5.56729,-0.23459 -1.84458,-0.11331 -3.69156,-0.23505 -5.52237,-0.49411 -1.82175,-0.21763 -3.61691,-0.66623 -5.39489,-1.10871 -1.82508,-0.45355 -3.60749,-1.06724 -5.358,-1.75076 -1.84317,-0.65356 -3.61711,-1.47744 -5.3866,-2.30817 -1.74625,-0.73401 -3.46367,-1.54179 -5.16536,-2.37392 -1.39071,-0.71477 -2.75758,-1.48228 -4.11261,-2.26111 -1.12338,-0.63939 -2.22805,-1.32609 -3.26653,-2.09562 -1.03062,-0.74123 -1.98253,-1.56417 -2.94199,-2.39327 -1.02934,-0.87827 -2.07384,-1.74127 -3.04333,-2.68679 -1.00008,-0.91184 -1.97782,-1.84786 -2.98163,-2.75569 -0.85103,-0.7782 -1.68465,-1.57373 -2.49389,-2.39546 -0.5048,-0.56393 -1.02019,-1.11913 -1.52076,-1.68528 -0.42568,-0.51252 0.29914,-1.11452 0.72481,-0.602 z"
       inkscape:connector-curvature="0"
       inkscape:export-filename="/home/avp/src/projects/guile-ssh/doc/logo.png"
       inkscape:export-xdpi="144.019"
       inkscape:export-ydpi="144.019" />
    <path
       style="fill:#241c1c;fill-opacity:1;fill-rule:nonzero;stroke:none"
       id="path3162"
       d="m 284.69495,550.62332 c -0.45147,0.50456 -0.98739,0.93443 -1.48647,1.39344 -0.76924,0.65225 -1.52661,1.31694 -2.28874,1.97843 -0.84074,0.7648 -1.66715,1.54988 -2.58353,2.22413 -0.97506,0.71541 -1.93131,1.45819 -2.89681,2.19024 -1.04085,0.79377 -2.08875,1.60137 -3.23407,2.24193 -1.24237,0.79775 -2.46661,1.62085 -3.71881,2.4035 -1.35948,0.96391 -2.80552,1.80139 -4.25955,2.61368 -1.44107,0.81337 -2.88193,1.63221 -4.36336,2.3696 -1.40179,0.75193 -2.7741,1.55654 -4.1772,2.306 -1.43634,0.77759 -2.91194,1.47917 -4.38888,2.17524 -1.52642,0.73539 -3.11765,1.31545 -4.7259,1.84169 -1.63179,0.54643 -3.30434,0.95623 -4.9521,1.44748 -1.77456,0.43633 -3.56555,0.79226 -5.35816,1.14535 -1.96767,0.38072 -3.94594,0.67832 -5.93477,0.92074 -2.25484,0.22687 -4.51671,0.1759 -6.77753,0.16716 -2.76901,-0.0189 -5.50113,-0.36473 -8.23359,-0.77488 -3.19189,-0.78906 -6.48477,-1.53415 -9.42436,-3.06236 -0.70552,-0.36678 -1.36983,-0.80792 -2.05475,-1.21188 -0.72836,-0.32471 -1.45672,-0.64943 -2.18509,-0.97414 -0.0962,-0.0274 -0.0574,-0.16342 0.0388,-0.13601 l 0,0 c 0.79055,0.10821 1.58111,0.21641 2.37167,0.32461 0.79298,0.02 1.58795,4.8e-4 2.37895,0.06 3.18537,0.23978 6.24595,1.30454 9.41354,1.6771 2.57592,0.45114 5.1887,0.67967 7.80029,0.79524 2.12023,0.12968 4.25499,0.16759 6.37517,0.015 1.91163,-0.12741 3.81664,-0.366 5.7035,-0.69857 1.73311,-0.28981 3.46438,-0.6206 5.1615,-1.07798 1.61422,-0.34439 3.1966,-0.82001 4.77205,-1.31066 1.50966,-0.52125 3.00046,-1.09449 4.47299,-1.7131 1.43722,-0.61903 2.83871,-1.30626 4.20568,-2.0701 1.39942,-0.77862 2.81307,-1.53119 4.23258,-2.27218 1.41827,-0.79846 2.88373,-1.5082 4.29802,-2.31619 1.40883,-0.81779 2.80962,-1.65027 4.23378,-2.44036 1.24225,-0.77877 2.50367,-1.52189 3.74665,-2.29929 1.02627,-0.75749 2.14445,-1.38595 3.20525,-2.09168 0.99293,-0.65557 1.99065,-1.29873 2.93687,-2.01807 0.889,-0.68812 1.84912,-1.27767 2.77979,-1.90717 0.80984,-0.57074 1.60977,-1.15329 2.37334,-1.7844 0.55319,-0.42099 1.07932,-0.9014 1.69569,-1.22583 0.77372,-0.59934 1.62132,0.49488 0.84759,1.09422 z"
       inkscape:connector-curvature="0"
       inkscape:export-filename="/home/avp/src/projects/guile-ssh/doc/logo.png"
       inkscape:export-xdpi="144.019"
       inkscape:export-ydpi="144.019" />
    <path
       style="fill:#241c1c;fill-opacity:1;fill-rule:nonzero;stroke:none"
       id="path3166"
       d="m 155.17706,451.22363 c -0.50266,0.84705 -1.15764,1.59318 -1.73072,2.39457 -1.02047,1.36027 -1.93548,2.78984 -2.77705,4.26636 -1.04415,1.78477 -2.0034,3.62082 -2.84482,5.51009 -0.88874,1.94829 -1.63174,3.96711 -2.26463,6.01223 -0.74546,2.3981 -1.45744,4.79044 -2.42224,7.1107 -0.18571,0.45382 -0.37141,0.90764 -0.55712,1.36145 -0.0236,0.0972 -0.16103,0.0638 -0.13742,-0.0334 l 0,0 c 0.0439,-0.4913 0.0878,-0.9826 0.13172,-1.4739 0.29685,-2.58897 0.90542,-4.92531 1.78062,-7.37809 0.77118,-2.04698 1.54506,-4.08962 2.52797,-6.04835 0.95244,-1.8678 1.87408,-3.75073 2.93036,-5.56335 0.89738,-1.48342 1.76793,-2.98696 2.78855,-4.39082 0.60762,-0.7884 1.18628,-1.62512 1.94052,-2.28128 0.36329,-0.44849 0.99755,0.0653 0.63426,0.51377 z"
       inkscape:connector-curvature="0"
       inkscape:export-filename="/home/avp/src/projects/guile-ssh/doc/logo.png"
       inkscape:export-xdpi="144.019"
       inkscape:export-ydpi="144.019" />
    <path
       style="fill:#241c1c;fill-opacity:1;fill-rule:nonzero;stroke:none"
       id="path3168"
       d="m 145.38875,501.61219 c -0.0245,1.03507 -0.0431,2.07187 -0.002,3.10803 -0.0161,1.9511 0.14312,3.90282 0.33234,5.84386 0.29639,2.48908 0.58529,4.98867 1.04568,7.45297 0.47663,2.61418 1.16931,5.17859 1.9186,7.72553 0.78861,2.589 1.77938,5.09963 2.9562,7.53494 1.14152,2.80064 2.73169,5.36255 4.42307,7.856 1.28684,1.95913 2.84963,3.72589 4.07272,5.72764 1.86674,3.05521 -0.0755,0.29036 2.05568,3.18021 0.0616,0.0788 -0.0498,0.16589 -0.1114,0.0871 l 0,0 c -2.53154,-3.05542 0.15936,0.0798 -2.58164,-2.77852 -1.63972,-1.7099 -2.94928,-3.70529 -4.332,-5.61837 -1.68623,-2.57024 -3.24872,-5.2272 -4.46813,-8.05509 -0.94089,-2.56108 -1.88781,-5.12261 -2.68004,-7.73443 -0.78262,-2.56346 -1.45418,-5.15962 -1.96461,-7.79188 -0.46673,-2.49039 -0.98233,-4.9694 -1.20181,-7.5003 -0.19804,-1.97388 -0.37803,-3.94826 -0.40173,-5.93346 0.05,-1.05774 1.16189,-12.60544 1.31521,-13.65408 0.0431,-0.50779 -0.33343,10.04205 -0.37658,10.54982 z"
       inkscape:connector-curvature="0"
       sodipodi:nodetypes="cccccccscccsccccccccc"
       inkscape:export-filename="/home/avp/src/projects/guile-ssh/doc/logo.png"
       inkscape:export-xdpi="144.019"
       inkscape:export-ydpi="144.019" />
    <path
       style="fill:#241c1c;fill-opacity:1;fill-rule:nonzero;stroke:none"
       id="path3172"
       d="m 171.4071,459.41842 c -0.60444,0.67499 -1.15652,1.39326 -1.72999,2.09632 -1.04602,1.38429 -1.97477,2.84777 -2.83205,4.35485 -1.16491,1.98716 -2.19623,4.04199 -3.15287,6.13587 -1.1238,2.38954 -2.00591,4.8837 -2.81924,7.39295 -1.00774,3.03348 -1.46907,6.20836 -2.4534,9.24345 -0.1006,0.57469 -0.20119,1.14938 -0.30179,1.72407 -0.0116,0.0993 -0.15207,0.0829 -0.14046,-0.0164 l 0,0 c 0.0351,-0.58645 0.0702,-1.17291 0.10536,-1.75936 -0.004,-0.58498 -0.0528,-1.17144 -0.0111,-1.75495 0.18901,-2.64644 1.13118,-5.2161 1.80417,-7.75899 0.82268,-2.55417 1.73614,-5.07482 2.84131,-7.52255 0.99356,-2.11534 2.03876,-4.21271 3.25779,-6.20854 0.95031,-1.49175 1.88315,-2.99911 2.97783,-4.39116 0.55161,-0.75045 1.14433,-1.4748 1.77104,-2.1613 0.44248,-0.48322 1.12586,0.14254 0.68338,0.62576 z"
       inkscape:connector-curvature="0"
       inkscape:export-filename="/home/avp/src/projects/guile-ssh/doc/logo.png"
       inkscape:export-xdpi="144.019"
       inkscape:export-ydpi="144.019" />
    <path
       style="fill:#241c1c;fill-opacity:1;fill-rule:nonzero;stroke:none"
       id="path3176"
       d="m 214.58881,431.27427 c 0.70361,0.11699 1.41306,0.16816 2.11319,0.30873 1.07139,0.20264 2.1119,0.52069 3.15804,0.81999 1.26248,0.40848 2.48794,0.91792 3.7375,1.36152 1.24997,0.51015 2.49351,1.03225 3.72372,1.58825 1.1058,0.51837 2.22182,1.02318 3.27457,1.64381 0.98465,0.56809 1.95405,1.18377 2.84721,1.88849 0.93915,0.65648 1.8237,1.38224 2.65665,2.16837 0.87408,0.75005 1.65737,1.5986 2.45006,2.43256 0.86184,0.90922 1.67857,1.85331 2.43975,2.84819 0.96246,1.26158 1.88758,2.56051 2.68414,3.9343 1.06761,1.77921 1.80214,3.70634 2.2812,5.71824 0.26852,1.23096 0.28793,2.49296 0.34283,3.74551 0.0136,0.0991 -0.12654,0.11827 -0.14011,0.0192 l 0,0 c -0.2791,-1.19393 -0.5879,-2.37601 -0.98823,-3.53644 -0.65077,-1.87586 -1.34495,-3.73919 -2.31453,-5.47904 -0.75774,-1.34878 -1.47101,-2.72545 -2.46021,-3.92614 -0.78725,-0.94174 -1.5811,-1.88049 -2.4309,-2.76661 -0.77923,-0.81936 -1.58843,-1.60739 -2.39585,-2.39856 -0.84857,-0.72652 -1.69335,-1.45723 -2.57827,-2.13953 -0.91791,-0.61993 -1.80326,-1.28759 -2.77474,-1.82693 -1.06067,-0.56043 -2.10619,-1.14988 -3.21372,-1.61799 -1.2194,-0.55259 -2.43477,-1.11323 -3.67644,-1.61503 -1.19506,-0.53633 -2.43326,-0.97328 -3.67811,-1.37922 -0.99677,-0.35819 -2.01506,-0.6736 -3.05424,-0.88346 -0.66324,-0.10911 -1.33796,-0.27412 -2.01256,-0.17321 -0.51971,-0.006 -0.51067,-0.74139 0.009,-0.73499 z"
       inkscape:connector-curvature="0"
       inkscape:export-filename="/home/avp/src/projects/guile-ssh/doc/logo.png"
       inkscape:export-xdpi="144.019"
       inkscape:export-ydpi="144.019" />
    <path
       style="fill:#241c1c;fill-opacity:1;fill-rule:nonzero;stroke:none"
       id="path3178"
       d="m 247.87862,440.52028 c 0.50573,0.7827 0.86805,1.64379 1.25335,2.48885 0.57152,1.53389 1.0384,3.1018 1.53947,4.65885 0.56301,1.90174 0.91431,3.85112 1.35279,5.78159 0.39253,1.97003 0.65287,3.96106 0.97965,5.94169 0.27176,1.88155 0.46654,3.76958 0.66889,5.65986 0.17694,1.80286 0.16897,3.61354 0.15046,5.42227 -0.0718,1.89405 -0.2623,3.77585 -0.47282,5.65766 -0.3074,2.3164 -0.83374,4.57601 -1.57794,6.78894 -1.08308,2.65207 -2.16783,5.30374 -3.20794,7.97354 -0.36439,0.88291 -0.85161,2.12107 -1.29689,2.96567 -0.26041,0.49394 -0.59821,0.94458 -0.85621,1.43977 -0.25582,0.49098 -0.45519,1.00937 -0.68279,1.51405 -0.0362,0.0932 -0.16804,0.042 -0.13181,-0.0512 l 0,0 c 0.17299,-0.52589 0.37619,-1.04277 0.51896,-1.57765 0.14387,-0.53898 0.19951,-1.09876 0.33957,-1.63874 0.21548,-0.83071 0.73159,-2.24644 1.01719,-3.0594 0.94448,-2.64678 1.79352,-5.33297 2.19133,-8.12397 0.42016,-2.18253 0.92354,-4.35312 1.22162,-6.55612 0.27623,-1.80629 0.47167,-3.62346 0.59944,-5.44679 0.15467,-1.72896 0.21029,-3.46388 0.19724,-5.19974 -6e-4,-1.85353 -0.1126,-3.70301 -0.34607,-5.54177 -0.20822,-1.96154 -0.55594,-3.91027 -0.93319,-5.84542 -0.32409,-1.8999 -0.79798,-3.77569 -1.34825,-5.62234 -0.41337,-1.50905 -0.90298,-3.00974 -1.57802,-4.42382 -0.32973,-0.80643 -0.72565,-1.58074 -1.10738,-2.36308 -0.59586,-1.06727 0.9135,-1.90994 1.50935,-0.84267 z"
       inkscape:connector-curvature="0"
       inkscape:export-filename="/home/avp/src/projects/guile-ssh/doc/logo.png"
       inkscape:export-xdpi="144.019"
       inkscape:export-ydpi="144.019" />
    <path
       style="fill:#241c1c;fill-opacity:1;fill-rule:nonzero;stroke:none"
       id="path3180"
       d="m 258.37436,451.7446 c 0.57053,0.71198 0.92812,1.58329 1.29374,2.41361 0.72052,1.69278 1.06152,3.50414 1.31968,5.31562 0.16811,1.28708 0.23785,2.62736 -0.0544,3.90631 -1.23458,5.40239 0.20004,-2.48866 -0.75082,3.03783 -0.005,0.0999 -0.1462,0.0929 -0.14124,-0.007 l 0,0 c -0.0378,-0.51731 -0.0151,-1.04262 -0.11324,-1.55195 -0.0946,-0.49105 -0.33168,-0.9446 -0.46081,-1.42773 -0.31733,-1.18733 -0.44709,-2.42265 -0.60503,-3.63744 -0.2644,-1.6612 -0.54917,-3.32157 -1.0355,-4.93533 -0.25789,-0.81481 -0.59659,-1.60312 -0.83747,-2.42011 -0.49059,-0.97942 0.89452,-1.67322 1.38511,-0.69379 z"
       inkscape:connector-curvature="0"
       inkscape:export-filename="/home/avp/src/projects/guile-ssh/doc/logo.png"
       inkscape:export-xdpi="144.019"
       inkscape:export-ydpi="144.019" />
    <path
       style="fill:#241c1c;fill-opacity:1;fill-rule:nonzero;stroke:none"
       id="path3194"
       d="m 164.84485,455.23414 c 0.53717,-0.45344 1.03722,-0.94849 1.60307,-1.36715 0.885,-0.67533 1.78556,-1.32938 2.71771,-1.93806 1.0218,-0.65472 2.07059,-1.27606 3.15757,-1.81882 0.97632,-0.54209 1.9657,-1.06971 2.97812,-1.54163 0.92888,-0.51271 1.84982,-1.03257 2.75087,-1.59263 0.85754,-0.52078 1.70389,-1.05809 2.57417,-1.55832 0.78633,-0.46377 1.59164,-0.89894 2.40081,-1.32411 0.80676,-0.46486 1.65456,-0.86227 2.52488,-1.19261 0.87875,-0.39212 1.80089,-0.671 2.72624,-0.9284 0.92366,-0.23194 1.84772,-0.4826 2.79036,-0.62537 0.889,-0.19639 1.79188,-0.3233 2.69243,-0.4542 0.86909,-0.16648 1.75269,-0.19645 2.62977,-0.28867 0.87665,-0.0597 1.75459,-0.0362 2.63147,0.004 0.99437,0.096 1.99398,0.10799 2.99145,0.15872 1.32812,0.0655 2.64546,0.1838 3.96581,0.33656 1.50299,0.36545 3.21106,0.31738 4.5474,1.19155 0.33373,0.21831 0.61684,0.50559 0.92526,0.75839 0.3467,0.15225 0.6934,0.30449 1.0401,0.45674 0.096,0.0281 0.0562,0.16381 -0.0397,0.13572 l 0,0 c -0.37109,-0.0578 -0.74217,-0.11568 -1.11326,-0.17352 -0.94184,0.16233 -1.24896,0.28905 -2.186,0.18104 -1.16567,-0.13436 -2.29432,-0.59444 -3.47072,-0.68177 -1.29667,-0.26426 -2.59338,-0.5114 -3.87869,-0.82989 -0.94163,-0.2428 -1.87811,-0.54809 -2.84994,-0.63675 -0.83097,-0.0902 -1.66721,-0.12117 -2.50101,-0.0441 -0.86121,0.0337 -1.71434,0.17514 -2.57264,0.25339 -0.88729,0.12874 -1.76737,0.29926 -2.65146,0.44635 -0.90519,0.22096 -1.82927,0.35999 -2.72499,0.62309 -0.89392,0.24861 -1.77881,0.52626 -2.64587,0.85767 -0.82735,0.37145 -1.65705,0.73613 -2.47063,1.13765 -0.8014,0.42122 -1.59659,0.85138 -2.39,1.28519 -0.8662,0.49626 -1.73602,0.98418 -2.58319,1.51196 -0.92764,0.54284 -1.8413,1.11451 -2.81186,1.57844 -0.96957,0.54554 -1.98942,1.00028 -2.97948,1.50762 -1.02922,0.60611 -2.06817,1.19292 -3.0462,1.88014 -0.90368,0.62171 -1.81108,1.23899 -2.67423,1.91688 -0.54248,0.43187 -1.14744,0.77167 -1.68675,1.20785 -0.30609,0.26223 -0.67694,-0.17064 -0.37085,-0.43287 z"
       inkscape:connector-curvature="0"
       inkscape:export-filename="/home/avp/src/projects/guile-ssh/doc/logo.png"
       inkscape:export-xdpi="144.019"
       inkscape:export-ydpi="144.019" />
    <path
       style="fill:#241c1c;fill-opacity:1;fill-rule:nonzero;stroke:none"
       id="path3198"
       d="m 171.08006,485.12814 c 0.009,0.65541 0.026,1.30548 0.0543,1.96167 0.0241,0.90035 0.14233,1.79533 0.23978,2.69003 0.0913,0.80955 0.23028,1.61225 0.32494,2.42123 0.11936,0.72278 0.19119,1.45289 0.31664,2.17467 0.12334,0.61501 0.16867,1.23669 0.26631,1.85619 0.0105,0.50786 0.19423,1.00345 0.19672,1.50404 0.0415,0.40804 0.18005,0.80471 0.2324,1.20811 0.0897,0.39511 0.30366,0.74763 0.41093,1.13534 0.1932,0.4423 0.41613,0.86641 0.59058,1.31544 0.2308,0.43289 0.51812,0.84166 0.70862,1.29215 0.26036,0.44703 0.56484,0.87468 0.80631,1.33075 0.28445,0.42955 0.52538,0.89805 0.7657,1.35701 0.3126,0.43096 0.4917,0.93563 0.73272,1.40554 0.23061,0.4505 0.4372,0.91253 0.65972,1.36768 0.23955,0.3708 0.42914,0.7721 0.66063,1.14979 0.21496,0.34268 0.39148,0.71186 0.63441,1.03439 0.2285,0.37227 0.40834,0.7712 0.64018,1.14135 0.20504,0.38851 0.40328,0.7947 0.67716,1.13991 0.21751,0.38439 0.48638,0.73209 0.78707,1.05457 0.33728,0.3562 0.69565,0.70077 1.07557,1.01341 0.42967,0.4412 0.89447,0.84108 1.39251,1.20374 0.5457,0.43287 1.08732,0.88065 1.65693,1.28263 0.60518,0.50179 1.18996,1.03073 1.82557,1.49551 0.72443,0.48148 1.33842,1.10053 2.02848,1.62657 0.76369,0.63024 1.60172,1.15878 2.41692,1.71726 0.46385,0.63963 0.24976,0.29243 0.63061,1.0487 0.0868,0.0497 0.0165,0.17242 -0.0703,0.12272 l 0,0 c -0.87586,0.0401 -0.45273,0.0693 -1.27037,-0.0726 -0.88961,-0.54362 -1.70428,-1.19321 -2.4944,-1.87218 -0.64301,-0.58513 -1.34213,-1.10791 -1.93809,-1.74369 -0.55727,-0.53989 -1.16246,-1.03059 -1.77416,-1.50507 -0.52285,-0.46278 -1.10944,-0.85538 -1.66137,-1.28259 -0.47592,-0.41202 -0.96889,-0.80071 -1.48071,-1.16609 -0.40507,-0.36643 -0.83384,-0.70492 -1.17937,-1.13207 -0.31424,-0.38063 -0.6277,-0.75863 -0.91779,-1.1583 -0.22161,-0.41598 -0.50119,-0.80143 -0.72403,-1.21792 -0.17743,-0.37976 -0.39499,-0.73822 -0.6148,-1.09443 -0.17604,-0.37426 -0.43614,-0.70559 -0.62564,-1.07558 -0.20713,-0.3936 -0.45195,-0.76554 -0.65006,-1.16193 -0.27008,-0.42177 -0.54863,-0.83692 -0.81835,-1.25848 -0.28654,-0.43835 -0.64207,-0.83325 -0.86888,-1.30993 -0.27956,-0.4183 -0.56443,-0.83496 -0.83376,-1.2567 -0.32059,-0.42559 -0.57809,-0.90539 -0.85662,-1.36008 -0.32861,-0.42067 -0.55557,-0.92061 -0.77142,-1.40778 -0.25966,-0.44108 -0.45806,-0.91396 -0.65499,-1.38654 -0.23205,-0.41221 -0.35294,-0.88899 -0.49576,-1.33709 -0.17343,-0.42946 -0.24706,-0.91382 -0.33604,-1.36656 -0.1581,-0.49864 -0.12777,-1.04622 -0.2333,-1.5616 -0.059,-0.62088 -0.16264,-1.23175 -0.20334,-1.85373 -0.0665,-0.72822 -0.18258,-1.45121 -0.25909,-2.17832 -0.12461,-0.81895 -0.19268,-1.64515 -0.27148,-2.46941 -0.0976,-0.90226 -0.17706,-1.80766 -0.32606,-2.70323 -0.099,-0.67729 -0.21035,-1.34831 -0.27112,-2.02907 -0.0632,-1.322 1.80636,-1.41142 1.86959,-0.0894 z"
       inkscape:connector-curvature="0"
       inkscape:export-filename="/home/avp/src/projects/guile-ssh/doc/logo.png"
       inkscape:export-xdpi="144.019"
       inkscape:export-ydpi="144.019" />
    <path
       style="fill:#241c1c;fill-opacity:1;fill-rule:nonzero;stroke:none"
       id="path3212"
       d="m 189.07658,490.28485 c -0.0449,0.63007 -0.0147,1.25632 0.004,1.887 0.0352,1.05847 0.20805,2.101 0.38341,3.14288 0.47034,1.36377 0.40301,2.81425 0.67904,4.20376 0.0369,0.093 -0.0946,0.14509 -0.13146,0.0521 l 0,0 c -0.56477,-0.90975 -0.25983,-0.46778 -0.91587,-1.32519 -0.52155,-0.81433 -0.7282,-1.76475 -0.9001,-2.70099 -0.21119,-1.0924 -0.36305,-2.19844 -0.44242,-3.3085 -0.0448,-0.67681 -0.0486,-1.35947 -0.003,-2.03554 0.0597,-0.93807 1.38635,-0.85362 1.32663,0.0845 z"
       inkscape:connector-curvature="0"
       inkscape:export-filename="/home/avp/src/projects/guile-ssh/doc/logo.png"
       inkscape:export-xdpi="144.019"
       inkscape:export-ydpi="144.019" />
    <path
       style="fill:#241c1c;fill-opacity:1;fill-rule:nonzero;stroke:none"
       id="path3214"
       d="m 192.6307,468.68104 c 0.45036,-0.17204 0.90354,-0.34572 1.34111,-0.54875 0.59647,-0.23716 1.21365,-0.41603 1.81592,-0.63562 0.61312,-0.20862 1.21199,-0.44387 1.79906,-0.7172 0.6129,-0.28723 1.2341,-0.55353 1.83203,-0.87191 0.60323,-0.29373 1.23016,-0.5276 1.84086,-0.803 0.5798,-0.22177 1.17409,-0.39339 1.76697,-0.57297 0.58465,-0.16334 1.17987,-0.26857 1.77473,-0.38355 0.59901,-0.0902 1.20256,-0.11357 1.80712,-0.13133 0.59535,0.007 1.18814,0.033 1.78077,0.0867 0.59972,0.0362 1.20077,0.0945 1.79653,0.18815 0.71717,0.14671 1.42753,0.32958 2.12408,0.55545 0.91634,0.25854 1.79823,0.6149 2.66671,1.00193 1.01221,0.43162 1.9971,0.93424 2.94621,1.49248 1.04863,0.59437 2.06308,1.26213 2.93045,2.10188 0.50277,0.45466 1.00193,1.03107 1.25861,1.67178 0.26145,1.04104 0.0899,0.54024 0.50968,1.50415 0.0397,0.0585 -0.0431,0.11464 -0.0828,0.0561 l 0,0 c -0.17923,-0.17932 -0.33431,-0.38659 -0.5377,-0.53796 -0.20423,-0.15199 -0.45972,-0.22232 -0.67223,-0.36251 -0.51944,-0.34269 -0.9893,-0.80028 -1.4417,-1.22305 -0.87357,-0.67513 -1.71999,-1.38514 -2.69924,-1.91034 -0.92305,-0.49995 -1.84503,-0.99849 -2.8026,-1.4287 -0.8323,-0.35035 -1.66787,-0.69081 -2.516,-1.0012 -0.64885,-0.20854 -1.2893,-0.44168 -1.9569,-0.58598 -0.53976,-0.13967 -1.07862,-0.26771 -1.63109,-0.33302 -0.55129,-0.0502 -1.1036,-0.10655 -1.65801,-0.0916 -0.55319,-0.003 -1.10859,0.0247 -1.65671,0.0997 -0.55813,0.0505 -1.11579,0.14433 -1.65933,0.28037 -0.56761,0.13062 -1.12684,0.3074 -1.67282,0.51033 -0.61708,0.19011 -1.20597,0.46597 -1.79461,0.7291 -0.64211,0.25239 -1.25471,0.56899 -1.90279,0.8073 -0.62731,0.22812 -1.24732,0.46998 -1.88545,0.66688 -0.5955,0.17699 -1.18494,0.38925 -1.75855,0.62652 -0.46376,0.16286 -0.90773,0.38033 -1.36238,0.56746 -0.57106,0.21209 -0.871,-0.59551 -0.29995,-0.8076 z"
       inkscape:connector-curvature="0"
       inkscape:export-filename="/home/avp/src/projects/guile-ssh/doc/logo.png"
       inkscape:export-xdpi="144.019"
       inkscape:export-ydpi="144.019" />
  </g>
  <g
     inkscape:groupmode="layer"
     id="layer9"
     inkscape:label="bubbles-color"
     style="display:inline">
    <path
       style="fill:#b3defd;fill-opacity:1;fill-rule:nonzero;stroke:none;display:inline"
       d="m 294.80643,433.3909 c 2.77586,5.70363 0.48405,1.23712 -0.71339,-1.34903 3.4113,-1.57551 0.87607,0.38112 0.22852,1.23602 -7.77055,9.25781 -5.63384,5.19112 -6.00737,-2.88396 0.40063,-1.52135 5.81601,-2.41916 6.90253,-3.33116 1.39266,-0.94624 3.03077,-0.37899 4.47423,0.16072 1.51936,0.82449 3.05078,2.01246 3.45124,3.78502 0.73802,1.5084 -0.52045,2.83983 -0.86636,4.22967 -0.69192,1.61135 -0.22467,3.36506 -0.61886,5.0054 -0.75022,1.98927 -2.39847,3.483 -3.98303,4.82791 -2.41578,1.74161 -5.39867,2.80242 -8.40278,2.52605 -2.88303,-0.10099 -5.94986,-0.19432 -8.52785,-1.63328 -1.77496,-1.12558 -3.28498,-2.68848 -4.42419,-4.44602 -0.6702,-1.31466 -1.15994,-2.72541 -1.65088,-4.10758 -0.5968,-2.92426 -1.45461,-6.13261 -0.0772,-8.97341 1.00402,-1.73007 2.89693,-3.13431 4.98,-2.88637 2.09847,-2.04758 6.76371,-2.05354 7.96112,-1.37359 3.76783,1.74753 3.43718,5.97451 6.76825,8.46667 0.23311,0.19218 0.45979,0.43489 0.50602,0.74694 z"
       id="path3495"
       inkscape:connector-curvature="0"
       sodipodi:nodetypes="ccccccccccccccccccc"
       inkscape:export-filename="/home/avp/src/projects/guile-ssh/doc/logo.png"
       inkscape:export-xdpi="144.019"
       inkscape:export-ydpi="144.019" />
    <path
       style="fill:#b3defd;fill-opacity:1;fill-rule:nonzero;stroke:none;display:inline"
       d="m 269.63717,380.42262 c -0.47046,7.35113 -0.47738,17.94326 -5.44573,-10.4094 1.22945,-2.96157 2.77584,-5.91896 5.06233,-8.19808 3.11082,-2.82734 7.6636,-1.89765 11.18741,-0.47952 2.46251,0.93872 5.11182,1.71803 6.92316,3.76432 1.46784,1.58311 2.98232,3.20597 4.14195,5.00984 1.39428,2.6862 3.01151,5.61944 2.20681,8.75155 -0.86445,2.29519 -1.10542,4.58475 -0.71463,6.96185 -0.45185,2.57445 0.20854,5.25714 -0.83699,7.73624 -1.46311,4.7245 -5.02649,8.43403 -8.7179,11.5623 -4.24153,2.01464 -8.89757,3.63384 -13.66102,3.0346 -4.92098,-0.41694 -9.62978,-2.6486 -13.2678,-5.96106 -2.59457,-1.98849 -3.78681,-5.16385 -5.34145,-7.92837 -2.15036,-4.43576 -3.19307,-9.95844 -0.64789,-14.4619 0.92523,-2.28682 2.20481,-4.39441 3.97554,-6.12217 1.75363,-1.77906 3.07485,-3.92115 4.69732,-5.79219 2.1653,-2.24672 5.94566,-1.61602 7.42062,1.04975 1.40103,2.8303 2.11209,5.96551 2.87443,9.01784 0.0624,0.78276 0.42969,1.72433 0.14382,2.4644 z"
       id="path3491"
       inkscape:connector-curvature="0"
       sodipodi:nodetypes="cccccccccccccccccccc"
       inkscape:export-filename="/home/avp/src/projects/guile-ssh/doc/logo.png"
       inkscape:export-xdpi="144.019"
       inkscape:export-ydpi="144.019" />
    <path
       style="fill:#b3defd;fill-opacity:1;fill-rule:nonzero;stroke:none;display:inline"
       d="m 288.71316,304.15946 c 4.32793,-5.29259 9.02078,-10.97766 15.79209,-13.12346 2.70692,-1.16803 5.8861,-2.06466 8.61978,-0.44137 3.14303,0.65333 4.97338,3.32811 7.02139,5.51943 2.51228,2.65461 4.54946,5.71254 7.05731,8.37348 1.88234,3.18137 4.62897,5.96323 5.24434,9.74843 1.23612,3.71959 2.01591,7.67067 1.27051,11.56107 0.22325,3.82765 -1.34019,7.51404 -2.93421,10.92113 -1.92521,4.13307 -4.10343,8.28391 -7.79237,11.12612 -2.93075,2.71272 -6.00551,5.63414 -10.10836,6.3156 -3.70926,1.34135 -7.66218,1.24747 -11.54377,1.39263 -3.66737,-0.17151 -7.33438,-0.34004 -10.94048,-0.95894 -3.35526,-0.46252 -6.61815,-1.5203 -9.59445,-3.17787 -2.77978,-1.49152 -5.45541,-3.21901 -8.09619,-4.94069 -4.60786,-4.34324 -7.93571,-10.07419 -9.49368,-16.19489 -0.61361,-3.70889 -0.56756,-7.59471 1.08891,-11.04785 1.75986,-7.0375 7.56986,-11.7513 12.40256,-16.71438 3.6007,-2.08364 7.29708,-4.706 11.67258,-4.38447 3.5391,-0.79033 5.51066,2.52129 6.97887,5.09717 10.69599,32.83236 -1.32732,43.48961 -6.64483,0.92886 z"
       id="path3493"
       inkscape:connector-curvature="0"
       sodipodi:nodetypes="cccccccccccccccccccc"
       inkscape:export-filename="/home/avp/src/projects/guile-ssh/doc/logo.png"
       inkscape:export-xdpi="144.019"
       inkscape:export-ydpi="144.019" />
  </g>
  <g
     inkscape:groupmode="layer"
     id="layer8"
     inkscape:label="bubbles"
     style="display:inline">
    <g
       style="display:inline;fill:#336699"
       id="g4005"
       inkscape:export-filename="/home/avp/src/projects/guile-ssh/doc/logo.png"
       inkscape:export-xdpi="144.019"
       inkscape:export-ydpi="144.019">
      <g
         style="fill:#336699"
         transform="translate(-142.39668,8.6144308)"
         id="g3083">
        <path
           style="fill:#336699;fill-opacity:1;fill-rule:nonzero;stroke:none"
           d="m 423.74756,333.49181 c 2.78263,5.88848 8.71393,9.76531 14.39321,12.49889 5.4358,1.22972 12.5178,-0.90458 21.97769,-4.84698 5.23165,-3.63296 9.85169,-9.82857 11.49995,-16.27242 3.00348,-8.54205 1.7298,-19.11779 -5.37848,-24.59515 -9.83501,-9.0438 -29.59079,-13.14021 -40.88852,-5.10515 -6.56352,3.46382 -13.90579,13.33415 -11.87997,21.56498 0.60625,5.36205 1.41808,11.73458 7.41218,14.18512 5.97133,0.81819 0.84755,8.54328 -1.74804,4.83849 -6.88635,-1.01819 -8.45763,-10.37464 -8.66962,-16.44871 -0.41645,-7.29701 -1.25036,-15.99723 5.2512,-21.05132 8.31035,-7.13577 18.90065,-13.23785 30.28242,-11.33611 11.83228,1.13251 23.16031,8.31722 28.78324,18.81465 5.55471,12.10197 1.42188,27.95062 -9.93124,35.16316 -7.45749,5.93929 -17.10145,10.59618 -26.84504,9.51916 -6.37516,-2.32676 -11.93997,-6.94296 -16.12131,-12.25083 -2.7377,-2.15128 -1.94241,-9.43661 1.86233,-4.67778 z"
           id="path3054"
           inkscape:connector-curvature="0"
           sodipodi:nodetypes="ccccccccccccccccc" />
        <path
           style="fill:#336699;fill-opacity:1;fill-rule:nonzero;stroke:none"
           d="m 434.1788,303.48949 c 6.9235,-4.58372 16.2538,1.9732 16.7029,9.62681 -0.61177,5.73505 3.12611,11.43411 4.3134,15.68746 -6.58479,0.0274 -6.1452,-11.34261 -7.16306,-16.63388 -0.79358,-7.11998 -9.02719,-9.39267 -14.22277,-7.68072 l -0.0144,-0.55282 0.38389,-0.44685 0,0 z"
           id="path3064"
           inkscape:connector-curvature="0" />
        <path
           style="fill:#336699;fill-opacity:1;fill-rule:nonzero;stroke:none"
           d="m 449.4162,315.36766 c -5.31204,4.57087 -13.1107,8.40301 -13.70884,16.15668 -6.83967,-0.23966 0.85474,-10.4698 4.41877,-12.55683 1.84734,-1.01327 10.90865,-10.24921 9.29007,-3.59985 z"
           id="path3068"
           inkscape:connector-curvature="0" />
      </g>
      <path
         inkscape:connector-curvature="0"
         d="m 322.88714,314.90973 c 0.38304,0.61008 0.72688,1.24359 1.00611,1.90808 0.445,0.95178 0.75723,1.96458 1.00346,2.98515 0.29722,1.14092 0.40943,2.31228 0.50491,3.48349 0.0846,1.1491 0.0487,2.29687 -0.005,3.44585 -0.0807,1.10118 -0.18995,2.20169 -0.39148,3.28788 -0.15548,1.00263 -0.43246,1.97515 -0.70504,2.94942 -0.28564,0.84696 -0.59191,1.68191 -0.85456,2.53725 -0.26191,0.54354 -0.56042,1.05592 -0.79252,1.61545 -0.0383,0.0924 -0.16894,0.0382 -0.13062,-0.0542 l 0,0 c 0.23152,-0.55804 0.36071,-1.11682 0.46117,-1.71134 0.28826,-0.84034 0.51164,-1.69154 0.71854,-2.55491 0.26784,-0.95234 0.49246,-1.91779 0.68056,-2.88924 0.17061,-1.0674 0.36623,-2.13352 0.42652,-3.21501 0.0804,-1.12112 0.0997,-2.25008 0.0343,-3.37231 -0.0655,-1.14021 -0.19494,-2.27964 -0.45044,-3.39415 -0.26476,-0.98639 -0.56761,-1.95781 -0.97843,-2.89378 -0.30896,-0.61775 -0.59095,-1.25072 -1.00052,-1.81126 -0.22371,-0.33442 0.24923,-0.6508 0.47294,-0.31638 z"
         id="path3282"
         style="fill:#336699;fill-opacity:1;fill-rule:nonzero;stroke:none" />
    </g>
    <g
       style="display:inline;fill:#336699"
       id="g4012"
       inkscape:export-filename="/home/avp/src/projects/guile-ssh/doc/logo.png"
       inkscape:export-xdpi="144.019"
       inkscape:export-ydpi="144.019">
      <g
         style="fill:#336699"
         transform="translate(-131.285,4.0687444)"
         id="g3088">
        <path
           style="fill:#336699;fill-opacity:1;fill-rule:nonzero;stroke:none"
           d="m 383.25492,390.16956 c 1.82008,6.1701 7.44207,14.68134 14.81234,13.70202 6.74632,0.13539 12.92298,-4.74498 16.68447,-9.98692 4.42014,-5.44535 8.33123,-14.79805 3.48582,-21.00411 -4.76738,-8.13909 -19.59322,-9.8133 -26.55712,-4.876 -4.53167,4.0138 -12.28051,8.75215 -9.9277,16.02417 2.92882,2.537 1.30578,11.16557 -1.69755,6.48482 -3.4751,-5.90139 -2.42195,-14.19068 3.65978,-17.93195 6.793,-7.19923 17.23118,-12.45646 27.16369,-8.95089 8.54028,2.79578 14.12492,13.17493 10.7345,21.73024 -2.70713,8.2405 -8.83953,15.64655 -16.63296,19.50175 -6.74965,2.23586 -15.69279,2.43083 -20.05446,-4.26224 -2.43805,-2.07549 -7.55219,-14.12323 -1.67081,-10.43099 z"
           id="path3052"
           inkscape:connector-curvature="0"
           sodipodi:nodetypes="cccccccccccccc" />
        <path
           style="fill:#336699;fill-opacity:1;fill-rule:nonzero;stroke:none"
           d="m 395.18379,373.27851 c 6.57073,-3.00047 12.37478,4.34119 10.71367,10.51063 -1.61672,2.45117 3.70172,10.73629 -1.28838,7.54675 -3.59225,-5.05014 2.50503,-14.61301 -5.68196,-16.65895 -1.11296,-0.34379 -6.13251,1.3364 -3.74333,-1.39843 z"
           id="path3060"
           inkscape:connector-curvature="0" />
        <path
           style="fill:#336699;fill-opacity:1;fill-rule:nonzero;stroke:none"
           d="m 404.24491,382.47233 c -7.03334,0.60331 -5.77032,10.37967 -9.64284,10.5014 -0.70302,-5.8585 3.89003,-11.58142 9.57536,-12.65999 1.0657,0.29193 1.11785,1.82365 0.0675,2.15859 z"
           id="path3062"
           inkscape:connector-curvature="0" />
      </g>
      <path
         inkscape:connector-curvature="0"
         d="m 286.79739,386.01243 c -0.0577,0.75539 -0.27058,1.49222 -0.43675,2.22955 -0.28595,1.15857 -0.67921,2.28693 -1.15668,3.37961 -0.64492,1.24702 -1.23003,2.52726 -2.05323,3.6686 -0.15528,0.19345 -0.31056,0.38689 -0.46584,0.58034 -0.0546,0.0838 -0.17308,0.007 -0.1185,-0.0772 l 0,0 c 0.11266,-0.21796 0.22532,-0.43592 0.33798,-0.65388 0.62485,-1.22423 1.37739,-2.39314 1.72961,-3.73832 0.37064,-1.10015 0.75267,-2.19583 1.01538,-3.32835 0.17968,-0.71651 0.28693,-1.44634 0.44856,-2.16561 0.0744,-0.4946 0.77388,-0.38935 0.69947,0.10524 z"
         id="path3284"
         style="fill:#336699;fill-opacity:1;fill-rule:nonzero;stroke:none" />
    </g>
    <g
       style="display:inline;fill:#336699"
       id="g4037"
       inkscape:export-filename="/home/avp/src/projects/guile-ssh/doc/logo.png"
       inkscape:export-xdpi="144.019"
       inkscape:export-ydpi="144.019">
      <g
         style="fill:#336699;display:inline"
         transform="translate(-126.23424,7.099202)"
         id="g3093">
        <path
           style="fill:#336699;fill-opacity:1;fill-rule:nonzero;stroke:none"
           d="m 410.44524,433.98364 c 2.59791,6.05099 14.05473,9.06371 15.42335,-0.46451 3.68856,-9.19388 -8.20367,-16.14805 -14.81453,-10.98889 -6.74085,2.78797 -2.90469,10.33006 -0.73202,13.18003 -3.05946,4.24558 -5.68903,-3.62424 -5.65877,-6.55555 -0.0613,-7.17032 8.54661,-11.73158 14.90994,-10.16549 6.25205,0.89061 9.7667,8.39537 8.60265,14.14414 -1.49863,6.48077 -7.87621,11.39749 -14.43676,8.19682 -3.45553,0.31683 -9.85522,-10.69669 -3.29386,-7.34655 z"
           id="path3050"
           inkscape:connector-curvature="0"
           sodipodi:nodetypes="ccccccccc" />
        <path
           style="fill:#336699;fill-opacity:1;fill-rule:nonzero;stroke:none"
           d="m 414.23794,424.63053 c 6.48366,-1.40056 3.41434,6.56559 5.71211,9.11078 1.76225,3.8477 -2.54885,1.35036 -2.81162,-2.50082 1.13095,-3.50133 -0.98003,-5.19831 -3.76567,-5.75832 l 0.20854,-0.57722 0.65685,-0.27442 z"
           id="path3056"
           inkscape:connector-curvature="0"
           sodipodi:nodetypes="ccccccc" />
        <path
           style="fill:#336699;fill-opacity:1;fill-rule:nonzero;stroke:none"
           d="m 418.2294,430.32131 c -4.57835,-1.03801 -5.05271,8.45036 -5.39983,2.79602 -0.14785,-1.84582 6.99992,-7.50126 5.39983,-2.79602 z"
           id="path3058"
           inkscape:connector-curvature="0"
           sodipodi:nodetypes="ccc" />
      </g>
      <path
         inkscape:connector-curvature="0"
         d="m 297.7751,434.61602 c 0.20453,0.72052 0.35391,1.44798 0.45391,2.18974 0.15251,0.91507 0.0226,1.83275 -0.0155,2.75175 -0.004,0.0999 -0.14544,0.0941 -0.1413,-0.006 l 0,0 c 0.0379,-0.91057 -0.0923,-1.79464 -0.18502,-2.6991 -0.10045,-0.72253 -0.19093,-1.45223 -0.3934,-2.15457 -0.058,-0.19889 0.22331,-0.28085 0.28127,-0.082 z"
         id="path3292"
         style="fill:#336699;fill-opacity:1;fill-rule:nonzero;stroke:none;display:inline" />
    </g>
  </g>
  <g
     inkscape:groupmode="layer"
     id="layer6"
     inkscape:label="text"
     style="display:inline">
    <path
       style="fill:#241c1c;fill-opacity:1;fill-rule:nonzero;stroke:none"
       d="m 327.71076,538.23734 c -1.362,10.04532 -1.31513,20.29392 0.0784,30.33307 0.47785,2.45322 1.22061,5.7437 4.08919,6.32037 3.95083,0.7985 7.06497,-2.37269 9.38306,-5.1107 4.49012,-5.46112 8.20947,-11.529 11.54782,-17.74918 2.47279,-4.56881 3.62079,-9.79936 3.71756,-14.97038 -0.3552,-1.01005 1.48994,1.74683 2.46525,0.5904 -1.34105,1.87232 -2.29852,4.05168 -2.21326,6.40007 -0.24243,4.88469 0.28554,9.77021 0.761,14.62453 0.58039,4.15121 1.07434,8.61522 3.67598,12.06663 1.55723,1.96492 4.30892,1.23079 6.19242,0.21314 1.96057,-1.85648 4.93538,1.3774 2.73957,3.05612 -3.03007,1.9153 -7.32054,3.02719 -10.43528,0.71074 -3.42542,-2.42543 -4.53601,-6.78378 -5.44956,-10.65099 -1.0163,-5.69772 -1.42196,-11.48895 -1.60141,-17.26662 0.001,-3.44876 0.10707,-7.11783 2.1331,-10.06794 0.82177,-1.87591 3.24298,-4.09309 5.06625,-2.0549 1.28462,1.76659 0.55828,4.1843 0.46799,6.21819 -0.57584,5.21675 -2.21951,10.29364 -4.90116,14.8114 -3.51999,6.17896 -7.23108,12.33603 -11.97286,17.66657 -2.61519,2.9692 -6.05816,5.69883 -10.22421,5.64273 -3.80724,0.27972 -7.36551,-2.44549 -8.42759,-6.0505 -1.63315,-4.66724 -1.64961,-9.7017 -2.00229,-14.58335 -0.22812,-7.09222 -0.14224,-14.25036 1.03959,-21.26016 0.79634,-2.35869 4.4159,-1.33475 3.87046,1.11076 z"
       id="path3884"
       inkscape:connector-curvature="0"
       inkscape:export-filename="/home/avp/src/projects/guile-ssh/doc/logo.png"
       inkscape:export-xdpi="144.019"
       inkscape:export-ydpi="144.019" />
    <path
       style="fill:#241c1c;fill-opacity:1;fill-rule:nonzero;stroke:none"
       d="m 371.05659,569.00744 c 6.64046,-7.13375 11.80288,-15.9125 13.85293,-25.49139 0.54451,-2.51539 -1.37775,-7.61734 2.95952,-4.48198 0.24998,2.26708 -1.94045,7.47289 -0.7988,11.03072 0.68378,6.55588 1.28169,13.78141 5.6538,19.05587 2.76035,2.94135 7.1004,1.24788 9.50134,-1.24296 7.83088,-7.52804 13.09839,-17.32847 17.53861,-27.13243 3.20763,-8.14947 6.45895,-16.88207 5.42437,-25.78802 -0.26557,-3.42806 -4.09255,-6.84576 -4.60676,-1.63146 -2.56147,8.92535 -1.31898,18.35536 -0.71724,27.47461 0.8429,7.76656 1.28578,15.79786 4.28198,23.08955 2.26551,4.0884 7.77584,3.72388 11.77452,3.52932 6.90471,-1.14581 12.4102,-6.12204 17.42412,-10.67293 4.6084,-4.04671 8.72159,-10.25563 6.59185,-16.62164 -1.25269,-4.78791 -8.64288,-6.53627 -10.67374,-1.36425 -3.75511,5.44332 -3.771,12.53001 -3.26517,18.86961 1.06106,6.27714 5.67734,12.38744 12.06257,13.79683 6.00543,0.51535 10.7575,-3.88613 15.51538,-6.80266 5.99228,1.28575 -1.3503,6.22972 -3.94692,7.4198 -5.20048,3.4487 -12.66695,5.14453 -17.99046,1.0028 -7.67157,-4.70847 -10.94986,-14.25844 -9.8167,-22.91745 0.28197,-6.82797 2.5961,-14.56893 8.89596,-18.12697 5.72952,-2.07571 12.45367,2.34625 13.46621,8.26392 1.78493,7.7895 -2.97773,15.08728 -8.63421,19.96036 -6.18924,5.58005 -13.49466,11.64961 -22.32374,11.37605 -4.98316,0.0482 -10.79939,-1.33809 -12.94777,-6.39017 -3.85105,-10.40675 -4.17878,-21.68703 -5.06779,-32.64469 -0.21768,-7.9289 -0.90253,-16.47717 2.9876,-23.69355 2.63705,-4.98278 9.02201,-1.61109 10.1566,2.69206 2.62581,7.72081 0.11889,16.02621 -2.14693,23.5199 -4.2217,12.30174 -10.55805,24.03601 -19.19556,33.80128 -3.45764,3.66027 -8.63127,7.42367 -13.87135,5.18601 -5.97438,-2.57148 -7.82532,-9.62214 -9.02185,-15.42695 -0.95647,-6.06704 -2.05841,-12.46632 -0.46816,-18.50759 0.21786,-4.25695 7.19064,-3.79786 5.43719,0.86707 -0.21829,8.59807 -4.70462,16.38691 -9.14927,23.49683 -2.78289,3.21607 -5.35174,7.21892 -9.14982,9.15834 -4.52488,0.27944 -2.13026,-3.76613 0.26769,-4.65384 z"
       id="path3890"
       inkscape:connector-curvature="0"
       inkscape:export-filename="/home/avp/src/projects/guile-ssh/doc/logo.png"
       inkscape:export-xdpi="144.019"
       inkscape:export-ydpi="144.019" />
    <path
       style="fill:#241c1c;fill-opacity:1;fill-rule:nonzero;stroke:none"
       id="path3892"
       d="m 388.84791,527.25399 c -2.36166,-1.05461 -4.11727,-2.67384 -5.36168,-4.91968 -1.35565,-2.99722 -0.84767,-5.99776 0.28467,-8.95729 1.31152,-2.34044 0.56373,-1.20699 2.25847,-3.39035 1.77594,-2.23814 4.94116,0.27343 3.16521,2.51157 l 0,0 c -1.24675,1.52377 -0.69529,0.73214 -1.6668,2.36618 -0.75298,1.81153 -1.21798,3.679 -0.46914,5.58193 0.72094,1.50219 1.96186,2.42744 3.45954,3.12841 2.60161,1.18106 0.93134,4.86029 -1.67027,3.67923 z"
       inkscape:connector-curvature="0"
       inkscape:export-filename="/home/avp/src/projects/guile-ssh/doc/logo.png"
       inkscape:export-xdpi="144.019"
       inkscape:export-ydpi="144.019" />
    <path
       style="fill:#241c1c;fill-opacity:1;fill-rule:nonzero;stroke:none"
       id="path3894"
       d="m 485.32585,546.80164 c 3.23096,-0.79424 6.45629,-1.61091 9.69553,-2.37087 3.43197,-0.86752 6.91995,-1.381 10.45679,-1.4458 0.41634,-0.005 0.83268,-0.0109 1.24902,-0.0164 2.85689,-0.0376 2.91,4.00271 0.0531,4.04026 l 0,0 c -0.41131,0.005 -0.82263,0.0108 -1.23394,0.0162 -3.24956,0.0494 -6.44973,0.54587 -9.60231,1.33962 -3.22495,0.75616 -6.4357,1.57026 -9.65241,2.36051 -2.77433,0.68291 -3.74011,-3.24058 -0.96578,-3.92349 z"
       inkscape:connector-curvature="0"
       inkscape:export-filename="/home/avp/src/projects/guile-ssh/doc/logo.png"
       inkscape:export-xdpi="144.019"
       inkscape:export-ydpi="144.019" />
    <path
       style="fill:#241c1c;fill-opacity:1;fill-rule:nonzero;stroke:none"
       d="m 536.61116,508.8895 c -1.03106,-5.85934 -9.33463,-9.51149 -13.56314,-4.59059 -4.16594,4.63506 -6.80702,12.48193 -2.24957,17.78228 7.05269,10.6334 22.01749,11.00845 29.57979,21.06889 4.70433,6.60097 0.20235,15.24755 -5.05994,20.0079 -8.02362,7.12024 -19.84539,11.0949 -30.3608,7.78005 -6.69501,-0.0933 -2.85116,-9.96885 1.46494,-5.69806 0.76212,2.22873 -1.8868,3.81969 -1.92593,1.01823 7.78779,3.94598 17.19066,1.08891 24.29419,-3.10921 5.08226,-3.34436 10.39307,-9.0403 9.3179,-15.59138 -2.43667,-5.9604 -9.20529,-8.30058 -14.4872,-11.12638 -8.20272,-3.60455 -16.80418,-9.21719 -19.06769,-18.4356 -0.91816,-7.38093 2.73192,-15.86547 9.57558,-19.24678 7.0226,-2.99944 15.87816,2.72909 16.46011,10.2188 -0.36606,2.17836 -3.67568,2.13416 -3.97824,-0.0781 z"
       id="path3924"
       inkscape:connector-curvature="0"
       inkscape:export-filename="/home/avp/src/projects/guile-ssh/doc/logo.png"
       inkscape:export-xdpi="144.019"
       inkscape:export-ydpi="144.019" />
    <path
       style="fill:#241c1c;fill-opacity:1;fill-rule:nonzero;stroke:none"
       d="m 581.12411,513.15773 c 0.89491,-5.24033 -3.04736,-10.9288 -8.65866,-10.44184 -8.88275,2.73977 -13.24634,15.56276 -6.47848,22.56811 7.58028,8.84152 20.32792,9.68999 28.83466,17.17936 4.87243,4.15112 5.67254,11.74013 1.77426,16.81305 -4.22765,7.43411 -12.65808,10.82047 -20.14942,13.9826 -5.6492,1.88396 -15.11796,3.17575 -17.21168,-4.21589 0.83592,-6.81713 11.02203,2.8978 4.01866,3.2688 -4.03323,-1.76949 -0.64615,-1.52652 -0.0373,-3.97349 4.42832,5.13487 12.68653,0.79559 17.8334,-1.47538 5.43683,-2.61365 10.92794,-6.01855 13.29731,-11.87463 2.80382,-5.74648 -2.74912,-11.07987 -7.6275,-13.19122 -9.69665,-4.52811 -21.43415,-7.97095 -26.63637,-18.24351 -4.43651,-9.51731 1.72349,-22.39086 11.91045,-24.82532 6.64611,-0.74324 13.42158,5.17759 13.09458,12.0189 1.33382,3.3547 -2.71654,7.13405 -3.96387,2.41046 z"
       id="path3928"
       inkscape:connector-curvature="0"
       inkscape:export-filename="/home/avp/src/projects/guile-ssh/doc/logo.png"
       inkscape:export-xdpi="144.019"
       inkscape:export-ydpi="144.019" />
    <g
       id="g3948"
       transform="translate(-131.66816,7.2881032)"
       inkscape:export-filename="/home/avp/src/projects/guile-ssh/doc/logo.png"
       inkscape:export-xdpi="144.019"
       inkscape:export-ydpi="144.019">
      <path
         style="fill:#241c1c;fill-opacity:1;fill-rule:nonzero;stroke:none"
         d="m 741.78509,491.31264 c -0.95754,16.93815 1.97532,33.73774 3.10565,50.58182 0.10876,8.50715 0.31671,17.02235 0.57659,25.51445 -0.0522,7.62933 -8.97852,-0.71616 -2.59039,-1.77308 2.89348,2.09464 1.41284,1.35165 -0.91422,1.31587 -1.1834,-1.67592 -0.63374,-9.78471 -0.93205,-13.94767 0.31738,-10.96922 -1.11233,-21.84207 -2.22986,-32.72441 -0.77637,-10.00378 -1.8622,-20.13871 -0.81834,-30.13819 0.95205,-1.99329 4.12167,-1.03866 3.80262,1.17121 z"
         id="path3930"
         inkscape:connector-curvature="0" />
      <path
         style="fill:#241c1c;fill-opacity:1;fill-rule:nonzero;stroke:none"
         d="m 744.88219,526.34174 c 3.63321,2.73956 9.07014,5.63909 13.14175,1.982 5.84332,-4.67663 8.39739,-11.97571 12.11309,-18.19957 6.73002,-1.18943 0.34848,7.57256 -1.01745,10.35877 -3.52645,6.38064 -8.94642,14.48282 -17.28848,13.52277 -3.8625,0.37821 -14.99039,-7.19765 -6.94891,-7.66397 l 0,0 z"
         id="path3932"
         inkscape:connector-curvature="0" />
      <path
         style="fill:#241c1c;fill-opacity:1;fill-rule:nonzero;stroke:none"
         d="m 775.5386,493.54914 c -2.27026,9.03026 -0.43684,18.43364 0.0425,27.58418 1.38176,13.23722 1.20795,26.57634 2.35947,39.8209 2.03339,4.58855 -6.94883,0.22612 -0.82409,0.0245 5.01918,2.62811 -3.7721,7.05267 -3.08025,1.24818 -1.33897,-12.91874 -0.97664,-25.96187 -2.32591,-38.89057 -0.5605,-10.16351 -2.57489,-20.58115 -0.13237,-30.62727 0.33001,-3.35444 5.28754,-2.3211 3.96066,0.84012 z"
         id="path3938"
         inkscape:connector-curvature="0" />
    </g>
    <path
       style="fill:#241c1c;fill-opacity:1;fill-rule:nonzero;stroke:none"
       id="path3942"
       d="m 313.65214,539.15381 c 1.54515,0.20429 3.10124,0.35304 4.65335,0.16161 0.98841,-0.13862 1.91622,-0.49702 2.81502,-0.91537 0.83928,-0.43004 1.70857,-0.79432 2.57528,-1.16407 0.50712,-0.20498 0.99698,-0.44695 1.47922,-0.70411 0.0426,-0.0298 0.0852,-0.0596 0.12785,-0.0894 2.40699,-1.53936 4.58399,1.86464 2.17699,3.40401 l 0,0 c -0.13542,0.0841 -0.27084,0.16812 -0.40626,0.25218 -0.58476,0.31079 -1.17875,0.60359 -1.79233,0.85389 -0.83055,0.35431 -1.66356,0.70277 -2.46727,1.11611 -1.29316,0.59322 -2.63359,1.08054 -4.05368,1.2617 -1.87879,0.20041 -3.75651,0.10113 -5.62604,-0.16925 -2.83358,-0.36619 -2.31571,-4.37347 0.51787,-4.00729 z"
       inkscape:connector-curvature="0"
       inkscape:export-filename="/home/avp/src/projects/guile-ssh/doc/logo.png"
       inkscape:export-xdpi="144.019"
       inkscape:export-ydpi="144.019" />
  </g>
</svg>
