<?xml version="1.0" encoding="UTF-8" standalone="no"?>
<!-- Created with Inkscape (http://www.inkscape.org/) -->

<svg
   width="192mm"
   height="96mm"
   viewBox="0 0 192 96"
   version="1.1"
   id="svg5"
   sodipodi:docname="logo-v2.svg"
   inkscape:version="1.2.1 (9c6d41e410, 2022-07-14)"
   inkscape:export-filename="logo-v2.png"
   inkscape:export-xdpi="105.83333"
   inkscape:export-ydpi="105.83333"
   xmlns:inkscape="http://www.inkscape.org/namespaces/inkscape"
   xmlns:sodipodi="http://sodipodi.sourceforge.net/DTD/sodipodi-0.dtd"
   xmlns="http://www.w3.org/2000/svg"
   xmlns:svg="http://www.w3.org/2000/svg"
   xmlns:rdf="http://www.w3.org/1999/02/22-rdf-syntax-ns#"
   xmlns:cc="http://creativecommons.org/ns#">
  <sodipodi:namedview
     id="namedview7"
     pagecolor="#ffffff"
     bordercolor="#666666"
     borderopacity="1.0"
     inkscape:showpageshadow="2"
     inkscape:pageopacity="0.0"
     inkscape:pagecheckerboard="0"
     inkscape:deskcolor="#d1d1d1"
     inkscape:document-units="mm"
     showgrid="false"
     inkscape:zoom="2"
     inkscape:cx="330.5"
     inkscape:cy="180.75"
     inkscape:window-width="2560"
     inkscape:window-height="1376"
     inkscape:window-x="0"
     inkscape:window-y="0"
     inkscape:window-maximized="1"
     inkscape:current-layer="g1144"
     showguides="true">
    <sodipodi:guide
       position="143.66749,14.54091"
       orientation="0,-1"
       id="guide730"
       inkscape:locked="false" />
    <sodipodi:guide
       position="101.47555,33.56282"
       orientation="0,-1"
       id="guide732"
       inkscape:locked="false" />
    <sodipodi:guide
       position="71.663408,46.109509"
       orientation="1,0"
       id="guide746"
       inkscape:locked="false" />
    <sodipodi:guide
       position="131.19363,39.284139"
       orientation="1,0"
       id="guide966"
       inkscape:locked="false" />
    <sodipodi:guide
       position="153.98931,20.615449"
       orientation="0,-1"
       id="guide995"
       inkscape:locked="false" />
    <sodipodi:guide
       position="116.46667,27.989839"
       orientation="0,-1"
       id="guide999"
       inkscape:locked="false" />
    <sodipodi:guide
       position="119.63998,49.713098"
       orientation="0,-1"
       id="guide1001"
       inkscape:locked="false" />
    <sodipodi:guide
       position="26.672616,38.689939"
       orientation="1,0"
       id="guide1013"
       inkscape:locked="false" />
    <inkscape:grid
       type="xygrid"
       id="grid4427" />
  </sodipodi:namedview>
  <defs
     id="defs2" />
  <g
     inkscape:label="Layer 1"
     inkscape:groupmode="layer"
     id="layer1"
     transform="translate(-13.380449,-91.33453)">
    <g
       id="g1144"
       transform="translate(6.2218707,7.3006197)"
       style="stroke-width:0.5;stroke-dasharray:none;stroke:#336699;stroke-opacity:1">
      <path
         style="fill:none;stroke:#336699;stroke-width:0.8;stroke-linecap:round;stroke-linejoin:miter;stroke-opacity:1;stroke-dasharray:none"
         d="m 47.267367,139.07707 c 2.737842,-2.94097 5.509838,-7.15005 6.854991,-10.90058 -4.962853,-4.41487 -9.385791,-4.9812 -13.081936,-5.1461 -4.369174,-0.39304 -9.823481,0.99326 -13.754561,2.92396 -2.090781,0.85226 -3.856846,2.38357 -5.51508,3.87151 -2.890099,2.85463 -5.628006,6.04242 -6.841204,10.00241 -1.599271,4.15129 -1.643673,8.68592 -1.112148,13.04835 0.437805,4.59649 2.502816,8.94469 5.27237,12.58944 1.901684,2.31436 4.731264,3.52553 7.23754,5.0337 4.887859,1.8702 10.283765,2.56078 15.472978,1.79231 4.333357,-0.65964 8.399648,-2.7079 11.766934,-5.46763 1.551392,-1.43962 2.607521,-3.27411 3.359153,-5.22924 1.566243,-3.03265 2.289613,-6.56222 1.49233,-9.92801 -0.511354,-2.03828 -0.926548,-4.21 -2.27953,-5.90354 -2.035474,-3.19484 -4.903697,-5.84831 -8.36931,-7.41527 -3.410506,-1.93709 -7.434252,-1.97578 -11.22031,-1.50901 -1.849763,-0.10205 -4.365208,0.59289 -6.287149,1.63871 -2.331752,1.57523 -4.742532,3.43549 -5.713238,6.18201 -0.956756,1.99823 -1.415597,4.23073 -1.15419,6.43482 0.1223,3.99199 2.222339,7.7777 5.085835,10.48107 2.887489,2.61368 7.121417,2.89665 10.818826,2.50909 3.518845,-0.48023 6.826187,-2.471 8.850589,-5.38414 1.624244,-3.00895 0.925129,-6.86728 -1.295523,-9.3919 -1.216272,-1.75072 -2.984941,-3.10977 -5.121682,-3.4723 -2.494655,-0.60308 -5.412355,-0.63196 -7.401721,1.2518 -3.404034,2.66748 -3.331102,8.27318 -0.133666,11.06923 1.911806,1.73677 4.51017,2.43247 6.967122,2.98629 4.076853,0.683 8.160563,-0.31931 12.13265,-1.14853 4.003745,-1.22216 7.306028,-3.97174 10.181577,-6.91897"
         id="path390"
         sodipodi:nodetypes="ccccccssscsccccccccccssscccsc" />
      <path
         style="fill:none;stroke:#336699;stroke-width:0.8;stroke-linecap:round;stroke-linejoin:miter;stroke-opacity:1;stroke-dasharray:none"
         d="m 83.321815,144.6719 c -0.118203,0.13607 -0.271511,0.26293 -0.298527,0.45234 -0.05781,0.2625 -0.163356,0.52503 -0.125153,0.79879 0.02271,0.17596 0.04852,0.35249 0.08734,0.52543 0.08006,0.15193 0.197977,0.28087 0.301605,0.41723 0.140211,0.15414 0.328705,0.25372 0.470305,0.40691 0.292102,0.29853 0.709341,0.45024 1.122091,0.46506 0.366528,0.019 0.743471,-0.0236 1.082031,-0.1711 0.199894,-0.11388 0.390307,-0.24502 0.573133,-0.3844 0.20152,-0.19667 0.445435,-0.35493 0.603804,-0.59186 0.104903,-0.20675 0.138935,-0.44054 0.186096,-0.66538 0.0382,-0.24542 0.06687,-0.50516 -0.0094,-0.74629 -0.0943,-0.1469 -0.213624,-0.27813 -0.335353,-0.40315 -0.216763,-0.21123 -0.47489,-0.38666 -0.766861,-0.47397 -0.303464,-0.11496 -0.606188,-0.24105 -0.925748,-0.30377 -0.240626,-0.0215 -0.47668,-0.10203 -0.720558,-0.0729 -0.310016,0.0307 -0.636294,0.0602 -0.905237,0.23308 -0.100641,0.0671 -0.204392,0.14022 -0.271639,0.24235 -0.04214,0.0848 -0.03928,0.18269 -0.06791,0.27166 z"
         id="path496" />
      <path
         style="fill:none;stroke:#336699;stroke-width:0.8;stroke-linecap:round;stroke-linejoin:miter;stroke-dasharray:none;stroke-opacity:1"
         d="m 120.80447,159.62566 c 2.13673,-0.0399 6.46858,-0.29005 8.18173,-0.27762 0.85985,-0.0447 1.64155,-0.10275 2.50205,-0.0926"
         id="path636"
         sodipodi:nodetypes="ccc" />
      <g
         id="g1006"
         transform="translate(-0.70264579,-0.47502015)"
         style="stroke-width:0.8;stroke-dasharray:none;stroke:#336699;stroke-opacity:1;stroke-linecap:round">
        <path
           style="fill:none;stroke:#336699;stroke-width:0.8;stroke-linecap:round;stroke-linejoin:miter;stroke-opacity:1;stroke-dasharray:none;fill-opacity:1"
           d="m 59.470807,132.18933 c -0.194995,0.47014 -0.579271,0.8783 -0.590272,1.40802 -0.06195,0.62824 -0.02201,1.27775 0.288577,1.84153 0.319428,0.72541 1.081653,1.4964 1.823543,1.54697 0.151904,0.45799 0.451136,0.74175 0.924164,0.83104 0.698613,0.23251 1.419855,0.40737 2.160775,0.39559 1.047831,0.1225 2.127708,-0.0758 3.051915,-0.58899 0.573947,-0.31585 1.049805,-0.78812 1.526016,-1.23314 0.457601,-0.47896 0.796795,-1.10477 0.864479,-1.77011 -0.08124,-0.30215 0.158067,-0.79024 0.06787,-1.17216 0.0025,-0.53642 -0.147607,-1.05257 -0.439243,-1.50239 -0.277825,-0.52264 -0.792743,-0.82312 -1.226016,-1.19821 -0.528559,-0.29007 -0.785846,-0.8955 -1.381773,-1.10022 -0.514859,-0.2412 -0.979706,-0.64687 -1.57487,-0.63456 -0.564732,-0.095 -1.147023,-0.22077 -1.720784,-0.13485 -2.658335,1.14017 -3.036032,2.17772 -3.774381,3.31148 z"
           id="path763"
           sodipodi:nodetypes="cccccccccccccccc" />
        <path
           style="fill:none;stroke:#336699;stroke-width:0.8;stroke-linecap:round;stroke-linejoin:miter;stroke-opacity:1;stroke-dasharray:none"
           d="m 63.21523,130.54186 c 0.323159,-0.25526 0.759665,-0.0407 1.205369,0.48392 0.279032,0.43532 0.351291,0.96729 0.366513,1.45278 0.05731,1.0076 0.270244,1.22158 0.471132,1.57276 0.470947,0.51015 1.297751,0.90043 1.307306,0.90392"
           id="path767"
           sodipodi:nodetypes="ccccc" />
        <path
           style="fill:none;stroke:#336699;stroke-width:0.8;stroke-linecap:round;stroke-linejoin:miter;stroke-opacity:1;stroke-dasharray:none"
           d="m 64.744251,132.49678 c -0.907732,-0.0791 -2.608665,2.74541 -1.596932,3.49716"
           id="path769"
           sodipodi:nodetypes="cc" />
      </g>
      <g
         id="g1011"
         transform="translate(-0.07003867,-3.1110714)"
         style="stroke-width:0.8;stroke-dasharray:none;stroke:#336699;stroke-opacity:1;fill:#b3defd;fill-opacity:1;stroke-linecap:round">
        <path
           style="fill:none;stroke:#336699;stroke-width:0.8;stroke-linecap:round;stroke-linejoin:miter;stroke-opacity:1;stroke-dasharray:none;fill-opacity:1"
           d="m 63.715031,115.34905 c -0.227646,0.83499 -0.433709,1.69638 -0.372038,2.56885 0.02052,1.01592 -0.07106,2.34215 0.823938,2.99396 -0.219737,0.79857 0.04348,1.22304 0.315711,1.80709 0.330184,0.50862 0.844175,0.91889 1.253391,1.32612 0.385969,0.31118 0.755993,0.65785 1.255048,0.77624 0.592752,0.18494 1.176337,0.41172 1.802796,0.44603 0.77742,0.0776 1.57463,0.12754 2.348954,0.0178 0.833764,-0.28517 1.660524,-0.62562 2.409488,-1.09322 0.617919,-0.47676 1.202197,-1.00446 1.729093,-1.57996 0.602328,-0.68935 1.030767,-1.53831 1.125983,-2.45589 0.07097,-0.60165 0.131716,-1.20674 0.164519,-1.81163 -0.04334,-0.95464 -0.466824,-1.84802 -0.992102,-2.626 -0.445062,-0.46618 -0.856096,-0.97479 -1.353595,-1.37635 -0.386948,-0.43744 -1.059867,-0.43359 -1.505521,-0.80247 -0.459389,-0.24231 -1.005501,-0.54071 -1.548053,-0.65377 -0.607171,-0.15242 -1.118246,-0.3867 -1.738381,-0.3501 -2.054181,-0.54526 -5.537833,1.72681 -5.719231,2.8133 z"
           id="path771"
           sodipodi:nodetypes="cccccccccccccccccc" />
        <path
           style="fill:none;stroke:#336699;stroke-width:0.8;stroke-linecap:round;stroke-linejoin:miter;stroke-opacity:1;stroke-dasharray:none;fill-opacity:1"
           d="m 69.243259,116.22991 c 0.361204,-0.31318 1.037038,-1.18363 1.643612,-0.34032 0.265092,0.51854 0.328167,1.0062 0.28722,1.68821 -0.245379,1.95341 -0.529159,3.61159 -0.13833,4.78461 0.131371,0.36087 0.318909,0.90136 0.925403,0.52776"
           id="path773"
           sodipodi:nodetypes="ccccc" />
        <path
           style="fill:none;stroke:#336699;stroke-width:0.8;stroke-linecap:round;stroke-linejoin:miter;stroke-opacity:1;stroke-dasharray:none;fill-opacity:1"
           d="m 71.104034,118.65982 c -3.208774,0.31719 -3.562119,2.50173 -3.598933,3.99197 l 0.04472,0.0269 0.05313,0.0162"
           id="path775"
           sodipodi:nodetypes="cccc" />
      </g>
      <g
         id="g1018"
         transform="translate(-1.9893234,-1.9706841)"
         style="stroke-width:0.8;stroke-dasharray:none;stroke:#336699;stroke-opacity:1;fill:#b3defd;fill-opacity:1;stroke-linecap:round">
        <path
           style="fill:none;stroke:#336699;stroke-width:0.8;stroke-linecap:round;stroke-linejoin:miter;stroke-opacity:1;stroke-dasharray:none;fill-opacity:1"
           d="m 45.592501,96.347435 c -0.765944,0.642813 -1.450461,1.385371 -2.055809,2.17975 -0.568859,0.973959 -0.909345,2.085175 -1.002835,3.207735 -0.01705,0.64051 0.04275,1.28417 0.257563,1.89144 0.289164,0.87614 0.461386,1.80102 0.926994,2.60857 0.346817,0.64262 0.72812,1.27039 1.153138,1.86425 0.488916,0.63313 1.104375,1.16813 1.774418,1.60064 0.85905,0.5256 1.864589,0.72475 2.858406,0.78188 1.972529,0.12966 4.000392,0.24176 5.918972,-0.33594 1.03271,-0.25403 2.029017,-0.65219 2.965647,-1.15323 0.951843,-0.54618 1.910347,-1.16439 2.506152,-2.11419 0.483099,-0.76154 0.900287,-1.61364 0.881044,-2.53718 0.110266,-1.10464 0.01975,-2.22748 -0.191987,-3.31461 -0.211974,-0.64574 -0.270119,-1.348624 -0.64035,-1.935421 -0.202763,-0.434952 -0.481636,-0.830054 -0.713326,-1.250065 -0.283285,-0.630751 -0.863899,-1.054377 -1.204191,-1.649599 -0.476628,-0.530172 -1.131892,-0.846319 -1.696419,-1.268629 0.35478,0.236518 -0.312709,-0.177245 -0.425174,-0.268735 -0.563183,-0.362224 -1.188373,-0.61801 -1.812004,-0.856532 -0.767051,-0.15361 -1.548114,-0.499842 -2.33918,-0.296434 -0.193987,0.09089 -0.725225,0.24701 -0.765195,0.236163 0.218856,-0.119094 -0.434383,0.110926 -1.396094,0.587951 -1.371652,0.68829 -2.558963,0.448075 -4.99977,2.022186 z"
           id="path777"
           sodipodi:nodetypes="ccccccccccccccccccccccc" />
        <path
           style="fill:none;stroke:#336699;stroke-width:0.8;stroke-linecap:round;stroke-linejoin:miter;stroke-opacity:1;stroke-dasharray:none;fill-opacity:1"
           d="m 50.905901,98.158153 c 0.08334,-0.462271 0.538702,-0.654586 0.905449,-0.707267 1.248943,-0.180997 1.734819,0.779499 2.012219,1.770008 0.284418,1.110376 0.233628,2.266466 0.192017,3.401146 0.01838,0.50308 -0.03349,1.17418 0.0057,1.67948 0.09478,2.2596 1.408532,3.58571 3.054382,3.53286"
           id="path779"
           sodipodi:nodetypes="cccccc" />
        <path
           style="fill:none;stroke:#336699;stroke-width:0.8;stroke-linecap:round;stroke-linejoin:miter;stroke-opacity:1;stroke-dasharray:none;fill-opacity:1"
           d="m 54.065704,101.89243 c -0.596968,-0.0517 -1.301976,-0.0365 -1.878296,0.13991 -1.478011,0.48387 -3.052576,1.24211 -3.761419,2.50925 -0.465649,0.66792 -0.607441,1.54053 -0.531124,2.27318"
           id="path781"
           sodipodi:nodetypes="cccc" />
      </g>
      <path
         style="fill:none;stroke:#336699;stroke-width:0.8;stroke-linecap:round;stroke-linejoin:miter;stroke-opacity:1;stroke-dasharray:none"
         d="m 63.416579,153.17537 c -0.811307,3.03036 -0.791569,6.30462 -0.360106,9.35137 0.295956,1.39432 0.721357,3.27078 1.855488,3.98308 4.830248,1.61132 8.968493,-9.26776 8.786607,-13.11722 -0.679853,-0.75654 -1.058506,1.25967 -1.226457,1.81486 -0.462134,2.0616 0.0425,4.18312 0.507123,6.19726 0.522472,1.50072 1.007384,3.85603 2.477731,4.68213 1.008329,0.5744 2.215048,0.72547 3.325403,0.37661 1.19011,-0.29421 2.002019,-1.33003 2.781229,-2.20613 1.000499,-1.59205 1.710391,-3.48279 2.315668,-5.2687 0.695963,-1.89685 2.018961,-5.58813 1.368363,-5.91834 -1.130525,-0.0648 -0.670632,2.04592 -0.738434,3.34398 -0.03034,2.49785 0.533083,6.70281 2.103548,8.76722 0.485619,1.00171 1.575859,1.25056 2.578394,1.37317 1.397077,0.0181 2.227813,-0.56196 3.154523,-1.20519 1.97274,-1.48345 2.992398,-5.04164 4.313871,-7.0958 1.305406,-2.31162 2.676517,-4.6397 3.3523,-7.23019 0.61852,-2.10309 0.87564,-4.30181 0.98695,-6.4862 0.0455,-1.66265 0.2133,-3.48054 -0.81882,-4.91087 -0.445879,-0.79178 -1.582733,-2.17922 -2.243772,-0.76937 -1.04972,1.54887 -1.689494,3.35992 -1.747458,5.23787 -0.02568,3.77163 -0.08351,7.57849 0.548983,11.30998 0.38867,1.87968 0.708009,3.77465 0.79211,5.69513 0.270679,1.71125 0.688208,3.0674 1.276009,4.70621 0.359478,1.34069 2.189748,0.76886 2.870308,0.011 2.46263,-2.3859 4.1088,-5.22854 4.11404,-8.73808 -0.11759,-1.0118 -0.11804,0.80392 0.1593,1.06075 0.5869,0.81632 1.68024,2.08335 2.70117,1.8519 1.12899,-0.0784 2.16287,-0.72033 2.98091,-1.46286 0.8923,-1.15557 1.05337,-2.67716 1.24396,-4.07695 -0.0901,-1.45875 -2.19206,-1.48356 -3.10488,-0.75923 -1.02417,0.75957 -2.0828,1.77244 -2.26808,3.09253 -0.27484,1.80225 -0.34295,2.90615 -0.45855,4.72135 0.13525,1.17005 0.24782,2.48585 1.19529,3.31098 0.61569,0.68588 1.3684,1.30162 2.32036,1.40161 2.00456,0.55043 4.04558,-0.17823 5.78783,-1.15483"
         id="path839"
         sodipodi:nodetypes="cccccccccccccccccccccccccccccccccccc" />
      <path
         style="fill:none;stroke:#336699;stroke-width:0.8;stroke-linecap:round;stroke-linejoin:miter;stroke-opacity:1;stroke-dasharray:none"
         d="m 143.786,142.10795 c 0.75713,-0.53223 -0.8952,0.39975 -1.15705,1.19454 -0.24665,0.74862 0.46155,1.79289 0.86431,2.1317 3.13337,1.91604 8.24276,0.74801 8.11803,-4.19044 -0.41677,-3.52084 -3.28512,-6.34648 -7.71916,-5.82119 -1.0583,0.0107 -2.0144,0.54998 -2.98142,0.94627 -0.72385,0.39031 -1.40693,0.87227 -2.0662,1.37341 -0.60444,0.55265 -1.01201,1.30343 -1.46052,1.99599 -0.37903,0.67015 -0.65056,1.41596 -0.66275,2.20734 -0.0436,0.86019 -0.16118,1.74567 0.0151,2.59449 0.30673,1.05794 0.83027,2.02564 1.35252,2.97504 0.64033,1.07997 1.40809,2.09238 2.39116,2.83265 1.01614,0.92492 2.19598,1.61352 3.44524,2.10058 0.95317,0.4096 1.89451,0.85108 2.77659,1.41793 0.85786,0.47344 1.62196,1.11896 2.42161,1.69392 1.00839,0.73001 1.72874,1.82487 2.16953,3.02869 0.41286,1.01679 0.65662,2.10021 0.8723,3.18071 0.20834,1.04288 -0.93957,4.7208 -1.28517,4.96496 -3.38178,3.75963 -8.44426,3.9791 -10.26891,2.43712 -0.68583,-0.0971 -1.24225,-0.58634 -1.80258,-0.98068 -0.68516,-0.65745 -1.29278,-1.4251 -1.64188,-2.34774 -0.2778,-0.71862 -0.34836,-1.51153 -0.39573,-2.27809 0.48463,-1.81612 1.85252,-4.27743 3.33562,-4.93878 1.69882,-0.86148 4.67959,-1.06609 5.75756,2.18794 0.33541,0.51782 0.6369,1.40637 0.18103,1.92237 -0.70671,0.63977 -1.67955,0.63797 -2.55354,0.6698 -0.36537,-0.003 -1.08877,-0.43558 -0.6037,-0.85352"
         id="path934"
         sodipodi:nodetypes="csccccccccccccccccccccccccc" />
      <path
         style="fill:none;stroke:#336699;stroke-width:0.8;stroke-linecap:round;stroke-linejoin:miter;stroke-opacity:1;stroke-dasharray:none"
         d="m 163.60597,141.6191 c 0.75713,-0.53223 -0.8952,0.39975 -1.15705,1.19454 -0.24665,0.74862 0.46155,1.79289 0.86431,2.1317 3.13337,1.91604 8.24276,0.74801 8.11803,-4.19044 -0.41677,-3.52084 -3.28512,-6.34648 -7.71916,-5.82119 -1.0583,0.0107 -2.0144,0.54998 -2.98142,0.94627 -0.72385,0.39031 -1.40693,0.87227 -2.0662,1.37341 -0.60445,0.55265 -1.01201,1.30343 -1.46052,1.99599 -0.37903,0.67015 -0.65057,1.41596 -0.66275,2.20734 -0.0436,0.86019 -0.16119,1.74567 0.0151,2.59449 0.30673,1.05794 0.83028,2.02564 1.35253,2.97504 0.64033,1.07997 1.40808,2.09238 2.39116,2.83265 1.01614,0.92492 2.68137,1.96199 3.93062,2.44905 0.95317,0.4096 1.40913,0.50261 2.29121,1.06946 0.85786,0.47344 1.62196,1.11896 2.4216,1.69392 1.0084,0.73001 1.72875,1.82487 2.16954,3.02869 0.41286,1.01679 0.65662,2.10021 0.8723,3.18071 0.20834,1.04287 -0.93958,4.7208 -1.28517,4.96495 -3.38178,3.75964 -8.44426,3.97911 -10.26891,2.43713 -0.68583,-0.0971 -1.24226,-0.58634 -1.80258,-0.98068 -0.68516,-0.65745 -1.29279,-1.4251 -1.64188,-2.34774 -0.2778,-0.71862 -0.34836,-1.51153 -0.39573,-2.27809 0.48463,-1.81613 1.85252,-4.27743 3.33562,-4.93878 1.69882,-0.86148 4.67959,-1.06609 5.75756,2.18794 0.3354,0.51782 0.6369,1.40637 0.18103,1.92237 -0.70671,0.63977 -1.67955,0.63797 -2.55354,0.6698 -0.36537,-0.003 -1.08877,-0.43558 -0.6037,-0.85352"
         id="path934-3"
         sodipodi:nodetypes="csccccccccccccccccccccccccc" />
      <path
         style="fill:none;stroke:#336699;stroke-width:0.8;stroke-linecap:round;stroke-linejoin:miter;stroke-opacity:1;stroke-dasharray:none"
         d="m 179.93595,135.45548 c -0.66076,-0.21705 -1.41178,0.16684 -2.08755,0.0505 -0.51258,-0.23135 -0.98366,0.004 -0.97735,0.64882 -0.17534,1.17563 0.12839,5.68939 0.09,6.87216 0.10717,2.4882 0.18509,4.97858 0.13219,7.46965 -0.20017,6.3602 0.62371,11.71445 0.14692,17.68865 -0.0722,0.40732 -0.39272,0.88015 0.16568,1.09391 0.81688,1.03229 2.51552,0.53977 2.60602,-0.41936 0.35138,-2.14776 0.3055,-5.53929 0.25756,-7.98984 -0.0914,-0.45395 0.0118,0.15227 0.14866,-1.55192 2.34061,0.36364 4.66896,-0.0441 6.86856,0.0113 0.47101,-0.10131 1.07993,0.17596 1.38399,-0.34641 0.45499,-0.32002 0.44169,-0.91399 0.45077,-1.44685 0.0669,-0.72854 0.0935,-7.19336 0.0429,-7.92365 0.0642,-4.83098 0.22436,-9.2605 -0.0155,-14.01325 0.54376,-1.07708 2.78587,-0.65972 3.47231,-0.32863 0.14738,0.63615 0.0638,1.31967 0.11885,1.97536 -0.0225,2.50982 0.17938,8.34932 -0.0567,10.85146 -0.0193,0.25704 -0.079,1.10717 -0.0472,0.43539 -0.33954,7.45783 -0.51325,14.88549 -0.13647,21.14045"
         id="path964"
         sodipodi:nodetypes="cccccccccccccccccccc" />
    </g>
  </g>
  <metadata
     id="metadata1123">
    <rdf:RDF>
      <cc:Work
         rdf:about="">
        <cc:license
           rdf:resource="http://creativecommons.org/licenses/by-sa/4.0/" />
      </cc:Work>
      <cc:License
         rdf:about="http://creativecommons.org/licenses/by-sa/4.0/">
        <cc:permits
           rdf:resource="http://creativecommons.org/ns#Reproduction" />
        <cc:permits
           rdf:resource="http://creativecommons.org/ns#Distribution" />
        <cc:requires
           rdf:resource="http://creativecommons.org/ns#Notice" />
        <cc:requires
           rdf:resource="http://creativecommons.org/ns#Attribution" />
        <cc:permits
           rdf:resource="http://creativecommons.org/ns#DerivativeWorks" />
        <cc:requires
           rdf:resource="http://creativecommons.org/ns#ShareAlike" />
      </cc:License>
    </rdf:RDF>
  </metadata>
</svg>
