<?xml version="1.0" encoding="UTF-8" standalone="no"?>
<!-- Created with Inkscape (http://www.inkscape.org/) -->

<svg
   xmlns:dc="http://purl.org/dc/elements/1.1/"
   xmlns:cc="http://creativecommons.org/ns#"
   xmlns:rdf="http://www.w3.org/1999/02/22-rdf-syntax-ns#"
   xmlns:svg="http://www.w3.org/2000/svg"
   xmlns="http://www.w3.org/2000/svg"
   xmlns:sodipodi="http://sodipodi.sourceforge.net/DTD/sodipodi-0.dtd"
   xmlns:inkscape="http://www.inkscape.org/namespaces/inkscape"
   width="744.09448819"
   height="1052.3622047"
   id="svg2"
   version="1.1"
   inkscape:version="0.48.5 r10040"
   sodipodi:docname="logo.svg">
  <title
     id="title4090">Guile-SSH Logo</title>
  <defs
     id="defs4" />
  <sodipodi:namedview
     id="base"
     pagecolor="#ffffff"
     bordercolor="#666666"
     borderopacity="1.0"
     inkscape:pageopacity="0.0"
     inkscape:pageshadow="2"
     inkscape:zoom="1.4"
     inkscape:cx="402.03845"
     inkscape:cy="616.13743"
     inkscape:document-units="px"
     inkscape:current-layer="layer8"
     showgrid="false"
     inkscape:window-width="1278"
     inkscape:window-height="1004"
     inkscape:window-x="0"
     inkscape:window-y="18"
     inkscape:window-maximized="1"
     inkscape:snap-global="false">
    <inkscape:grid
       type="xygrid"
       id="grid2985" />
  </sodipodi:namedview>
  <metadata
     id="metadata7">
    <rdf:RDF>
      <cc:Work
         rdf:about="">
        <dc:format>image/svg+xml</dc:format>
        <dc:type
           rdf:resource="http://purl.org/dc/dcmitype/StillImage" />
        <dc:title>Guile-SSH Logo</dc:title>
        <cc:license
           rdf:resource="http://creativecommons.org/licenses/by-sa/4.0/" />
        <dc:date>2015-11-25</dc:date>
        <dc:creator>
          <cc:Agent>
            <dc:title>Artyom V. Poptsov &lt;poptsov.artyom@gmail.com&gt;</dc:title>
          </cc:Agent>
        </dc:creator>
        <dc:subject>
          <rdf:Bag>
            <rdf:li>GNU</rdf:li>
            <rdf:li>Guile</rdf:li>
            <rdf:li>Scheme</rdf:li>
            <rdf:li>SSH</rdf:li>
            <rdf:li>Secure Shell</rdf:li>
            <rdf:li>Logo</rdf:li>
            <rdf:li>Lisp</rdf:li>
          </rdf:Bag>
        </dc:subject>
      </cc:Work>
      <cc:License
         rdf:about="http://creativecommons.org/licenses/by-sa/3.0/">
        <cc:permits
           rdf:resource="http://creativecommons.org/ns#Reproduction" />
        <cc:permits
           rdf:resource="http://creativecommons.org/ns#Distribution" />
        <cc:requires
           rdf:resource="http://creativecommons.org/ns#Notice" />
        <cc:requires
           rdf:resource="http://creativecommons.org/ns#Attribution" />
        <cc:permits
           rdf:resource="http://creativecommons.org/ns#DerivativeWorks" />
        <cc:requires
           rdf:resource="http://creativecommons.org/ns#ShareAlike" />
      </cc:License>
    </rdf:RDF>
  </metadata>
  <g
     inkscape:groupmode="layer"
     id="layer7"
     inkscape:label="sand"
     style="display:inline">
    <path
       style="fill:#e9c6af;fill-opacity:1;fill-rule:nonzero;stroke:none"
       d="m 530.21875,461.25 c -7.1635,-0.006 -14.31229,4.61654 -18.46875,12.5 -0.99904,-0.387 -2.0468,-0.72225 -3.15625,-1 -7.07337,-4.01137 -12.34197,-0.85472 -16.5,4.3125 -2.41747,-1.74139 -4.73844,-3.29168 -6.625,-4.5625 -4.12645,-2.99645 -7.33946,-1.65145 -10.09375,1.625 -1.99687,0.21816 -3.75127,1.61299 -5.34375,3.6875 -4.37642,-1.52967 -9.1636,-1.95863 -13.59375,-0.96875 -0.0623,0.0205 -0.12546,0.0412 -0.1875,0.0625 -9.31516,-5.365 -21.94671,-4.10443 -28.78125,5.21875 -8.31317,-9.03761 -23.27721,-13.6446 -30.03125,-3.90625 -7.25851,-2.40088 -12.70148,0.0772 -16.8125,4.84375 -1.40574,-4.99108 -4.00699,-9.42744 -7.96875,-12.65625 -16.57848,-6.57416 -23.81324,6.44746 -30.625,18.84375 -5.33793,-4.23146 -12.18077,-3.43097 -17,1.125 -8.5825,-3.88477 -19.45208,-6.13281 -23.6875,-1.875 -0.0252,0.0254 -0.069,0.0367 -0.0937,0.0625 -0.54604,0.3583 -1.05145,0.82316 -1.53125,1.375 -0.59262,0.41562 -1.10349,0.93622 -1.53125,1.5625 -1.77181,-0.9804 -3.54068,-1.95718 -5.3125,-2.9375 -7.55133,-5.12981 -14.54554,-9.04157 -19.0625,1.96875 -7.23602,17.01559 -11.4671,35.0661 -16.625,52.78125 -4.25901,11.98966 -7.73245,23.12009 -9.28125,33.3125 -12.9303,16.71613 13.0869,16.28364 23.46875,19.15625 2.10536,1.16398 3.8979,1.86172 5.4375,2.1875 8.95212,8.14307 24.16936,12.00161 30.75,1.03125 9.86236,3.08062 18.66296,-4.34951 25.21875,-12.09375 0.93482,0.18683 1.88917,0.34482 2.84375,0.4375 1.41534,2.87066 3.37014,5.4963 5.96875,7.71875 5.38723,1.99063 11.58453,2.37066 17.5,1.28125 0.008,0.004 0.0231,-0.004 0.0313,0 7.87706,4.06168 17.57849,4.82575 24.40625,0.46875 1.80217,0.3219 3.76387,0.37273 5.9375,0.0937 2.48433,0.4798 4.93487,0.59097 7.3125,0.4375 0.55586,0.7603 1.15724,1.49678 1.8125,2.21875 12.22994,6.21026 30.64829,12.50322 40.0625,-1.625 0.23069,-0.26202 0.43093,-0.5477 0.65625,-0.8125 4.78717,5.19905 11.91825,8.25103 20.34375,7.6875 7.82823,3.07369 13.5575,-0.0736 18.25,-5.25 6.87108,6.80215 17.69386,6.07639 27.4375,4.625 2.65592,1.625 6.03929,2.63071 10.34375,2.84375 8.65472,4.18059 16.7011,1.30282 23.6875,-4 2.8047,1.13993 5.88285,1.80318 9.21875,1.78125 11.65605,-0.44072 20.1776,-8.93457 26,-18.75 5.13096,10.17196 19.70153,14.21261 30.4375,10.78125 6.87734,-1.32832 11.715,-5.11783 15.3125,-10.09375 10.39172,-0.47131 21.11934,-8.93831 25.40625,-18.25 3.41911,-6.68115 4.20958,-13.87849 5.09375,-20.96875 13.38994,-1.91249 17.45964,-20.77372 17.46875,-32.71875 -0.72336,-5.18964 -2.62527,-8.80744 -5.21875,-11.15625 3.18526,-16.23647 -18.49422,-24.80794 -33.1875,-17.46875 -0.0521,0.40877 -0.12001,0.8172 -0.1875,1.21875 -0.35543,-0.27234 -0.70346,-0.54788 -1.09375,-0.8125 -8.41285,-6.29773 -13.89335,-3.02939 -18,3.15625 -5.27439,-6.32939 -14.60412,-10.13188 -22.3125,-7.65625 -4.47104,-2.80061 -10.09841,-3.97621 -15.46875,-2.96875 -5.10113,-8.50475 -16.00327,-14.31159 -24.6875,-11.0625 -0.70634,1.00864 -1.41869,2.02073 -2.125,3.03125 -4.20219,-6.79486 -10.01457,-9.8387 -15.8125,-9.84375 z M 657.5,525.75 c 0.50194,0.0984 0.34211,0.23992 -0.21875,0.34375 0.0767,-0.11159 0.14003,-0.23274 0.21875,-0.34375 z m -370.625,68.71875 c 0.45933,0.88795 -0.18771,1.22321 0,0 z"
       id="path3996"
       inkscape:connector-curvature="0"
       inkscape:export-filename="/home/avp/src/projects/guile-ssh/doc/logo.png"
       inkscape:export-xdpi="151.23"
       inkscape:export-ydpi="151.23" />
  </g>
  <g
     inkscape:groupmode="layer"
     id="layer4"
     inkscape:label="shell-color"
     style="display:inline" />
  <g
     inkscape:groupmode="layer"
     id="layer2"
     inkscape:label="shell"
     style="display:inline">
    <g
       id="g4736"
       inkscape:export-filename="/home/avp/src/projects/guile-ssh/doc/logo.png"
       inkscape:export-xdpi="151.23"
       inkscape:export-ydpi="151.23">
      <g
         id="g4784">
        <path
           style="fill:#e3dbdb;fill-opacity:1;fill-rule:nonzero;stroke:none;display:inline"
           d="m 238.74999,416.1875 c -4.50534,-0.0208 -8.99233,0.35505 -13.4375,1.65625 -13.23241,3.33237 -27.22525,6.17691 -38.40625,14.46875 -6.19065,6.3391 -11.10672,14.14288 -19.78125,17.34375 -9.1809,6.60339 -13.54609,17.15104 -18.15625,27 -2.70587,7.34998 -9.31251,15.55786 -11.71875,24.125 -6.86012,17.36671 -6.66219,37.32771 -0.65625,55 1.16677,9.44441 5.94768,17.53487 11.59375,24.96875 5.39942,9.19237 11.41671,18.8181 21.75,23 -3.42286,-1.15402 10.79188,6.59947 15.625,6.71875 8.57796,1.6019 16.00946,4.47795 24.375,7.65625 10.83938,2.43756 22.81932,1.65006 33.40625,-1.71875 11.28664,0.4385 21.5452,-4.48017 32.34375,-6.90625 12.33215,-3.8583 24.59422,-12.22197 29.15625,-24.71875 6.10106,-3.479 10.45344,-10.05736 13,-16.5625 8.1763,-6.71621 9.65992,-18.17233 6.46875,-27.8125 -2.49535,-9.56032 -11.30238,-14.07473 -17.71875,-20.46875 1.88892,-1.22559 3.67587,-2.64396 5.34375,-4.1875 8.59848,-6.59134 21.25128,-8.75527 24.65625,-20.59375 3.18986,-9.13985 4.81724,-20.16326 1.125,-29 -3.39403,-9.93311 -3.95139,-23.40021 -15.375,-28 -7.51643,-6.59873 -15.6138,-11.85752 -25.65625,-13.46875 -10.3425,-7.17917 -23.13264,-8.23533 -35.34375,-7.53125 -7.53192,0.19723 -15.08484,-0.93403 -22.59375,-0.96875 z M 163.46874,538.75 c 0.0527,-0.009 -0.0418,1.28968 -0.21875,3.03125 -0.10396,0.28445 -0.22246,0.56969 -0.3125,0.84375 0.30833,-2.79015 0.48299,-3.86641 0.53125,-3.875 z m 109.3125,8 c 0.20327,0.1289 0.428,0.25142 0.625,0.40625 -0.60484,0.12224 -1.28437,0.24675 -1.9375,0.375 -0.51586,-0.33061 -0.18221,-0.61668 1.3125,-0.78125 z"
           id="path3475"
           inkscape:connector-curvature="0"
           sodipodi:nodetypes="sccccccccccccccccccccccscccccccc" />
        <path
           style="fill:#241c1c;fill-opacity:1;fill-rule:nonzero;stroke:none"
           d="m 241.4322,539.63248 c -4.13191,-10.44147 7.39365,-11.00569 4.89097,-1.44995 -7.93025,13.83325 -17.6775,-8.27227 -5.30712,-10.43655 12.19671,-1.41946 19.69596,13.58427 9.26166,20.83372 -7.99213,8.04048 -21.01382,6.11421 -26.82809,-3.58093 -6.60573,-14.78345 4.2557,-28.09967 14.47955,-33.08651 16.46251,-5.92475 37.40859,4.92862 39.06183,23.43048 1.74954,14.50932 -11.15635,28.87473 -23.73019,32.82621 -18.02139,7.20885 -39.25147,-5.70356 -48.76305,-21.4206 -3.6455,-10.36602 -5.41121,-8.48859 0.2828,-29.71581 6.11358,-11.16973 11.67319,-18.68117 22.17132,-25.92501 17.93575,-10.66917 42.5179,-6.17922 58.46487,2.62842 12.19297,6.98595 22.16471,19.07322 25.11505,33.02752 1.78657,11.45619 -0.80422,22.7686 -7.33311,33.26763 -10.79195,18.1386 -30.34927,35.06795 -48.66008,41.28607 -29.62636,10.51138 -60.332,3.30083 -85.04675,-23.81911 -11.5593,-10.81712 -24.45233,-35.91725 -24.64448,-59.1493 -0.3506,-14.02249 7.90122,-25.13434 13.44791,-36.69544 17.61401,-20.25204 31.71409,-39.08843 53.96685,-46.494 26.49846,-7.61915 24.45123,-8.52032 45.04185,-9.62611 14.51698,-0.78995 59.00005,5.53466 71.86178,24.80435 11.08756,9.90644 -4.00341,42.25606 -16.61485,50.92641 -8.52636,7.64362 -16.03306,3.26717 -6.16055,6.88391 8.26265,-5.14225 16.79254,-12.84332 22.76901,-21.12514 7.65232,-18.79695 13.96108,-29.81299 -6.05227,-46.83493 -17.61863,-14.52267 -54.35706,-25.25536 -76.43522,-20.49104 -18.71395,2.84933 -25.16437,3.07507 -42.79282,10.40198 -24.61285,11.29527 -45.73768,39.26212 -59.10859,62.03244 -5.62438,16.74426 -6.24332,29.65001 -3.4036,44.26791 5.55885,24.97352 21.29111,43.82207 41.79125,58.6603 31.15972,20.42607 53.90026,17.1167 85.71843,2.33625 16.97162,-10.72452 37.80836,-32.76046 43.62719,-53.67373 1.7252,-16.86538 1.90335,-24.53215 -7.64939,-39.38847 -14.95135,-14.58297 -37.48142,-25.10376 -58.56416,-24.94527 -17.28208,0.1929 -32.87582,10.94595 -42.42954,24.8082 -4.42093,7.52931 -10.00984,16.01368 -10.0801,25.90187 -1.25315,14.51616 6.34779,25.26244 17.11612,34.01282 13.50955,10.91676 34.32361,15.47163 49.63459,6.84907 11.82009,-5.61698 21.34686,-18.65914 22.05201,-34.06326 -0.83635,-15.3372 -16.00902,-26.87898 -30.58762,-29.80891 -10.47522,-2.58084 -22.85217,-0.23823 -29.3398,9.09048 -7.00091,7.21157 -9.24779,18.97691 -4.8452,27.87371 3.30868,10.06158 15.47351,16.05363 25.75755,11.746 11.68355,-2.52968 19.7786,-15.68794 12.16603,-26.28393 -5.86946,-8.88933 -19.01415,-11.06624 -23.57894,0.7362 -1.86312,12.66505 13.83427,20.33423 16.44121,5.97082 -2.11296,-13.75372 -15.05866,-1.43941 -7.82672,3.40428 0.79898,0.16889 5.11563,-0.13293 0.66241,0.007 z"
           id="path3033"
           inkscape:connector-curvature="0"
           sodipodi:nodetypes="cccccccccccccccccccccccccccccccccccccccccccccccc"
           inkscape:export-filename="/home/avp/src/projects/guile-ssh/doc/logo.png"
           inkscape:export-xdpi="144.019"
           inkscape:export-ydpi="144.019" />
      </g>
      <path
         inkscape:export-ydpi="144.019"
         inkscape:export-xdpi="144.019"
         inkscape:export-filename="/home/avp/src/projects/guile-ssh/doc/logo.png"
         sodipodi:nodetypes="cccccccccccc"
         inkscape:connector-curvature="0"
         id="path3039"
         d="m 321.88916,490.93903 c -5.01196,-4.66024 -12.18871,-7.63048 -18.49174,-10.68058 -6.01559,-4.05419 -12.12499,-7.8708 -19.23632,-9.3411 -7.65403,-1.65058 -15.40336,-3.07036 -23.20254,-3.78432 -5.23204,-0.0564 -10.45491,0.44358 -15.66665,0.81384 -2.38021,0.009 -7.77634,0.58752 -25.82931,9.50315 11.91158,-2.54474 28.36613,-7.34687 32.32999,-6.48999 6.7908,-0.52732 13.25566,1.2991 19.92023,2.70772 7.43134,1.01631 14.58944,3.45282 21.33479,6.67595 8.85607,4.45809 17.45377,12.21893 22.43686,17.27519 3.4156,1.42587 9.30231,-4.30294 6.40468,-6.67987 z"
         style="fill:#241c1c;fill-opacity:1;fill-rule:nonzero;stroke:none" />
      <path
         inkscape:export-ydpi="144.019"
         inkscape:export-xdpi="144.019"
         inkscape:export-filename="/home/avp/src/projects/guile-ssh/doc/logo.png"
         sodipodi:nodetypes="cccccccccc"
         inkscape:connector-curvature="0"
         id="path3043"
         d="m 331.75019,471.89625 c -9.68263,-7.3248 -21.70442,-10.21523 -33.3249,-12.85118 -7.28119,-2.15588 -14.72663,-3.83254 -22.33328,-4.17636 -4.85084,-0.55918 -9.76401,-0.73884 -14.63414,-0.6138 -3.02568,-0.0136 -17.90983,2.33081 -13.00829,2.89882 6.72443,-0.0453 21.50619,1.09127 26.56105,2.09875 4.91851,0.64558 9.86734,1.23559 14.57703,2.90217 7.85798,2.5397 16.04212,3.9473 23.73729,6.98975 5.55203,1.91896 9.18772,6.84784 14.06732,10.11623 3.24908,1.53934 7.44549,-5.47732 4.35792,-7.36438 z"
         style="fill:#241c1c;fill-opacity:1;fill-rule:nonzero;stroke:none" />
      <path
         inkscape:export-ydpi="144.019"
         inkscape:export-xdpi="144.019"
         inkscape:export-filename="/home/avp/src/projects/guile-ssh/doc/logo.png"
         sodipodi:nodetypes="cccccccc"
         inkscape:connector-curvature="0"
         id="path3045"
         d="m 330.42391,450.67576 c -8.60679,-4.65139 -19.53912,-8.364 -28.8242,-11.18925 -6.89798,-1.73647 -12.53664,-1.58478 -19.59306,-2.48674 -3.43264,0.5273 -20.66502,0.53727 -23.2216,1.77715 4.68025,2.31059 13.18638,1.1258 17.51703,2.23245 5.33104,0.3261 10.45886,1.96975 15.66232,3.09013 15.31833,1.98888 26.34033,11.36193 40.71378,15.05519 2.11022,-1.2721 0.0682,-7.5357 -2.25427,-8.47893 z"
         style="fill:#241c1c;fill-opacity:1;fill-rule:nonzero;stroke:none" />
      <path
         inkscape:export-ydpi="144.019"
         inkscape:export-xdpi="144.019"
         inkscape:export-filename="/home/avp/src/projects/guile-ssh/doc/logo.png"
         inkscape:connector-curvature="0"
         d="m 285.09554,500.08192 c -0.46073,-0.27021 -0.93153,-0.52422 -1.38596,-0.80471 -0.53076,-0.28185 -1.0761,-0.54072 -1.59973,-0.83894 -0.49152,-0.2393 -0.99684,-0.44751 -1.49723,-0.66871 -0.44228,-0.19477 -0.92725,-0.33226 -1.32566,-0.61307 -0.40847,-0.16128 -0.80982,-0.33432 -1.22578,-0.47691 -0.41153,-0.17707 -0.8233,-0.3553 -1.23799,-0.52816 -0.43604,-0.16645 -0.87941,-0.31192 -1.32416,-0.45511 -0.44587,-0.19333 -0.9044,-0.35471 -1.37014,-0.49429 -0.45693,-0.15365 -0.92084,-0.29383 -1.38878,-0.40964 -0.51281,-0.1489 -1.02399,-0.32024 -1.54904,-0.42709 -0.68722,-0.13336 -1.36989,-0.27264 -2.06416,-0.36385 -0.72615,-0.13134 -1.44653,-0.29873 -2.17823,-0.39645 -0.73415,-0.12193 -1.47214,-0.25023 -2.21426,-0.33408 -0.83313,-0.15517 -1.67954,-0.28088 -2.52388,-0.36987 -0.85116,-0.11625 -1.68221,-0.32893 -2.53531,-0.42269 -0.86113,-0.21069 -1.7429,-0.33585 -2.62659,-0.40979 -0.90405,-0.11835 -1.81219,-0.22672 -2.7203,-0.31917 -0.88323,-0.0933 -1.76223,-0.15971 -2.65082,-0.15274 -0.87468,-0.0465 -1.7561,-0.074 -2.63231,-0.0454 -0.77946,0.009 -1.55711,0.067 -2.33651,0.075 -0.73814,0.006 -1.47488,0.10287 -2.21247,0.0898 -0.70454,0.0504 -1.41079,0.12718 -2.11666,0.11552 -0.65221,-0.008 -1.28512,0.17615 -1.93015,0.21501 -0.60344,0.11628 -1.17371,0.36439 -1.77965,0.4612 -0.58563,0.20903 -1.14016,0.48391 -1.72284,0.7052 -0.55142,0.27867 -1.10919,0.57465 -1.69291,0.79134 -0.53537,0.28442 -1.08232,0.57171 -1.64476,0.79827 -0.59482,0.27488 -1.15518,0.61126 -1.75271,0.87941 -0.62803,0.35714 -1.25917,0.71274 -1.90057,1.04694 -0.56888,0.34538 -1.12264,0.71773 -1.69037,1.06684 -0.46742,0.29138 -0.87969,0.65615 -1.31536,0.99026 -0.36806,0.3456 -0.76893,0.6555 -1.09928,1.03873 -0.33211,0.33867 -0.64614,0.68881 -0.93585,1.06533 -0.33041,0.34846 -0.67456,0.69827 -0.94588,1.09331 -0.2761,0.40612 -0.62072,0.76424 -0.8708,1.18645 -0.24086,0.40861 -0.54969,0.75662 -0.81724,1.14878 -0.32962,0.31118 -0.60145,0.65741 -0.86793,1.02424 -0.27068,0.35501 -0.56063,0.67752 -0.81321,1.04697 -0.15969,0.38967 -0.53465,0.58928 -0.79063,0.89839 -0.29325,0.21597 -0.49903,0.51613 -0.76414,0.76215 -0.24306,0.24263 -0.37898,0.56374 -0.55011,0.85688 -0.12807,0.2973 -0.27769,0.55566 -0.47496,0.81219 -0.15536,0.26089 -0.32807,0.50743 -0.50672,0.75388 -0.17393,0.23979 -0.42325,0.42054 -0.6362,0.62834 -0.20641,0.2172 -0.44592,0.39736 -0.66087,0.60496 -0.26692,0.16442 -0.47765,0.39248 -0.68685,0.62083 -0.22183,0.22622 -0.4439,0.38685 -0.6752,0.61763 -0.33422,0.2623 -0.4951,0.47657 -0.48783,0.91006 -0.051,0.39646 -0.0461,0.17421 0.0245,0.66641 -0.0777,0.0629 0.0112,0.17284 0.089,0.10995 l 0,0 c 0.47679,0.16555 0.25314,0.1315 0.66319,0.14419 0.47937,0.0743 0.7485,-0.1259 1.05238,-0.4849 0.23336,-0.23248 0.39398,-0.45748 0.61041,-0.68863 0.22119,-0.20094 0.44608,-0.39708 0.61294,-0.64973 0.21745,-0.20992 0.40652,-0.44616 0.62939,-0.65104 0.22569,-0.22042 0.42345,-0.47384 0.67269,-0.66506 0.2472,-0.19763 0.48867,-0.39721 0.74606,-0.57996 0.24069,-0.21801 0.48557,-0.39251 0.77285,-0.54458 0.25217,-0.17431 0.53005,-0.31066 0.74951,-0.52668 0.21101,-0.23226 0.47409,-0.396 0.68398,-0.62999 0.32315,-0.20948 0.55608,-0.54367 0.95276,-0.63906 0.44418,-0.22713 0.83919,-0.51271 1.24406,-0.80201 0.43127,-0.29739 0.83394,-0.61905 1.17373,-1.01923 0.3851,-0.31421 0.72131,-0.66759 1.11741,-0.96569 0.38777,-0.29081 0.70125,-0.667 1.0737,-0.9778 0.33318,-0.2683 0.61536,-0.60119 0.92039,-0.90344 0.31347,-0.24334 0.60952,-0.49872 0.91268,-0.75342 0.29467,-0.20329 0.54355,-0.46778 0.85354,-0.65032 0.3293,-0.25513 0.70146,-0.44867 1.04437,-0.68454 0.47024,-0.32559 0.98238,-0.59713 1.48522,-0.8653 0.55512,-0.34976 1.13769,-0.66483 1.73271,-0.93909 0.51961,-0.31501 1.08515,-0.54146 1.62775,-0.81417 0.51136,-0.29411 1.06367,-0.53776 1.60727,-0.76582 0.51381,-0.3034 1.07948,-0.53552 1.62046,-0.77122 0.38869,-0.21782 0.80995,-0.37359 1.23365,-0.49584 0.361,-0.22192 0.81335,-0.29929 1.2193,-0.3951 0.46627,-0.21264 1.01369,-0.21196 1.50204,-0.36835 0.64884,-0.18935 1.32523,-0.27881 1.99311,-0.38157 0.70685,-0.17617 1.44178,-0.22416 2.15509,-0.37477 0.71381,-0.14703 1.43726,-0.23263 2.1596,-0.32651 0.82109,-0.0833 1.6397,-0.20009 2.45946,-0.29304 0.81505,-0.0328 1.61974,-0.11416 2.43506,-0.14315 0.86922,-0.0227 1.73515,-0.022 2.6035,0.007 0.84481,0.0712 1.69276,0.10376 2.53947,0.11062 0.83917,0.11996 1.68523,0.13819 2.52508,0.26734 0.82787,0.1411 1.6679,0.23768 2.50128,0.32712 0.73197,0.1364 1.47318,0.22575 2.20882,0.32131 0.71303,0.12296 1.43369,0.19484 2.14657,0.32099 0.65937,0.13837 1.32628,0.21514 1.98766,0.33991 0.49465,0.10208 0.9988,0.15318 1.49342,0.24833 0.43417,0.10727 0.87024,0.20657 1.30444,0.31455 0.47088,0.14058 0.94452,0.27171 1.42657,0.36699 0.43955,0.11417 0.88237,0.20698 1.32387,0.3118 0.42317,0.0895 0.84982,0.17775 1.26647,0.28741 0.40795,0.13975 0.82246,0.2512 1.23038,0.38971 0.47706,0.0389 0.937,0.22298 1.38819,0.36937 0.48753,0.15495 0.96902,0.3366 1.43318,0.54958 0.5382,0.2084 1.04853,0.48957 1.54515,0.77861 0.46948,0.23355 0.92094,0.50378 1.37061,0.77324 0.72634,0.42747 1.33089,-0.59973 0.60454,-1.02721 z"
         id="path3126"
         style="fill:#241c1c;fill-opacity:1;fill-rule:nonzero;stroke:none" />
      <path
         inkscape:export-ydpi="144.019"
         inkscape:export-xdpi="144.019"
         inkscape:export-filename="/home/avp/src/projects/guile-ssh/doc/logo.png"
         inkscape:connector-curvature="0"
         d="m 266.79882,524.02872 c -0.31979,-0.33191 -0.61952,-0.6903 -0.8964,-1.06091 -0.29116,-0.38423 -0.6445,-0.71598 -0.94717,-1.09 -0.29144,-0.26621 -0.55443,-0.55695 -0.82639,-0.84189 -0.23016,-0.25465 -0.47834,-0.48211 -0.7521,-0.68977 -0.24549,-0.19833 -0.49902,-0.38775 -0.74374,-0.59061 -0.24583,-0.18911 -0.51942,-0.33791 -0.78255,-0.50136 -0.24882,-0.18712 -0.53614,-0.32482 -0.81217,-0.47013 -0.28183,-0.17885 -0.60578,-0.28006 -0.88846,-0.45234 -0.33085,-0.16836 -0.6955,-0.26706 -1.02647,-0.42999 -0.37966,-0.11469 -0.75661,-0.23963 -1.13719,-0.35326 -0.38213,-0.0132 -0.71979,0.0167 -1.08538,-0.11672 -0.2847,-0.10257 -0.54042,-0.0217 -0.80285,-0.16753 -0.22802,-0.0941 -0.46048,-0.19268 -0.68445,-0.30211 -0.25793,-0.0799 -0.52534,-0.14606 -0.78223,-0.2353 -0.2983,-0.11103 -0.60869,-0.19151 -0.90631,-0.30364 -0.31428,-0.0964 -0.5892,-0.25834 -0.89701,-0.37228 -0.34734,-0.15322 -0.70739,-0.27384 -1.07894,-0.35621 -0.37969,-0.0906 -0.75006,-0.21857 -1.13141,-0.30453 -0.37723,-0.0906 -0.74622,-0.20995 -1.12195,-0.3057 -0.38506,-0.12195 -0.77632,-0.21644 -1.16877,-0.31607 -0.40812,-0.0612 -0.82304,-0.05 -1.23063,-0.10454 -0.38479,-0.0534 -0.77647,-0.0613 -1.16451,-0.0494 -0.3716,-0.0212 -0.73952,-0.036 -1.1121,-0.0254 -0.42026,0.01 -0.8394,7e-4 -1.25566,0.0661 -0.38148,0.0935 -0.77785,0.0926 -1.16052,0.17602 -0.3732,0.0752 -0.73776,0.15863 -1.1003,0.27791 -0.36398,0.094 -0.71449,0.22692 -1.07379,0.33915 -0.34917,0.15549 -0.7273,0.21826 -1.08263,0.34706 -0.39484,0.0992 -0.7776,0.24336 -1.14953,0.414 -0.40199,0.14419 -0.80637,0.2961 -1.18368,0.50003 -0.39517,0.17118 -0.80635,0.30647 -1.19315,0.50205 -0.41955,0.15 -0.82589,0.3664 -1.2126,0.59442 -0.39569,0.22269 -0.80051,0.43864 -1.17564,0.69817 -0.3946,0.22753 -0.79928,0.44946 -1.16975,0.71659 -0.39564,0.25834 -0.76447,0.55471 -1.13597,0.84636 -0.35097,0.26578 -0.65696,0.5793 -0.98011,0.87499 -0.25429,0.26162 -0.51344,0.5179 -0.76642,0.78105 -0.24585,0.21067 -0.39196,0.5063 -0.6044,0.7392 -0.20157,0.20359 -0.37951,0.42196 -0.58596,0.62009 -0.20841,0.23475 -0.41506,0.47099 -0.58231,0.74171 -0.24086,0.24034 -0.19775,0.59471 -0.37465,0.86867 -0.15558,0.27182 -0.26214,0.56205 -0.39106,0.84411 -0.11734,0.27975 -0.19278,0.58006 -0.32495,0.85275 -0.0496,0.26627 -0.19681,0.50068 -0.30546,0.74594 -0.1094,0.26004 -0.2637,0.50271 -0.37304,0.76108 -0.13675,0.28209 -0.29316,0.55052 -0.27992,0.87099 -0.0283,0.26491 -0.13767,0.50538 -0.21743,0.75595 -0.1177,0.24205 -0.22964,0.49134 -0.26059,0.76094 -0.0902,0.28485 -0.23777,0.56092 -0.28537,0.85415 -0.0704,0.25781 -0.12111,0.52875 -0.15186,0.79441 -0.0507,0.35592 -0.15125,0.6897 -0.017,1.03915 0.11363,0.34796 0.49221,0.22303 0.48739,0.60981 -0.005,0.0999 0.1367,0.10635 0.14129,0.006 l 0,0 c 0.0301,-0.38061 0.37769,-0.22298 0.54566,-0.53322 0.16285,-0.25352 0.14737,-0.54377 0.22601,-0.82467 0.0729,-0.21121 0.141,-0.42481 0.2104,-0.63751 0.1045,-0.19713 0.13914,-0.43149 0.28029,-0.61795 0.21122,-0.20254 0.33855,-0.47563 0.45259,-0.74139 0.14414,-0.25928 0.24771,-0.53944 0.40954,-0.78952 0.18397,-0.17938 0.24696,-0.41192 0.34832,-0.64299 0.12787,-0.23315 0.22107,-0.48762 0.36496,-0.71443 0.15598,-0.2773 0.26564,-0.57873 0.44189,-0.844 0.0986,-0.26467 0.22545,-0.52181 0.35125,-0.77426 0.0956,-0.21069 0.22981,-0.41078 0.3486,-0.61089 0.10924,-0.21742 0.39354,-0.23614 0.49133,-0.46886 0.14475,-0.1505 0.26124,-0.32475 0.41825,-0.45958 0.16728,-0.19883 0.36796,-0.36343 0.55258,-0.54698 0.21952,-0.19934 0.50322,-0.32921 0.70895,-0.5534 0.2557,-0.22619 0.50804,-0.45553 0.77086,-0.67325 0.26577,-0.24425 0.55652,-0.4631 0.83233,-0.69662 0.29088,-0.22955 0.59874,-0.43088 0.91531,-0.62308 0.38258,-0.20835 0.74517,-0.45771 1.10887,-0.69547 0.36409,-0.19005 0.70488,-0.42087 1.06394,-0.61658 0.34376,-0.17288 0.68536,-0.35397 1.01634,-0.54196 0.39584,-0.16927 0.76219,-0.39472 1.14498,-0.58614 0.36879,-0.14083 0.71766,-0.32707 1.06645,-0.50763 0.33782,-0.12703 0.66738,-0.26198 0.99386,-0.41191 0.34821,-0.12611 0.67365,-0.3133 1.03376,-0.41729 0.33148,-0.13143 0.668,-0.24214 0.99414,-0.38468 0.30653,-0.10057 0.59786,-0.22886 0.90072,-0.33415 0.29988,-0.0926 0.58594,-0.2436 0.90144,-0.27795 0.33979,-0.0553 0.67172,-0.15623 1.01653,-0.17902 0.37424,-0.0371 0.74167,-0.093 1.11011,-0.16731 0.3456,-0.0381 0.69048,-0.0855 1.0356,-0.126 0.33718,-0.0534 0.68357,-0.0525 1.02385,-0.0299 0.34919,-0.0254 0.68772,-7.2e-4 1.03467,0.0397 0.36066,0.0634 0.7241,0.10508 1.07688,0.20897 0.37585,0.1129 0.76144,0.18883 1.13918,0.29256 0.33658,0.10078 0.68072,0.16892 1.02019,0.25415 0.33355,0.0938 0.66564,0.12143 0.99931,0.21599 0.32407,0.0631 0.64527,0.13719 0.97324,0.17941 0.2704,0.0414 0.53986,0.10563 0.80683,0.15759 0.23376,0.004 0.47533,0.0183 0.70197,0.0637 0.30675,0.0207 0.47747,0.25743 0.78856,0.30497 0.3768,0.0659 0.63895,0.25356 0.95878,0.45161 0.35554,0.10625 0.71607,0.2058 1.06023,0.34305 0.32579,0.0769 0.63197,0.26055 0.93811,0.39456 0.29389,0.0926 0.56221,0.26034 0.8442,0.38568 0.25221,0.13282 0.49669,0.28193 0.75254,0.4044 0.24766,0.15351 0.48068,0.32692 0.72753,0.48157 0.26353,0.14792 0.51405,0.30722 0.75867,0.48169 0.25039,0.1896 0.50913,0.36256 0.76675,0.53994 0.29982,0.2258 0.59085,0.45397 0.84083,0.73727 0.35722,0.30059 0.66014,0.66369 0.99056,0.9922 0.32996,0.31595 0.64184,0.65865 0.91248,1.02481 0.34268,0.40526 0.9158,-0.0795 0.57311,-0.48466 z"
         id="path3154"
         style="fill:#241c1c;fill-opacity:1;fill-rule:nonzero;stroke:none" />
      <path
         inkscape:export-ydpi="144.019"
         inkscape:export-xdpi="144.019"
         inkscape:export-filename="/home/avp/src/projects/guile-ssh/doc/logo.png"
         inkscape:connector-curvature="0"
         d="m 181.4874,580.1361 c -0.55,-0.37198 -1.07054,-0.78209 -1.60363,-1.17693 -0.68014,-0.50496 -1.29068,-1.09137 -1.93423,-1.63992 -0.67329,-0.64791 -1.34982,-1.2919 -2.02565,-1.937 -0.66598,-0.62984 -1.2887,-1.30328 -1.94748,-1.94035 -0.58337,-0.56332 -1.14593,-1.14852 -1.72695,-1.71443 -0.49909,-0.53779 -1.00643,-1.06728 -1.50625,-1.6044 -0.42488,-0.46172 -0.84969,-0.92794 -1.22738,-1.42974 -0.39737,-0.4451 -0.75697,-0.92279 -1.11449,-1.40232 -0.35949,-0.4836 -0.67858,-0.9913 -0.98049,-1.5135 -0.28615,-0.58831 -0.65112,-1.13311 -0.94072,-1.71901 -0.35166,-0.60074 -0.67629,-1.21943 -0.95508,-1.85518 -0.30629,-0.71251 -0.677,-1.38726 -1.02412,-2.08014 -0.39805,-0.7507 -0.81724,-1.49263 -1.18008,-2.2616 -0.42642,-0.76687 -0.85802,-1.53846 -1.18904,-2.35304 -0.38892,-0.78452 -0.80935,-1.56404 -1.13932,-2.37599 -0.37901,-0.80985 -0.76647,-1.62104 -1.1115,-2.44616 -0.38189,-0.85072 -0.76794,-1.69794 -1.14257,-2.55177 -0.43423,-0.80096 -0.84347,-1.61999 -1.21895,-2.45089 -0.34592,-0.7418 -0.71837,-1.47112 -1.0405,-2.22377 -0.35089,-0.73779 -0.59983,-1.51611 -0.91111,-2.27042 -0.33379,-0.73878 -0.5979,-1.5064 -0.9139,-2.25172 -0.21449,-0.68408 -0.39941,-1.37528 -0.60041,-2.06274 -0.20717,-0.74258 -0.34261,-1.50848 -0.55261,-2.25071 -0.16499,-0.85869 -0.3081,-1.72997 -0.55468,-2.56947 -0.24262,-0.8862 -0.31991,-1.81418 -0.56326,-2.69467 -0.18812,-0.85476 -0.15959,-1.73009 -0.25661,-2.5941 -0.007,-0.86955 0.0964,-1.73138 0.12998,-2.59915 0.084,-0.79943 0.23768,-1.59002 0.31027,-2.38915 0.11662,-0.72816 0.22669,-1.45517 0.36278,-2.17993 0.0936,-0.66137 0.22179,-1.31703 0.33633,-1.97486 0.0976,-0.56907 0.18824,-1.14028 0.30027,-1.70677 0.0567,-0.56217 0.12569,-1.12199 0.19956,-1.68156 0.10504,-0.70652 0.17605,-1.41418 0.30652,-2.11674 0.14178,-0.85928 0.22401,-1.73442 0.45897,-2.57331 0.17271,-0.86634 0.35344,-1.73962 0.62422,-2.5802 0.20579,-0.77814 0.38422,-1.57437 0.66089,-2.32973 0.15433,-0.57886 0.29066,-1.17785 0.52976,-1.72943 0.14877,-0.47077 0.31708,-0.94393 0.52061,-1.39795 0.16173,-0.48821 0.36201,-0.96795 0.60339,-1.42292 0.26939,-0.61125 0.57676,-1.20119 0.89641,-1.78874 0.3377,-0.75595 0.69998,-1.50145 1.07646,-2.23845 0.34895,-0.72812 0.77331,-1.41606 1.18567,-2.10916 0.41261,-0.62794 0.79998,-1.27318 1.24531,-1.87885 0.45156,-0.68778 0.9338,-1.35438 1.4361,-2.00614 0.70177,-0.89412 1.38223,-1.80409 1.99046,-2.76475 0.61126,-0.95624 0.54052,-1.99013 0.44315,-3.06911 0.0545,-0.0839 -0.0641,-0.1609 -0.11861,-0.077 l 0,0 c -0.99146,0.35447 -1.93653,0.72438 -2.55854,1.62769 -0.64694,0.88255 -1.28761,1.76926 -1.95892,2.63356 -0.50915,0.69852 -1.01861,1.39651 -1.51318,2.10521 -0.42144,0.66945 -0.89446,1.30609 -1.29789,1.98726 -0.46778,0.73065 -0.88851,1.48751 -1.32177,2.23895 -0.40384,0.7313 -0.80687,1.46322 -1.23659,2.17996 -0.31778,0.63557 -0.64726,1.26036 -0.96877,1.89301 -0.22562,0.54044 -0.46653,1.07284 -0.68785,1.61447 -0.16561,0.51194 -0.39133,1.00306 -0.57326,1.50694 -0.1669,0.63419 -0.40078,1.25076 -0.58522,1.87994 -0.16308,0.80064 -0.41796,1.58607 -0.65322,2.36924 -0.20403,0.92683 -0.47335,1.83915 -0.65391,2.7736 -0.11481,0.91041 -0.36333,1.79876 -0.48659,2.71024 -0.0861,0.72652 -0.22138,1.44334 -0.30654,2.17008 -0.0735,0.54606 -0.14781,1.09141 -0.23672,1.63558 -0.0505,0.54991 -0.15881,1.09381 -0.25846,1.63651 -0.11418,0.66331 -0.20522,1.33075 -0.3362,1.99119 -0.11089,0.75109 -0.24215,1.49852 -0.33024,2.25269 -0.16587,0.84231 -0.23985,1.70222 -0.29887,2.55876 -0.12708,0.97382 -0.14981,1.96566 -0.11004,2.94521 -0.0332,1.00852 0.14673,2.01604 0.31423,3.00676 0.09,0.95294 0.38464,1.88862 0.57576,2.8273 0.14625,0.87744 0.40002,1.74038 0.64313,2.59554 0.16728,0.79234 0.42785,1.57217 0.6615,2.34542 0.2213,0.7568 0.4872,1.49959 0.8142,2.21791 0.27127,0.78553 0.61541,1.54547 0.91331,2.32145 0.3208,0.77838 0.69911,1.53032 1.01804,2.30943 0.36511,0.77958 0.71135,1.56826 1.13372,2.31952 0.45305,0.79036 0.88515,1.59638 1.281,2.41613 0.46587,0.79435 0.91298,1.59988 1.33676,2.41744 0.45004,0.79069 0.86743,1.60069 1.32818,2.38604 0.4761,0.74165 0.87778,1.53502 1.30449,2.30562 0.48974,0.74156 0.91906,1.52339 1.35155,2.29825 0.45047,0.70715 0.84391,1.45138 1.22283,2.19842 0.37172,0.68475 0.70925,1.38247 1.12563,2.04208 0.37962,0.59724 0.71917,1.21956 1.0582,1.84328 0.36786,0.56458 0.67653,1.16764 1.10112,1.6949 0.36228,0.51535 0.71197,1.03317 1.08318,1.54136 0.36913,0.49475 0.75717,0.97294 1.12799,1.46415 0.43654,0.48117 0.84923,0.98376 1.29313,1.45842 0.50802,0.54411 1.02151,1.08433 1.5603,1.5981 0.56217,0.58746 1.15633,1.14449 1.724,1.72641 0.64093,0.6586 1.31483,1.28426 1.95453,1.94418 0.66649,0.67392 1.34195,1.34189 2.05457,1.96721 0.62925,0.60718 1.31459,1.15413 1.99826,1.69796 0.53346,0.42677 1.0872,0.82907 1.64583,1.22213 0.63017,0.43095 1.23963,-0.46025 0.60946,-0.89121 z"
         id="path3156"
         style="fill:#241c1c;fill-opacity:1;fill-rule:nonzero;stroke:none" />
      <path
         inkscape:export-ydpi="144.019"
         inkscape:export-xdpi="144.019"
         inkscape:export-filename="/home/avp/src/projects/guile-ssh/doc/logo.png"
         inkscape:connector-curvature="0"
         d="m 178.7283,533.78076 c -0.1033,-0.72699 -0.16179,-1.46806 -0.17972,-2.20349 -0.0676,-1.12958 -0.0108,-2.26027 0.0121,-3.39037 0.0296,-1.35541 0.0459,-2.71114 0.051,-4.06685 0.0472,-1.33562 0.0981,-2.67118 0.20314,-4.00367 0.0965,-1.24211 0.27685,-2.46802 0.42276,-3.70528 0.16607,-1.24345 0.48066,-2.45325 0.78324,-3.66807 0.37821,-1.49312 0.90824,-2.93566 1.41247,-4.38867 0.59725,-1.77581 1.29956,-3.51245 1.94252,-5.27081 0.72932,-1.78392 1.55683,-3.52194 2.29615,-5.30054 0.74633,-1.66156 1.61509,-3.25778 2.47141,-4.86384 0.83354,-1.55272 1.9446,-2.91508 2.95419,-4.34855 1.08598,-1.41917 2.25287,-2.76851 3.4467,-4.09656 1.24952,-1.35387 2.52155,-2.68658 3.75863,-4.05219 1.35669,-1.50548 2.73763,-2.99159 4.05079,-4.53573 1.39469,-1.54117 2.74028,-3.12674 4.09884,-4.69995 1.2361,-1.39961 2.46845,-2.80226 3.81904,-4.09325 1.16716,-1.17716 2.46329,-2.20976 3.837,-3.13297 1.47778,-1.02131 3.05646,-1.89235 4.68387,-2.64944 1.79118,-0.8944 3.64053,-1.68497 5.50612,-2.41289 1.95877,-0.73942 3.88322,-1.52148 5.71736,-2.53373 1.26772,-0.85138 0.60923,-0.46908 1.97531,-1.14721 0.0974,-0.0227 0.0654,-0.16039 -0.0321,-0.13775 l 0,0 c -1.5521,-1e-5 -0.7738,0.0289 -2.33487,-0.0883 -2.22824,0.13412 -4.19464,0.67275 -6.26876,1.49039 -1.9439,0.75864 -3.88168,1.5236 -5.75636,2.44489 -1.69531,0.90667 -3.40954,1.78159 -5.00365,2.86403 -1.46891,1.0586 -2.89949,2.16907 -4.17767,3.45716 -1.32781,1.39741 -2.64709,2.8037 -3.87806,4.28875 -1.35391,1.57048 -2.69791,3.15022 -4.02475,4.74345 -1.34463,1.49705 -2.64008,3.03796 -4.00451,4.51738 -1.24839,1.37541 -2.47755,2.7689 -3.67786,4.18606 -1.19285,1.41153 -2.38126,2.83063 -3.45924,4.33294 -1.10167,1.46713 -2.01802,3.07465 -2.92692,4.66554 -0.93345,1.63257 -1.72166,3.34497 -2.43736,5.08257 -0.80139,1.78387 -1.43183,3.63541 -2.05424,5.48846 -0.67626,1.76942 -1.27928,3.56898 -1.85382,5.37399 -0.44447,1.49915 -0.83433,3.0175 -1.20784,4.53513 -0.3142,1.25382 -0.58127,2.52682 -0.74274,3.80922 -0.17648,1.25716 -0.23952,2.5139 -0.30332,3.78035 -0.0765,1.35094 -0.17462,2.70228 -0.1612,4.05644 -0.0321,1.35299 -0.0312,2.70654 -0.0688,4.05946 -0.0256,1.1529 -0.0267,2.3052 0.008,3.45798 0.0588,0.75458 0.10386,1.51078 0.16714,2.26384 0.0763,0.66186 1.01228,0.554 0.93601,-0.10786 z"
         id="path3160"
         style="fill:#241c1c;fill-opacity:1;fill-rule:nonzero;stroke:none" />
      <path
         inkscape:export-ydpi="144.019"
         inkscape:export-xdpi="144.019"
         inkscape:export-filename="/home/avp/src/projects/guile-ssh/doc/logo.png"
         inkscape:connector-curvature="0"
         d="m 251.67817,436.63194 c -0.67669,-0.0224 -1.35775,0.0679 -2.03442,0.11142 -1.00304,0.10524 -2.00686,0.1933 -3.01166,0.28702 -1.1338,0.0791 -2.27236,0.1339 -3.39298,0.33029 -1.19093,0.21035 -2.38864,0.3882 -3.58498,0.58014 -1.29303,0.20375 -2.60093,0.40305 -3.85542,0.78819 -1.43517,0.34666 -2.87613,0.66269 -4.30718,1.02689 -1.6362,0.31648 -3.24084,0.78289 -4.8328,1.27248 -1.58377,0.47948 -3.17136,0.95503 -4.72811,1.51619 -1.51223,0.49355 -3.04215,0.92939 -4.5535,1.42559 -1.55465,0.50079 -3.08149,1.08248 -4.60527,1.66895 -1.5864,0.59506 -3.10532,1.34431 -4.5971,2.14306 -1.52264,0.8018 -2.97469,1.72749 -4.46848,2.57897 -1.54173,0.98109 -3.0367,2.02961 -4.53073,3.08126 -1.63499,1.1591 -3.21722,2.38329 -4.76687,3.65325 -1.72224,1.47298 -3.24853,3.14304 -4.8046,4.78317 -1.89994,2.01445 -3.53808,4.22817 -5.12997,6.48659 -1.63551,2.85235 -3.3726,5.7473 -4.29952,8.92809 -0.22246,0.76341 -0.3627,1.54842 -0.54406,2.32264 -0.26865,0.75084 -0.5373,1.5017 -0.80597,2.25255 -0.0467,0.0885 0.0785,0.15442 0.12512,0.066 l 0,0 c 0.46812,-0.64618 0.93625,-1.29236 1.40438,-1.93854 0.53356,-0.58697 1.09705,-1.14807 1.60067,-1.76092 2.02802,-2.46804 3.37352,-5.41601 5.29328,-7.96295 1.45408,-2.1736 3.09453,-4.22001 4.81581,-6.18749 1.3715,-1.62208 2.81938,-3.19125 4.39488,-4.61823 1.41317,-1.29364 2.90212,-2.50567 4.44646,-3.63963 1.40718,-1.05238 2.8427,-2.07511 4.34613,-2.98567 1.36447,-0.92873 2.80178,-1.74376 4.24517,-2.54339 1.42004,-0.73094 2.86462,-1.41231 4.32937,-2.04912 1.44065,-0.61101 2.9059,-1.14905 4.40267,-1.6092 1.52988,-0.47339 3.05076,-0.97507 4.56733,-1.48899 1.55724,-0.47331 3.08297,-1.04203 4.64435,-1.50587 1.5647,-0.45313 3.13445,-0.89029 4.68972,-1.37364 1.42137,-0.35968 2.83022,-0.75786 4.2511,-1.11903 1.25673,-0.21829 2.48372,-0.59217 3.7269,-0.87119 1.16002,-0.26462 2.31439,-0.54129 3.48822,-0.72808 1.11173,-0.16701 2.20136,-0.45355 3.29952,-0.69119 0.97218,-0.19091 1.94605,-0.3665 2.92989,-0.48225 0.68658,-0.1089 1.39741,-0.15718 2.05786,-0.37848 0.96789,-0.14504 0.76276,-1.51386 -0.20514,-1.36881 z"
         id="path3162"
         style="fill:#241c1c;fill-opacity:1;fill-rule:nonzero;stroke:none" />
      <path
         inkscape:export-ydpi="144.019"
         inkscape:export-xdpi="144.019"
         inkscape:export-filename="/home/avp/src/projects/guile-ssh/doc/logo.png"
         inkscape:connector-curvature="0"
         d="m 234.01595,598.93791 c -0.95961,-0.22206 -1.95154,-0.26429 -2.92681,-0.4039 -1.6884,-0.20247 -3.35401,-0.52905 -5.0028,-0.94117 -2.01159,-0.47871 -4.00157,-1.05423 -5.94859,-1.7517 -2.02237,-0.70405 -3.99501,-1.56218 -5.91056,-2.51807 -2.24848,-1.11846 -4.46965,-2.25714 -6.81344,-3.16327 -0.45636,-0.1794 -0.9127,-0.3588 -1.36905,-0.53819 -0.0866,-0.0501 -0.1574,0.0723 -0.0708,0.12241 l 0,0 c 0.38544,0.30779 0.77088,0.61559 1.15633,0.92337 2.07641,1.57461 4.18565,2.74934 6.5633,3.81181 2.01247,0.85722 4.02366,1.7095 6.11866,2.35269 2.00822,0.60239 4.0061,1.23749 6.0462,1.72668 1.69234,0.37655 3.38069,0.78639 5.1007,1.01888 0.98976,0.10566 1.99442,0.26565 2.98992,0.17396 0.57522,0.0474 0.64218,-0.76614 0.067,-0.81349 z"
         id="path3166"
         style="fill:#241c1c;fill-opacity:1;fill-rule:nonzero;stroke:none" />
      <path
         inkscape:export-ydpi="144.019"
         inkscape:export-xdpi="144.019"
         inkscape:export-filename="/home/avp/src/projects/guile-ssh/doc/logo.png"
         sodipodi:nodetypes="cccccccscccsccccccccc"
         inkscape:connector-curvature="0"
         d="m 190.83151,571.19044 c -0.76507,-0.6976 -1.5273,-1.40066 -2.24782,-2.14643 -1.42134,-1.33672 -2.72198,-2.80059 -3.99417,-4.27876 -1.59423,-1.93437 -3.20124,-3.87058 -4.66423,-5.90636 -1.5601,-2.1511 -2.93492,-4.42396 -4.25798,-6.72566 -1.3263,-2.35918 -2.45624,-4.81033 -3.40317,-7.3439 -1.23538,-2.76052 -1.98816,-5.68034 -2.62151,-8.626 -0.52672,-2.28402 -0.7237,-4.63454 -1.32528,-6.90193 -0.9182,-3.46062 -0.26205,-0.14609 -0.87798,-3.68357 -0.0144,-0.099 -0.15431,-0.0786 -0.13994,0.0203 l 0,0 c 0.45892,3.94128 0.0525,-0.17033 0.22416,3.78614 0.10272,2.36683 0.63995,4.69232 1.06713,7.01381 0.69241,2.99501 1.53302,5.96051 2.73426,8.79616 1.20088,2.44996 2.39792,4.90458 3.73821,7.28216 1.31197,2.33721 2.72433,4.61674 4.27414,6.80476 1.47747,2.05839 2.91293,4.14424 4.59055,6.05192 1.28982,1.50724 2.59248,3.00178 4.01097,4.39083 0.79907,0.69484 9.91395,7.87151 10.77785,8.48539 0.39681,0.31976 -7.48865,-6.69882 -7.88548,-7.01854 z"
         id="path3168"
         style="fill:#241c1c;fill-opacity:1;fill-rule:nonzero;stroke:none" />
      <path
         inkscape:export-ydpi="144.019"
         inkscape:export-xdpi="144.019"
         inkscape:export-filename="/home/avp/src/projects/guile-ssh/doc/logo.png"
         inkscape:connector-curvature="0"
         d="m 239.30908,581.5439 c -0.90559,-0.0296 -1.80627,-0.12694 -2.71074,-0.19831 -1.72342,-0.2006 -3.42303,-0.54069 -5.10477,-0.96257 -2.24133,-0.5313 -4.43924,-1.20593 -6.61377,-1.96151 -2.50375,-0.83909 -4.91609,-1.92517 -7.29181,-3.07139 -2.88897,-1.36798 -5.50253,-3.22862 -8.37649,-4.61464 -0.4849,-0.32444 -0.96979,-0.64889 -1.45469,-0.97333 -0.0798,-0.0602 -0.16501,0.0526 -0.0852,0.11285 l 0,0 c 0.44813,0.37991 0.89627,0.75983 1.34445,1.1397 0.42005,0.40715 0.8102,0.84771 1.26077,1.22082 2.04342,1.69228 4.55184,2.78712 6.85489,4.05803 2.41464,1.1705 4.86779,2.25223 7.40072,3.14499 2.21556,0.74374 4.45382,1.43772 6.73881,1.9359 1.73495,0.34404 3.4691,0.7115 5.23176,0.8823 0.92361,0.11992 1.85678,0.19209 2.78607,0.21354 0.65505,0.0141 0.67503,-0.91226 0.02,-0.92638 z"
         id="path3172"
         style="fill:#241c1c;fill-opacity:1;fill-rule:nonzero;stroke:none" />
      <path
         inkscape:export-ydpi="144.019"
         inkscape:export-xdpi="144.019"
         inkscape:export-filename="/home/avp/src/projects/guile-ssh/doc/logo.png"
         inkscape:connector-curvature="0"
         d="m 289.493,569.78262 c 0.40169,-0.5894 0.85498,-1.13754 1.23722,-1.74073 0.59395,-0.91442 1.08314,-1.88628 1.58977,-2.84925 0.57723,-1.19479 1.0559,-2.43259 1.59881,-3.64232 0.4951,-1.256 0.97711,-2.51562 1.42541,-3.78904 0.38953,-1.15748 0.79591,-2.31298 1.07486,-3.5028 0.26986,-1.10428 0.49479,-2.23042 0.60267,-3.363 0.17453,-1.13248 0.26125,-2.27337 0.26868,-3.41869 0.0619,-1.15011 -0.0101,-2.30267 -0.065,-3.45194 -0.0616,-1.25126 -0.17953,-2.49402 -0.37258,-3.73172 -0.24671,-1.5675 -0.54623,-3.13382 -0.9887,-4.65895 -0.54818,-2.00122 -1.43346,-3.86392 -2.55656,-5.60055 -0.70415,-1.04476 -1.60289,-1.93093 -2.47027,-2.83622 -0.0622,-0.0783 -0.17293,0.01 -0.1107,0.088 l 0,0 c 0.67007,1.02683 1.31105,2.06693 1.87313,3.15822 0.90611,1.76673 1.77316,3.55617 2.36064,5.45934 0.45122,1.47979 0.95333,2.94671 1.13756,4.49145 0.13662,1.21983 0.26653,2.44235 0.31972,3.66895 0.0537,1.12945 0.0641,2.25892 0.0779,3.38926 -0.0613,1.11542 -0.11697,2.23098 -0.23536,3.34211 -0.18627,1.09187 -0.31554,2.19319 -0.59708,3.26808 -0.32794,1.15393 -0.62443,2.31697 -1.05147,3.44097 -0.4433,1.26325 -0.87799,2.52914 -1.37338,3.77338 -0.43823,1.23441 -0.9781,2.43133 -1.54498,3.61162 -0.42995,0.96798 -0.90569,1.92196 -1.47216,2.81809 -0.37948,0.55478 -0.7265,1.15649 -1.26563,1.57434 -0.35483,0.37979 0.18295,0.88146 0.53745,0.50143 z"
         id="path3176"
         style="fill:#241c1c;fill-opacity:1;fill-rule:nonzero;stroke:none" />
      <path
         inkscape:export-ydpi="144.019"
         inkscape:export-xdpi="144.019"
         inkscape:export-filename="/home/avp/src/projects/guile-ssh/doc/logo.png"
         inkscape:connector-curvature="0"
         d="m 305.8159,539.33163 c -0.21622,-0.90644 -0.58821,-1.76339 -0.93274,-2.62588 -0.7137,-1.47312 -1.52431,-2.89412 -2.30344,-4.33232 -0.98547,-1.72118 -2.15167,-3.32226 -3.24396,-4.97329 -1.15263,-1.64515 -2.4118,-3.20927 -3.61754,-4.81423 -1.17214,-1.49671 -2.40217,-2.94227 -3.62859,-4.39485 -1.1808,-1.3738 -2.49504,-2.61935 -3.81515,-3.85594 -1.4186,-1.25704 -2.91039,-2.41981 -4.41601,-3.56813 -1.88669,-1.37862 -3.88364,-2.55975 -5.99741,-3.55116 -2.66536,-1.04994 -5.33158,-2.09841 -7.98006,-3.19167 -0.88998,-0.34678 -2.1216,-0.85029 -3.03979,-1.11213 -0.53697,-0.15313 -1.09613,-0.2204 -1.63234,-0.37614 -0.53167,-0.1544 -1.04413,-0.36854 -1.56619,-0.55281 -0.0924,-0.0382 -0.14649,0.0924 -0.0541,0.13065 l 0,0 c 0.49966,0.2384 1.01368,0.44873 1.49894,0.71518 0.48899,0.26849 0.93204,0.61513 1.41912,0.88706 0.74934,0.41834 2.12928,1.02368 2.91424,1.37907 2.56575,1.14647 5.09404,2.38916 7.38624,4.03042 1.86786,1.20461 3.7846,2.34081 5.58288,3.6478 1.49645,1.04863 2.94494,2.16317 4.35111,3.33088 1.35655,1.08305 2.64896,2.24181 3.89459,3.45085 1.33928,1.28136 2.59866,2.64044 3.76633,4.07991 1.27388,1.50607 2.44208,3.10412 3.58007,4.71412 1.14924,1.54722 2.17754,3.18606 3.13199,4.85995 0.80504,1.34165 1.55136,2.73262 2.10693,4.19776 0.355,0.79563 0.64105,1.6169 0.94271,2.43346 0.35962,1.16825 2.01177,0.65965 1.65214,-0.50858 z"
         id="path3178"
         style="fill:#241c1c;fill-opacity:1;fill-rule:nonzero;stroke:none" />
      <path
         inkscape:export-ydpi="144.019"
         inkscape:export-xdpi="144.019"
         inkscape:export-filename="/home/avp/src/projects/guile-ssh/doc/logo.png"
         inkscape:connector-curvature="0"
         d="m 304.9565,523.98864 c -0.12033,-0.9044 -0.50297,-1.765 -0.85044,-2.60308 -0.72558,-1.69062 -1.79914,-3.18887 -2.93004,-4.62733 -0.81411,-1.01098 -1.73464,-1.98762 -2.86101,-2.66024 -4.75794,-2.84112 1.937,1.57527 -2.71457,-1.55669 -0.0757,-0.0654 -0.16818,0.0415 -0.0925,0.10693 l 0,0 c 0.34778,0.38482 0.74315,0.73144 1.04346,1.15436 0.28955,0.40773 0.45353,0.89252 0.71349,1.31973 0.63888,1.0499 1.44207,1.99738 2.21095,2.95105 1.01797,1.33912 2.02126,2.69239 2.85157,4.15913 0.41071,0.74949 0.74642,1.53908 1.17046,2.27779 0.36887,1.03144 1.82755,0.50977 1.45867,-0.52168 z"
         id="path3180"
         style="fill:#241c1c;fill-opacity:1;fill-rule:nonzero;stroke:none" />
      <path
         inkscape:export-ydpi="144.019"
         inkscape:export-xdpi="144.019"
         inkscape:export-filename="/home/avp/src/projects/guile-ssh/doc/logo.png"
         inkscape:connector-curvature="0"
         d="m 237.79839,589.17863 c 0.69897,-0.0749 1.40235,-0.0942 2.096,-0.21387 1.09972,-0.17296 2.19481,-0.37187 3.27894,-0.62497 1.17936,-0.28608 2.35325,-0.61473 3.49673,-1.02529 1.06652,-0.33104 2.13161,-0.68153 3.17237,-1.08715 1.0125,-0.31706 2.02469,-0.62344 3.05218,-0.88766 0.96904,-0.25992 1.94229,-0.50032 2.90527,-0.78365 0.87862,-0.24784 1.74968,-0.52917 2.61619,-0.8202 0.89352,-0.26186 1.76666,-0.6 2.60688,-1.00076 0.8907,-0.36416 1.72953,-0.83794 2.55507,-1.32888 0.80596,-0.50732 1.62572,-1.00199 2.38035,-1.58465 0.75631,-0.50683 1.472,-1.07172 2.18896,-1.63216 0.72094,-0.51311 1.35323,-1.13105 2.02601,-1.70126 0.64899,-0.59237 1.23872,-1.24317 1.81566,-1.90474 0.61779,-0.78506 1.29993,-1.51585 1.95259,-2.27186 0.87049,-1.00521 1.69537,-2.03911 2.49742,-3.09901 0.77454,-1.33889 1.98969,-2.54023 2.28136,-4.11023 0.0728,-0.39208 0.0609,-0.79524 0.0913,-1.19287 0.12956,-0.3558 0.25912,-0.7116 0.38867,-1.0674 0.046,-0.0888 -0.0796,-0.15383 -0.12553,-0.0651 l 0,0 c -0.21468,0.30816 -0.42929,0.61637 -0.64393,0.92456 -0.76821,0.56856 -1.07205,0.70297 -1.64155,1.45489 -0.70845,0.93538 -1.15589,2.0691 -1.90575,2.97973 -0.7051,1.11983 -1.42259,2.22787 -2.08064,3.37697 -0.47524,0.84838 -0.90176,1.73623 -1.50929,2.49993 -0.50907,0.66294 -1.06459,1.28877 -1.69651,1.83816 -0.61952,0.59918 -1.31133,1.11806 -1.96104,1.68435 -0.70623,0.55235 -1.43768,1.07061 -2.15497,1.60797 -0.78526,0.50155 -1.52436,1.07338 -2.33353,1.53897 -0.79746,0.4743 -1.60966,0.92201 -2.4484,1.31968 -0.84024,0.34129 -1.67721,0.68896 -2.52967,0.99952 -0.85828,0.28815 -1.71873,0.56562 -2.58058,0.83929 -0.9573,0.28312 -1.91107,0.57462 -2.878,0.82221 -1.03342,0.29534 -2.07803,0.56065 -3.08408,0.94154 -1.06435,0.32378 -2.09782,0.74665 -3.14872,1.11164 -1.14936,0.32503 -2.29149,0.67044 -3.46409,0.90242 -1.07387,0.22352 -2.14711,0.45279 -3.23358,0.60818 -0.68704,0.0936 -1.35072,0.29607 -2.03869,0.38444 -0.40106,0.04 -0.34448,0.60721 0.0566,0.56719 z"
         id="path3194"
         style="fill:#241c1c;fill-opacity:1;fill-rule:nonzero;stroke:none" />
      <path
         inkscape:export-ydpi="144.019"
         inkscape:export-xdpi="144.019"
         inkscape:export-filename="/home/avp/src/projects/guile-ssh/doc/logo.png"
         inkscape:connector-curvature="0"
         d="m 220.50052,564.01292 c -0.4675,-0.45944 -0.92561,-0.92097 -1.38033,-1.3949 -0.63411,-0.63963 -1.19928,-1.34359 -1.7786,-2.03233 -0.52204,-0.62545 -1.00617,-1.28062 -1.52547,-1.90811 -0.43993,-0.58577 -0.918,-1.14224 -1.35299,-1.73172 -0.35928,-0.51417 -0.7773,-0.97656 -1.15758,-1.47525 -0.35982,-0.35856 -0.59105,-0.83385 -0.95115,-1.18159 -0.26624,-0.31199 -0.4572,-0.68626 -0.71259,-1.00287 -0.22359,-0.33789 -0.33053,-0.73615 -0.53663,-1.08162 -0.18617,-0.44531 -0.33864,-0.89953 -0.54264,-1.33593 -0.15338,-0.46598 -0.25028,-0.95614 -0.44423,-1.40515 -0.14318,-0.49712 -0.24186,-1.01273 -0.40462,-1.50244 -0.1139,-0.50244 -0.28602,-1.00035 -0.45167,-1.49123 -0.0955,-0.52377 -0.33646,-1.00198 -0.50954,-1.50093 -0.16624,-0.47801 -0.35742,-0.94663 -0.53262,-1.422 -0.10246,-0.4294 -0.26149,-0.84376 -0.3745,-1.27209 -0.0991,-0.39218 -0.24398,-0.7749 -0.30921,-1.17338 -0.11116,-0.42242 -0.27522,-0.8281 -0.38254,-1.25147 -0.13911,-0.41669 -0.2957,-0.84068 -0.35594,-1.2772 -0.12751,-0.42286 -0.19302,-0.85748 -0.2183,-1.29767 -0.0244,-0.48994 -0.0258,-0.98709 0.0108,-1.47775 -0.022,-0.61546 0.0102,-1.22775 0.0923,-1.83835 0.0643,-0.69357 0.1149,-1.3945 0.218,-2.084 0.0555,-0.78419 0.0774,-1.57239 0.18068,-2.353 0.15263,-0.85634 0.1295,-1.72793 0.22618,-2.59023 0.0722,-0.98753 0.26936,-1.9585 0.42906,-2.93367 -0.14176,-0.77729 -0.0388,-0.38261 -0.32218,-1.18052 0.0241,-0.0971 -0.11322,-0.13108 -0.13728,-0.034 l 0,0 c -0.63427,0.60535 -0.36296,0.27934 -0.82545,0.96838 -0.22187,1.01867 -0.31535,2.05642 -0.37064,3.09672 -0.0214,0.86913 -0.12673,1.73572 -0.0791,2.60584 0.005,0.77589 -0.0584,1.55242 -0.13824,2.32245 -0.0268,0.69772 -0.14845,1.39302 -0.22109,2.08718 -0.0311,0.62872 -0.0908,1.25364 -0.18046,1.87608 -0.0151,0.54601 -0.0667,1.08984 0.003,1.63478 0.0579,0.49017 0.11454,0.97796 0.20294,1.46383 0.14751,0.44765 0.2329,0.9161 0.37993,1.36499 0.15187,0.39069 0.26061,0.79566 0.36616,1.20071 0.14886,0.38588 0.20859,0.80285 0.34505,1.1955 0.14135,0.42172 0.24099,0.85571 0.39058,1.27284 0.11821,0.48668 0.22577,0.97491 0.34407,1.46119 0.11881,0.51004 0.15854,1.03992 0.34633,1.53327 0.10915,0.49114 0.21343,0.98498 0.33213,1.4711 0.0861,0.52584 0.2549,1.04353 0.39106,1.55907 0.077,0.52823 0.28146,1.03777 0.48441,1.53045 0.13936,0.4925 0.34404,0.9627 0.54952,1.43162 0.13757,0.45259 0.39864,0.86946 0.62382,1.28236 0.19055,0.42214 0.48975,0.81009 0.75549,1.18728 0.25115,0.45887 0.66789,0.81536 0.96747,1.24781 0.40799,0.47172 0.77789,0.96878 1.19932,1.42803 0.48039,0.55132 0.92274,1.13487 1.3954,1.69265 0.50581,0.65603 1.05593,1.27619 1.59724,1.90277 0.58469,0.69408 1.18418,1.37721 1.72852,2.10381 0.42111,0.53961 0.82916,1.08382 1.27921,1.5982 0.91184,0.95928 2.26848,-0.33021 1.35664,-1.28953 z"
         id="path3198"
         style="fill:#241c1c;fill-opacity:1;fill-rule:nonzero;stroke:none" />
      <path
         inkscape:export-ydpi="144.019"
         inkscape:export-xdpi="144.019"
         inkscape:export-filename="/home/avp/src/projects/guile-ssh/doc/logo.png"
         inkscape:connector-curvature="0"
         d="m 229.21029,547.44167 c -0.48643,-0.40297 -0.9182,-0.85758 -1.36113,-1.30695 -0.74071,-0.75692 -1.37478,-1.60232 -2.00665,-2.44908 -0.66067,-1.28243 -1.75558,-2.23615 -2.56914,-3.39592 -0.0417,-0.0909 -0.17024,-0.0319 -0.1285,0.059 l 0,0 c 0.26725,1.03692 0.15854,0.51108 0.32489,1.57779 0.22815,0.93973 0.77229,1.7459 1.33019,2.51716 0.64362,0.90757 1.3381,1.78169 2.08558,2.6062 0.45823,0.5001 0.94902,0.97462 1.46918,1.40888 0.71928,0.60512 1.57505,-0.41212 0.85573,-1.01727 z"
         id="path3212"
         style="fill:#241c1c;fill-opacity:1;fill-rule:nonzero;stroke:none" />
      <path
         inkscape:export-ydpi="144.019"
         inkscape:export-xdpi="144.019"
         inkscape:export-filename="/home/avp/src/projects/guile-ssh/doc/logo.png"
         inkscape:connector-curvature="0"
         d="m 247.28132,559.80268 c 0.43558,-0.20662 0.87429,-0.41415 1.32343,-0.59011 0.58362,-0.26722 1.13943,-0.5897 1.71436,-0.87325 0.5745,-0.29898 1.15839,-0.56926 1.76166,-0.80469 0.63117,-0.2445 1.25294,-0.50946 1.89627,-0.72161 0.62918,-0.23301 1.23148,-0.52453 1.85257,-0.77561 0.56098,-0.26581 1.09572,-0.57675 1.63524,-0.88117 0.5221,-0.30969 1.0095,-0.66718 1.5037,-1.01768 0.47915,-0.37062 0.91314,-0.7907 1.34378,-1.2154 0.40637,-0.43514 0.79724,-0.88157 1.16798,-1.34702 0.38829,-0.45849 0.76152,-0.9332 1.10554,-1.42853 0.38958,-0.61974 0.74832,-1.25956 1.06643,-1.9191 0.4464,-0.84099 0.79828,-1.72468 1.11872,-2.61987 0.38755,-1.02989 0.7049,-2.0891 0.95732,-3.16088 0.29508,-1.16869 0.51349,-2.36339 0.50596,-3.57064 0.0188,-0.6776 -0.0528,-1.43672 -0.33854,-2.06503 -0.57177,-0.9084 -0.32835,-0.43832 -0.73495,-1.40786 -0.0149,-0.0691 -0.11265,-0.0481 -0.0978,0.0211 l 0,0 c 0.006,0.25347 0.0484,0.5088 0.0172,0.76041 -0.0313,0.25265 -0.15701,0.48592 -0.20255,0.7364 -0.11128,0.61227 -0.10525,1.2681 -0.11232,1.88726 -0.11573,1.09796 -0.18749,2.20041 -0.48462,3.27115 -0.27654,1.01267 -0.55336,2.02359 -0.90417,3.01301 -0.32195,0.84369 -0.65331,1.68291 -1.01509,2.51043 -0.29768,0.61309 -0.57177,1.23711 -0.92883,1.81937 -0.27206,0.48665 -0.55191,0.96461 -0.8865,1.40906 -0.3447,0.43316 -0.68566,0.8713 -1.07961,1.26169 -0.38013,0.40191 -0.78397,0.7842 -1.21697,1.12854 -0.42221,0.3685 -0.87541,0.70673 -1.34937,1.00558 -0.48667,0.31999 -1.00091,0.60202 -1.5249,0.85641 -0.56386,0.31463 -1.17021,0.54963 -1.76719,0.79325 -0.62617,0.28968 -1.27836,0.51366 -1.89848,0.81739 -0.5984,0.29577 -1.20168,0.57675 -1.78499,0.90191 -0.53946,0.3081 -1.10023,0.58745 -1.66813,0.83808 -0.43821,0.22265 -0.90221,0.39325 -1.35166,0.59255 -0.54794,0.26618 -0.1715,1.04108 0.37643,0.77491 z"
         id="path3214"
         style="fill:#241c1c;fill-opacity:1;fill-rule:nonzero;stroke:none" />
    </g>
  </g>
  <g
     inkscape:groupmode="layer"
     id="layer9"
     inkscape:label="bubbles-color"
     style="display:inline" />
  <g
     inkscape:groupmode="layer"
     id="layer8"
     inkscape:label="bubbles"
     style="display:inline">
    <g
       id="g5032">
      <path
         inkscape:connector-curvature="0"
         id="path3493"
         d="m 352.46331,318.88263 c -1.83672,-0.031 -3.71443,0.58248 -5.40625,1.3125 -4.77288,1.5125 -8.50485,4.81628 -11.8125,8.46875 -1.13,-1.08688 -2.50957,-1.77762 -4.3125,-1.375 -4.3755,-0.32153 -8.0868,2.32261 -11.6875,4.40625 -4.8327,4.96308 -10.64639,9.68125 -12.40625,16.71875 -1.65647,3.45314 -1.67611,7.32236 -1.0625,11.03125 1.55797,6.1207 4.86089,11.84426 9.46875,16.1875 2.64078,1.72168 5.31397,3.44598 8.09375,4.9375 2.9763,1.65757 6.23849,2.72498 9.59375,3.1875 3.6061,0.6189 7.30138,0.79724 10.96875,0.96875 3.88159,-0.14516 7.82199,-0.0649 11.53125,-1.40625 4.10285,-0.68146 7.163,-3.59978 10.09375,-6.3125 3.68894,-2.84221 5.88729,-6.99193 7.8125,-11.125 1.59402,-3.40709 3.16075,-7.0786 2.9375,-10.90625 0.7454,-3.8904 -0.0451,-7.84291 -1.28125,-11.5625 -0.61537,-3.7852 -3.36766,-6.56863 -5.25,-9.75 -2.50785,-2.66094 -4.55022,-5.72039 -7.0625,-8.375 -2.04801,-2.19132 -3.85697,-4.87792 -7,-5.53125 -1.02513,-0.60873 -2.11672,-0.85642 -3.21875,-0.875 z"
         style="fill:#b3defd;fill-opacity:1;fill-rule:nonzero;stroke:none;display:inline" />
      <path
         style="fill:#336699;fill-opacity:1;fill-rule:nonzero;stroke:none"
         d="m 341.93205,324.35138 c -9.76556,-0.008 -18.79093,5.4437 -26.0625,11.6875 -6.50156,5.05409 -5.66645,13.76549 -5.25,21.0625 0.21199,6.07407 1.7699,15.41931 8.65625,16.4375 0.49558,0.70736 1.10242,0.99835 1.6875,1 0.26225,0.56252 0.60737,1.0486 1.0625,1.40625 4.18134,5.30787 9.74984,9.92324 16.125,12.25 9.74359,1.07702 19.38626,-3.56071 26.84375,-9.5 11.35312,-7.21254 15.49221,-23.08553 9.9375,-35.1875 -5.62293,-10.49743 -16.94896,-17.67999 -28.78125,-18.8125 -1.42272,-0.23772 -2.82367,-0.34254 -4.21875,-0.34375 z m -2.53125,4.3125 c 9.80498,-0.35672 20.54577,3.47126 27,9.40625 7.10828,5.47736 8.37849,16.0517 5.375,24.59375 -1.64826,6.44385 -6.26835,12.61704 -11.5,16.25 -9.45988,3.9424 -16.5642,6.10472 -22,4.875 -5.67928,-2.73358 -11.59237,-6.61152 -14.375,-12.5 -0.0356,-0.0445 -0.0587,-0.0826 -0.0937,-0.125 -0.0252,-1.13232 -0.78491,-2.19521 -2.78125,-2.46875 -5.9941,-2.45054 -6.8,-8.82545 -7.40625,-14.1875 -2.02582,-8.23083 5.31148,-18.09868 11.875,-21.5625 3.88359,-2.76205 8.77031,-4.0944 13.90625,-4.28125 z"
         id="path3054"
         inkscape:connector-curvature="0" />
      <path
         style="fill:#336699;fill-opacity:1;fill-rule:nonzero;stroke:none"
         d="m 346.19085,339.01062 c -1.4758,-0.68549 -3.11954,-0.99203 -4.92186,-0.76667 l -0.57222,0.23944 -0.208,0.48984 c 5.41522,0.77477 11.77508,6.47339 9.32253,13.20458 -0.0751,0.27099 -0.18181,0.61384 -0.27656,0.9093 -2.43069,-0.33032 -8.41699,1.62248 -9.8333,1.68098 -4.12021,0.28617 -15.55009,6.04299 -9.52911,9.29665 3.77951,-6.34257 11.7666,-6.65354 18.37931,-8.15139 -1.93687,5.29529 -4.43014,12.05911 0.27018,14.36593 0.82615,-4.33798 0.0105,-11.10403 3.10669,-15.97009 2.34239,-5.51265 -0.46687,-12.85045 -5.73761,-15.29854 z"
         id="path3064"
         inkscape:connector-curvature="0" />
      <path
         sodipodi:nodetypes="ccccc"
         inkscape:connector-curvature="0"
         id="path3282"
         d="m 367.90423,347.44063 c 1.22595,3.53231 1.81148,10.16764 -0.11606,13.41979 -0.6874,6.28034 0.19854,-7.50247 -1.81289,-12.73809 -1.65257,-4.28364 -8.22449,-12.16957 -11.31774,-12.0784 5.2743,0.1355 12.20858,7.6194 13.24669,11.3967 z"
         style="fill:#eeeeee;fill-opacity:1;fill-rule:nonzero;stroke:none" />
    </g>
    <g
       id="g5045">
      <path
         style="fill:#b3defd;fill-opacity:1;fill-rule:nonzero;stroke:none;display:inline"
         d="m 373.35453,391.42094 c -1.69047,0.24128 -3.24992,0.93377 -4.48149,2.29963 -1.46326,1.78143 -2.50466,3.84993 -3.32591,6.01584 -1.91874,-1.16534 -4.5785,-0.89682 -6.08559,1.01491 -1.42887,2.02276 -2.5224,4.27348 -4.09091,6.21772 -1.59061,1.89489 -2.64778,4.12115 -3.3416,6.48847 -2.08591,4.73372 -0.52261,10.13482 2.05715,14.33539 1.8212,2.59668 3.32573,5.64697 6.10475,7.36828 3.94866,2.93525 8.86665,4.66404 13.80472,4.59078 4.7994,0.12377 9.26744,-1.94549 13.28821,-4.37093 3.3629,-3.47902 6.54156,-7.524 7.52881,-12.37034 0.79446,-2.57058 -0.12033,-5.1578 0.0739,-7.76437 -0.62466,-2.32661 -0.60857,-4.63606 0.0239,-7.00568 0.49004,-3.19648 -1.4219,-5.95211 -3.07576,-8.48675 -1.33285,-1.67995 -3.01409,-3.13337 -4.63173,-4.56306 -2.00539,-1.85653 -4.70379,-2.38772 -7.24727,-3.07754 -2.05149,-0.59715 -4.42777,-1.00261 -6.60124,-0.69235 z"
         id="path3491"
         inkscape:connector-curvature="0" />
      <g
         style="fill:#336699"
         transform="matrix(0.99506799,-0.09919524,0.09919524,0.99506799,-65.181316,77.455838)"
         id="g3088">
        <path
           style="fill:#336699;fill-opacity:1;fill-rule:nonzero;stroke:none"
           d="m 377.15625,392.875 c -7.44444,0.33715 -14.5615,4.63183 -19.65625,10.03125 -6.08173,3.74127 -7.1626,12.03611 -3.6875,17.9375 0.1646,0.25654 0.34421,0.44523 0.5,0.625 0.18346,2.76506 2.81947,8.14454 4.375,9.46875 4.36167,6.69307 13.31285,6.48586 20.0625,4.25 7.79343,-3.8552 13.91787,-11.2595 16.625,-19.5 3.39042,-8.55531 -2.17847,-18.92297 -10.71875,-21.71875 -2.48313,-0.87639 -5.01852,-1.20613 -7.5,-1.09375 z m -1.5,2.6875 c 6.46269,4.5e-4 13.36414,2.56932 16.34375,7.65625 4.84541,6.20606 0.95139,15.55465 -3.46875,21 -3.76149,5.24194 -9.94118,10.13539 -16.6875,10 -7.37027,0.97932 -12.99242,-7.54865 -14.8125,-13.71875 -0.0613,-0.0385 -0.0973,-0.0587 -0.15625,-0.0937 0.44975,-1.88931 0.14714,-4.73981 -1.34375,-6.03125 -2.35281,-7.27202 5.37458,-12.01745 9.90625,-16.03125 2.61146,-1.85149 6.34114,-2.78152 10.21875,-2.78125 z"
           transform="translate(26.22914,-30.33271)"
           id="path3052"
           inkscape:connector-curvature="0" />
        <path
           style="fill:#336699;fill-opacity:1;fill-rule:nonzero;stroke:none"
           d="m 371.9375,402.90625 c -0.96369,0.008 -1.94207,0.24993 -2.96875,0.71875 -2.38918,2.73483 2.60579,1.03121 3.71875,1.375 3.49937,0.8745 4.4104,3.13076 4.5625,5.8125 -5.35538,1.39601 -9.54883,6.88476 -8.875,12.5 3.72015,-0.11694 2.69433,-9.16124 8.84375,-10.40625 -0.10871,3.09379 -0.51635,6.39858 1.15625,8.75 4.9901,3.18954 -0.33547,-5.08008 1.28125,-7.53125 1.40156,-5.20547 -2.51483,-11.26066 -7.71875,-11.21875 z"
           transform="translate(26.22914,-30.33271)"
           id="path3060"
           inkscape:connector-curvature="0" />
      </g>
      <path
         style="fill:#eeeeee;fill-opacity:1;fill-rule:nonzero;stroke:none"
         d="m 388.49344,417.86724 c -0.34023,1.55003 -0.55548,3.15246 -1.43224,4.62005 -0.28306,-0.0531 -0.006,-0.41136 -0.0234,-0.5993 0.3586,-1.64338 0.40997,-3.79199 0.16339,-5.44144 -0.62251,-3.89993 -2.31299,-6.32717 -2.90546,-6.94581 -0.62486,-0.7015 -1.37491,-1.35295 -1.82346,-2.13528 0.34122,0.0355 -3.54367,-1.69596 -3.05173,-1.42793 6.49646,0.41099 9.75614,6.95654 9.07276,11.92974 z"
         id="path3284"
         inkscape:connector-curvature="0"
         sodipodi:nodetypes="ccccccccc" />
    </g>
    <g
       id="g5038">
      <path
         style="fill:#b3defd;fill-opacity:1;fill-rule:nonzero;stroke:none;display:inline"
         d="m 350.03299,452.60352 c -1.84354,0.0157 -4.15721,0.50151 -5.46875,1.78125 -2.08307,-0.24794 -3.96473,1.14493 -4.96875,2.875 -1.37741,2.8408 -0.50305,6.07574 0.0937,9 0.49094,1.38217 0.9548,2.77909 1.625,4.09375 1.13921,1.75754 2.66254,3.31192 4.4375,4.4375 2.57799,1.43896 5.64822,1.55526 8.53125,1.65625 3.00411,0.27637 5.99047,-0.78964 8.40625,-2.53125 1.58456,-1.34491 3.21853,-2.85448 3.96875,-4.84375 0.39419,-1.64034 -0.0669,-3.38865 0.625,-5 0.34591,-1.38984 1.61302,-2.71035 0.875,-4.21875 -0.40046,-1.77256 -1.94939,-2.95676 -3.46875,-3.78125 -1.44346,-0.53971 -3.07609,-1.13374 -4.46875,-0.1875 -0.56601,0.47509 -2.31165,0.94245 -3.90625,1.5 -0.87223,-1.73775 -1.73373,-3.42536 -3.78125,-4.375 -0.44903,-0.25498 -1.39387,-0.41567 -2.5,-0.40625 z"
         id="path3495"
         inkscape:connector-curvature="0" />
      <g
         style="fill:#336699;display:inline"
         transform="translate(-61.228833,35.93544)"
         id="g3093">
        <path
           style="fill:#336699;fill-opacity:1;fill-rule:nonzero;stroke:none"
           d="m 410.44524,433.98364 c 2.59791,6.05099 14.05473,9.06371 15.42335,-0.46451 3.68856,-9.19388 -8.20367,-16.14805 -14.81453,-10.98889 -6.74085,2.78797 -2.90469,10.33006 -0.73202,13.18003 -3.05946,4.24558 -5.68903,-3.62424 -5.65877,-6.55555 -0.0613,-7.17032 8.54661,-11.73158 14.90994,-10.16549 6.25205,0.89061 9.7667,8.39537 8.60265,14.14414 -1.49863,6.48077 -7.87621,11.39749 -14.43676,8.19682 -3.45553,0.31683 -9.85522,-10.69669 -3.29386,-7.34655 z"
           id="path3050"
           inkscape:connector-curvature="0"
           sodipodi:nodetypes="ccccccccc" />
        <path
           inkscape:connector-curvature="0"
           id="path3056"
           transform="translate(60.574325,-33.363168)"
           d="m 354.78125,457.84375 c -0.33424,0.018 -0.71977,0.0687 -1.125,0.15625 L 353,458.28125 l -0.1875,0.5625 c 1.962,0.39443 3.57312,1.36934 3.96875,3.125 -1.66925,0.55501 -4.62669,3.30855 -4.53125,4.5 0.32455,5.28662 0.76525,-2.66691 4.5625,-2.875 -0.0506,0.32037 -0.13461,0.64277 -0.25,1 0.26277,3.85118 4.57475,6.3477 2.8125,2.5 -2.15416,-2.38612 0.41983,-9.51952 -4.59375,-9.25 z"
           style="fill:#336699;fill-opacity:1;fill-rule:nonzero;stroke:none" />
      </g>
      <path
         sodipodi:nodetypes="cccccc"
         inkscape:connector-curvature="0"
         id="path3292"
         d="m 363.94186,465.57729 c 0.0902,0.87115 -0.4911,2.11677 -0.53762,2.98667 -0.17838,0.22856 -0.24608,-0.1232 -0.1974,-0.2462 0.0148,-0.97491 -0.0224,-2.16453 -0.15921,-3.13145 -0.33606,-1.91046 -1.60892,-3.21939 -3.07575,-4.6133 2.57249,1.07111 4.0936,2.70084 3.96998,5.00428 z"
         style="fill:#eeeeee;fill-opacity:1;fill-rule:nonzero;stroke:none;display:inline" />
    </g>
  </g>
  <g
     inkscape:groupmode="layer"
     id="layer5"
     inkscape:label="text-shadow">
    <g
       id="g4940"
       inkscape:export-filename="/home/avp/src/projects/guile-ssh/doc/logo.png"
       inkscape:export-xdpi="151.23"
       inkscape:export-ydpi="151.23">
      <path
         style="fill:#e3dbdb;fill-opacity:1;fill-rule:nonzero;stroke:none"
         d="m 418.84375,552.65625 c -0.77406,-0.0543 -1.9838,0.37214 -3.71875,1.46875 -1.17172,4.20463 -4.00735,6.479 -5.84375,10.03125 -1.89161,2.71814 -2.18976,2.5226 -3.84375,4.34375 -4.89187,3.3052 -4.24249,3.5181 -8.1875,6.1875 -2.83732,0.78177 -6.75788,-4.46661 -8.9375,-7.4375 0.45853,-3.28332 -3.06245,-5.1636 -3.09375,-8.375 -3.54862,-5.21257 -3.49513,2.13854 -4.90625,0.53125 -0.81046,2.42717 -2.85634,4.78829 -3.65625,6.9375 -2.52261,1.15863 -3.57408,5.68167 -4.8125,5.4375 -4.31655,3.32657 -3.29465,4.5375 -7.90625,3.53125 -7.65914,-0.49964 -7.03085,-10.33876 -9,-15.78125 -3.74606,-2.19766 -12.78137,11.1769 -14.75,14.3125 -1.27934,0.88423 -2.58088,1.71632 -3.90625,2.5 -1.8689,0.94894 -3.87592,1.57474 -5.90625,1.34375 -4.30776,-4.10461 -7.14875,-11.9515 -6.74492,-18.079 -5.02269,-2.826 -7.55013,4.4152 -5.02539,6.87627 2.34024,0.45805 3.87948,4.05167 4.62041,5.51396 -1.6522,3.20009 4.83346,10.95109 8.2749,10.12627 7.93882,-2.18766 13.20751,-9.80807 20.27617,-13.94765 4.50241,-1.02249 3.11485,9.0883 9.81758,10.88515 4.97657,1.27456 8.37307,-1.311 11.125,-2.78125 3.72164,-4.21994 6.9274,-5.22284 8.6875,-10.375 0.46708,-0.239 0.82381,-0.70025 1.15625,-1.25 2.14438,1.95884 1.01723,4.95243 3.3125,7.03125 3.14406,5.06442 10.09052,10.21629 15.375,5.46875 2.91975,-2.4028 7.32229,-5.53767 8.1875,-6.1875 2.50203,-1.73723 3.73718,-4.4486 5.28125,-6.78125 0.6804,0.24541 1.40801,0.39232 2.09375,0.4375 2.45955,5.66518 9.76925,8.99582 15.90625,7.96875 3.85639,-1.33383 8.72891,-0.29173 12.4375,-1.96875 l 0.34375,1.46875 c 5.89425,4.75111 14.40436,5.19459 21.46875,3.34375 2.01536,-0.12797 7.18629,-4.30927 6.15625,-3.53125 3.31915,-1.97779 1.96271,-4.70696 -0.1875,-4.46875 -0.94852,0.10508 -2.04059,0.79133 -2.96875,2.375 -0.50039,0.26123 -3.14235,1.98111 -4.09375,2.125 -6.12659,2.32796 -13.24706,0.87512 -18.6875,-2.59375 l -0.0625,0 c 0.24174,-0.21871 0.46464,-0.4556 0.6875,-0.71875 1.65178,-3.53119 -3.45835,-2.4735 -4.5625,-0.65625 -5.70129,-0.69851 -11.10519,2.41579 -16.71875,0.71875 -2.76807,-0.30208 -4.65275,-1.99262 -5.875,-4.1875 2.18602,-0.50637 1.09756,-1.91861 -1.1875,-2.9375 -0.22304,-0.8249 -0.3783,-1.66452 -0.46875,-2.5 l -0.53125,-0.0313 c 1.53449,-2.88407 2.39097,-6.23371 0.375,-6.375 z m -34.375,5.5 c 0.0356,-0.0358 0.0938,0.0388 0.125,0.28125 -0.0981,0.0553 -0.15647,0.0735 -0.25,0.125 0.0453,-0.22165 0.0917,-0.3728 0.125,-0.40625 z"
         id="path4825"
         inkscape:connector-curvature="0"
         sodipodi:nodetypes="ccccccccccccccccccccccccccccccccccscccccccccccsccccc" />
      <path
         style="fill:#e3dbdb;fill-opacity:1;fill-rule:nonzero;stroke:none"
         d="M 422.59375 509.8125 C 421.68965 509.82282 420.70275 510.15304 419.65625 510.96875 C 419.70683 512.29695 420.2444 513.00903 420.96875 513.53125 C 420.74858 513.62928 420.51174 513.73247 420.28125 513.875 C 420.47529 518.20138 422.57252 515.10936 423.53125 517.8125 C 424.80933 520.14793 426.14583 527.90075 428.09375 521.1875 C 428.06717 521.0162 428.00453 520.809 427.96875 520.625 C 430.12259 519.89473 427.53327 509.75614 422.59375 509.8125 z "
         id="path4833" />
      <path
         style="fill:#e3dbdb;fill-opacity:1;fill-rule:nonzero;stroke:none"
         d="M 453.96875 534.5625 C 453.60877 534.56207 453.22554 534.60036 452.84375 534.65625 C 448.83234 534.22255 447.1587 537.45716 446 541 C 445.18477 542.2404 444.51619 543.33682 444.25 543.8125 C 443.57853 546.35686 443.58672 547.61797 444 548.03125 C 443.2866 552.36273 443.2743 556.9572 444.6875 561.0625 C 449.92876 560.19598 445.26842 553.01974 447.21875 549.375 C 447.38099 548.24963 447.97604 546.33284 448.59375 544.4375 C 450.28382 542.31718 451.93035 539.8301 452.5625 538.4375 C 452.54792 538.26543 452.52044 538.15344 452.5 538 C 453.5443 538.00645 454.64294 538.24292 455.6875 538.40625 C 458.60493 541.68318 458.10558 546.95544 457.125 550.6875 C 457.89532 556.66199 463.21495 549.15774 461.8125 545.84375 C 462.2584 540.68262 459.36847 534.56891 453.96875 534.5625 z "
         id="path4839" />
      <path
         inkscape:connector-curvature="0"
         id="path4851"
         d="m 488.08814,549.74897 c 6.53014,-0.50677 12.57423,-3.34687 18.87263,-4.28838 3.04451,4.15054 -2.87204,3.69043 -5.25037,4.95057 -3.44186,0.64709 -16.56051,6.55715 -13.62226,-0.66219 z"
         style="fill:#e3dbdb;fill-opacity:1;fill-rule:nonzero;stroke:none" />
      <path
         inkscape:connector-curvature="0"
         id="path4853"
         d="m 535.25186,510.98186 c -1.81468,-3.47679 -5.00995,-8.35868 -9.42562,-6.43845 -1.90197,1.52485 -1.68015,1.6358 -3.06896,2.76139 -2.28371,3.38368 -3.83534,6.97446 -1.74778,10.82228 2.57825,8.79861 -5.32216,2.13482 -4.32618,-3.19865 -0.12425,-4.03051 2.28172,-7.91723 4.89561,-10.81793 0.01,0.17974 2.86679,-3.25107 4.72366,-3.14556 5.24366,-0.82117 10.08455,3.7451 11.67408,8.42378 l -1.27818,0.94114 -1.44717,0.65207 5.4e-4,-7e-5 z"
         style="fill:#e3dbdb;fill-opacity:1;fill-rule:nonzero;stroke:none" />
      <path
         style="fill:#e3dbdb;fill-opacity:1;fill-rule:nonzero;stroke:none"
         d="m 520.25,526.34375 c -2.79784,0.5976 -0.42891,2.89023 0.68528,3.89967 1.27283,1.45439 2.8074,2.58199 4.07244,4.04328 4.1215,3.64042 9.57826,5.20517 13.92201,8.52498 3.79399,2.14959 9.08319,-0.023 5.97652,10.87582 -0.0839,2.28345 -1.94526,4.17076 -1.74052,6.47431 0.49366,1.14094 2.02884,1.02933 0.50695,2.05354 -1.47732,1.3628 -2.16548,3.63688 -4.07444,4.42545 -4.69111,2.06803 -9.67543,3.41361 -14.72324,4.26545 -2.83583,-0.3575 -6.12651,0.82226 -8.58335,-1.09493 -0.65599,-2.6623 -4.66428,-0.31487 -3.14245,1.74316 1.18963,1.99685 3.7631,2.06095 5.79996,2.49353 6.86945,0.84766 13.77187,-1.04949 20.06154,-3.68727 2.47819,-1.03425 4.81579,-2.69138 5.97829,-5.1824 1.75403,-2.23632 3.39317,-4.59658 4.26101,-7.33459 -0.87169,-1.6171 -0.0849,-3.15896 -0.0502,-4.91633 0.12027,-4.70644 -2.13568,-9.40973 -5.96351,-12.17272 -5.37956,-4.64924 -13.22841,-5.69056 -17.79479,-11.39394 -0.59971,-1.10923 -1.15553,-1.94182 -2.31655,-1.04826 -0.77265,-0.88308 -1.76354,-1.58308 -2.875,-1.96875 z"
         id="path4857"
         inkscape:connector-curvature="0"
         sodipodi:nodetypes="ccccccccccccccccccccc" />
      <path
         inkscape:connector-curvature="0"
         id="path4859"
         d="m 572.98942,505.08835 c -7.701,-0.37563 -11.9186,12.38029 -7.25539,20.59507 -8.21341,2.42188 -6.04206,-11.58139 -1.96088,-16.05622 2.54672,-4.97843 8.46483,-10.03367 14.21324,-6.00221 2.64604,2.70789 5.06684,6.34979 5.43375,10.27678 l -0.13866,1.4244 c -5.64484,2.09256 -0.27676,-10.41392 -10.29206,-10.23782 z"
         style="fill:#e3dbdb;fill-opacity:1;fill-rule:nonzero;stroke:none"
         sodipodi:nodetypes="ccccccc" />
      <path
         style="fill:#e3dbdb;fill-opacity:1;fill-rule:nonzero;stroke:none"
         d="M 566.9375 528.5 C 565.49097 528.5934 565.55459 530.46436 566.09375 531.4375 C 572.93378 538.93863 577.2692 540.34184 585.125 543.34375 C 588.74251 545.27412 589.903 546.75239 591.625 549.25 C 592.31894 553.32617 592.7763 555.41006 592.875 560.5625 C 592.25781 561.82611 591.65781 563.1406 590.875 564.15625 C 590.55208 564.47404 590.41906 564.62267 590.375 564.6875 C 590.3113 564.68733 590.06142 564.7815 589.25 565.25 C 585.99765 567.39115 586.92222 567.49386 583.375 569.15625 C 580.95433 570.01022 577.22524 572.27868 573.71875 572.75 C 570.37423 573.14458 565.83322 574.54161 564.03125 570.625 L 562.875 571.375 L 561.875 572.3125 C 564.21147 577.35541 570.47594 576.32005 574.9375 575.59375 C 575.4762 575.6016 575.99738 575.55086 576.5 575.46875 C 578.08567 577.05987 580.09251 575.61573 580.71875 574.125 C 581.68013 573.74686 582.56538 573.42533 583.3125 573.46875 C 585.3797 573.20452 590.31764 569.63956 589.625 569.8125 C 591.77439 568.70995 593.80095 567.27097 594.96875 565.25 C 595.71871 562.42812 599.68778 558.78197 597.03125 556.3125 C 596.75916 556.3702 596.52074 556.4632 596.28125 556.5625 C 595.72081 554.73363 596.0981 548.80488 593.53125 546.3125 C 592.08671 544.11257 589.15746 542.47588 587.15625 540.9375 C 587.15125 540.9335 587.16125 540.91015 587.15625 540.90625 C 586.73916 540.45298 586.14598 540.01912 585.4375 539.6875 C 585.4295 539.6835 585.41475 539.6915 585.40625 539.6875 C 580.41696 536.33184 574.51993 534.01069 569.6875 530.375 C 569.57389 530.4356 569.50688 530.50198 569.40625 530.5625 C 568.96328 529.98269 568.55108 529.37362 568.1875 528.75 C 567.679 528.548 567.27131 528.47845 566.9375 528.5 z "
         id="path4861" />
      <path
         inkscape:connector-curvature="0"
         id="path4863"
         d="m 639.58614,522.70098 c -5.95312,6.10364 -15.17119,26.14702 -25.05582,14.17046 -8.67612,2.78061 6.58482,7.79514 13.36578,4.50102 6.25461,-3.08696 9.68992,-16.15878 11.31145,-2.87814 -0.48573,6.55673 5.05019,12.5648 2.69865,2.66193 -2.13639,-7.78233 -1.34651,-13.62357 -0.9311,-18.45527 z m -7.46114,16.73652 -0.30805,0.24908 z m 9.03125,-12 -0.26631,0.34608 z"
         style="fill:#e3dbdb;fill-opacity:1;fill-rule:nonzero;stroke:none"
         sodipodi:nodetypes="ccccccccccccc" />
      <path
         inkscape:connector-curvature="0"
         id="path4869"
         d="m 421.01824,512.51953 c 8.81325,3.3949 -6.00877,6.81865 0,0 z"
         style="fill:#e3dbdb;fill-opacity:1;fill-rule:nonzero;stroke:none" />
      <path
         inkscape:connector-curvature="0"
         id="path4871"
         d="m 446.40323,541.73008 c -0.57841,-6.72574 14.78559,-10.81717 4.74829,-2.88891 -0.53706,0.29942 -1.40894,5.08651 -4.74829,2.88891 z"
         style="fill:#e3dbdb;fill-opacity:1;fill-rule:nonzero;stroke:none" />
      <path
         style="fill:#e3dbdb;fill-opacity:1;fill-rule:nonzero;stroke:none"
         d="M 384.3125 516.8125 C 382.97199 517.04376 382.6337 518.80662 382.8125 520.625 C 380.58088 521.3763 384.95055 526.74081 386.5625 527.5625 C 389.40639 528.78776 390.22712 528.82809 390.09375 528.21875 C 391.6513 528.50803 393.41047 528.03503 392.78125 526.1875 C 391.35343 525.77084 390.90227 525.9554 390.78125 526.15625 C 390.71158 525.91878 390.52779 525.51304 390.09375 524.75 C 389.27048 525.12747 388.72969 525.49007 388.40625 525.84375 C 387.71602 525.03174 386.9747 524.16729 386.34375 523.3125 C 386.33863 523.30556 386.34885 523.28818 386.34375 523.28125 C 385.79728 521.39018 384.88666 518.72043 386.4375 517.375 C 385.8192 517.0344 385.28775 516.8576 384.84375 516.8125 C 384.6495 516.79277 384.4762 516.78426 384.3125 516.8125 z "
         id="path4873" />
      <path
         inkscape:connector-curvature="0"
         id="path4875"
         d="m 388.3052,512.38419 c 2.29928,9.22566 -6.46683,0.81148 0,0 z"
         style="fill:#e3dbdb;fill-opacity:1;fill-rule:nonzero;stroke:none" />
      <path
         inkscape:connector-curvature="0"
         id="path4891"
         d="m 486.49717,548.49234 c 0.51793,2.45542 8.7345,1.73562 1.6521,4.28853 -2.66439,1.19031 -6.83127,-4.62645 -1.6521,-4.28853 z"
         style="fill:#e3dbdb;fill-opacity:1;fill-rule:nonzero;stroke:none" />
      <path
         inkscape:connector-curvature="0"
         id="path4893"
         d="m 499.23729,547.27593 c 4.22932,-1.46487 13.89279,0.70336 5.10339,2.54721 -1.71475,-0.58045 -7.53523,1.8267 -5.10339,-2.54721 z"
         style="fill:#e3dbdb;fill-opacity:1;fill-rule:nonzero;stroke:none" />
      <path
         inkscape:connector-curvature="0"
         id="path4901"
         d="m 563.71922,572.22643 c 2.38402,3.48553 17.66664,1.66425 7.60364,5.41424 -2.28148,0.68726 -13.73211,-2.05445 -7.60364,-5.41424 z"
         style="fill:#e3dbdb;fill-opacity:1;fill-rule:nonzero;stroke:none" />
    </g>
  </g>
  <g
     inkscape:groupmode="layer"
     id="layer6"
     inkscape:label="text"
     style="display:inline">
    <path
       style="fill:#241c1c;fill-opacity:1;fill-rule:nonzero;stroke:none"
       d="m 421.6875,506.40625 c -1.35835,0.0975 -2.63472,0.83378 -3.5,2.46875 -3.89013,7.21638 -3.18643,15.7586 -2.96875,23.6875 0.40494,4.99111 0.69196,10.05055 1.25,15.0625 -3.76751,7.40273 -8.25951,14.49118 -14.25,20.25 -2.40094,2.49084 -6.73965,4.19135 -9.5,1.25 -4.22893,-5.10172 -4.9338,-12.02537 -5.59375,-18.40625 1.13194,-3.12101 1.88343,-6.35829 1.96875,-9.71875 1.75345,-4.66493 -5.21964,-5.13195 -5.4375,-0.875 -0.85085,3.23234 -0.91215,6.57466 -0.65625,9.90625 -2.61578,7.03919 -6.83598,13.48826 -11.9375,18.96875 -0.71034,0.26296 -1.40753,0.81484 -1.9375,1.4375 -0.56516,-0.12282 -1.17815,0.0194 -1.71875,0.53125 -1.8835,1.01765 -4.63027,1.74617 -6.1875,-0.21875 -2.60164,-3.45141 -3.10711,-7.91129 -3.6875,-12.0625 -0.19301,-1.97056 -0.37598,-3.9588 -0.53125,-5.9375 1.76131,-3.72787 2.89058,-7.73829 3.34375,-11.84375 0.0903,-2.03389 0.81587,-4.45216 -0.46875,-6.21875 -1.82327,-2.03819 -4.27198,0.18659 -5.09375,2.0625 -2.02603,2.95011 -2.124,6.61374 -2.125,10.0625 0.0526,1.69402 0.1488,3.36885 0.25,5.0625 -0.0283,0.0532 -0.065,0.10322 -0.0937,0.15625 -3.33835,6.22018 -7.07238,12.28888 -11.5625,17.75 -2.31809,2.73801 -5.42417,5.9235 -9.375,5.125 -2.86858,-0.57667 -3.6159,-3.89053 -4.09375,-6.34375 -1.39353,-10.03915 -1.4245,-20.26718 -0.0625,-30.3125 0.54544,-2.44551 -3.07866,-3.48369 -3.875,-1.125 -1.18183,7.0098 -1.25937,14.15778 -1.03125,21.25 0.35268,4.88165 0.36685,9.92651 2,14.59375 1.06208,3.60501 4.59901,6.34222 8.40625,6.0625 4.16605,0.0561 7.63481,-2.68705 10.25,-5.65625 3.89481,-4.37841 7.09317,-9.29597 10.0625,-14.34375 0.20276,1.6851 0.42057,3.35954 0.71875,5.03125 0.91355,3.86721 2.04333,8.23082 5.46875,10.65625 3.11474,2.31645 7.40743,1.19655 10.4375,-0.71875 0.15043,-0.11501 0.27111,-0.21628 0.375,-0.34375 0.0883,-0.002 0.15573,0.006 0.25,0 3.79808,-1.93942 6.37336,-5.94018 9.15625,-9.15625 1.38895,-2.22185 2.76568,-4.51657 4.03125,-6.875 0.0537,0.33994 0.10296,0.69325 0.15625,1.03125 1.19653,5.80481 3.05687,12.83477 9.03125,15.40625 5.24008,2.23766 10.38611,-1.52723 13.84375,-5.1875 3.9444,-4.45941 7.40384,-9.32159 10.40625,-14.46875 0.65441,3.6725 1.57279,7.29351 2.875,10.8125 2.14838,5.05208 7.95434,6.4232 12.9375,6.375 4.66692,0.1446 8.90558,-1.48414 12.78125,-3.875 1.4997,2.09063 3.35662,3.92027 5.625,5.3125 5.32351,4.14173 12.79952,2.4487 18,-1 2.59662,-1.19008 9.92978,-6.1205 3.9375,-7.40625 -4.75788,2.91653 -9.49457,7.32785 -15.5,6.8125 -3.56898,-0.78777 -6.59825,-3.03544 -8.75,-5.96875 2.19824,-1.64904 4.28885,-3.48188 6.25,-5.25 5.65648,-4.87308 10.40993,-12.148 8.625,-19.9375 -1.01254,-5.91767 -7.73923,-10.35696 -13.46875,-8.28125 -6.29986,3.55804 -8.62428,11.29703 -8.90625,18.125 -0.62285,4.7595 0.1165,9.7791 2.15625,14.125 -2.47938,1.52346 -5.15456,2.67369 -8.0625,3.15625 -3.99868,0.19456 -9.48449,0.55715 -11.75,-3.53125 -2.02382,-4.92527 -2.86467,-10.17811 -3.46875,-15.46875 2.14019,-4.31021 3.97506,-8.77788 5.53125,-13.3125 2.26582,-7.49369 4.75081,-15.81044 2.125,-23.53125 -0.70912,-2.68947 -3.44838,-5.00674 -6.0625,-5.15625 -0.19606,-0.0112 -0.3997,-0.0139 -0.59375,0 z m -34.15625,2.71875 c -0.51873,0.0443 -1.05602,0.31547 -1.5,0.875 -1.69474,2.18336 -0.93848,1.03456 -2.25,3.375 -1.13234,2.95953 -1.6369,5.97153 -0.28125,8.96875 1.24441,2.24584 2.98209,3.85164 5.34375,4.90625 2.60161,1.18106 4.28911,-2.50644 1.6875,-3.6875 -1.49768,-0.70097 -2.74781,-1.62281 -3.46875,-3.125 -0.74884,-1.90293 -0.28423,-3.75097 0.46875,-5.5625 0.97151,-1.63404 0.4095,-0.85123 1.65625,-2.375 1.33196,-1.67861 -0.10005,-3.50792 -1.65625,-3.375 z m 34.65625,1.53125 c 1.27007,0.0295 2.83402,2.16996 3,4.3125 1.0242,8.81657 -2.16787,17.45202 -5.34375,25.53125 -0.60872,-9.02275 -1.78244,-18.36332 0.75,-27.1875 0.19283,-1.95536 0.83171,-2.67398 1.59375,-2.65625 z m 31.84375,24.96875 c 2.54234,0.079 5.20161,1.8068 5.90625,4.5 2.12974,6.36601 -1.98535,12.57829 -6.59375,16.625 -1.9177,1.74061 -3.91894,3.52932 -6.03125,5.15625 -0.60357,-1.37774 -1.06712,-2.82958 -1.3125,-4.28125 -0.50583,-6.3396 -0.50511,-13.43168 3.25,-18.875 0.8885,-2.26276 2.80388,-3.18647 4.78125,-3.125 z"
       id="path3884"
       inkscape:connector-curvature="0"
       inkscape:export-filename="/home/avp/src/projects/guile-ssh/doc/logo.png"
       inkscape:export-xdpi="151.23"
       inkscape:export-ydpi="151.23" />
    <path
       style="fill:#241c1c;fill-opacity:1;fill-rule:nonzero;stroke:none"
       id="path3894"
       d="m 485.47099,546.83379 c 2.14727,-1.11577 6.31115,-1.64306 9.55039,-2.40302 4.17867,-0.94831 7.95157,-1.41194 11.70581,-1.4622 4.87913,0.68049 2.91,4.00271 0.0531,4.04026 l 0,0 c -0.41131,0.005 -0.82263,0.0108 -1.23394,0.0162 -3.24956,0.0494 -6.44973,0.54587 -9.60231,1.33962 -3.22495,0.75616 -6.4357,1.57026 -9.65241,2.36051 -3.68268,0.47182 -3.72019,-1.59009 -0.82064,-3.89137 z"
       inkscape:connector-curvature="0"
       inkscape:export-filename="/home/avp/src/projects/guile-ssh/doc/logo.png"
       inkscape:export-xdpi="151.23"
       inkscape:export-ydpi="151.23"
       sodipodi:nodetypes="ccccccccc" />
    <path
       style="fill:#241c1c;fill-opacity:1;fill-rule:nonzero;stroke:none"
       d="m 536.61116,508.8895 c -1.03106,-5.85934 -9.33463,-9.51149 -13.56314,-4.59059 -4.16594,4.63506 -6.80702,12.48193 -2.24957,17.78228 7.05269,10.6334 22.01749,11.00845 29.57979,21.06889 4.70433,6.60097 0.20235,15.24755 -5.05994,20.0079 -8.02362,7.12024 -19.84539,11.0949 -30.3608,7.78005 -6.47607,-1.27557 -5.63578,-6.85403 -0.2592,-4.47032 10.50555,2.68725 18.34791,-0.0121 24.0924,-3.31872 5.08226,-3.34436 10.39307,-9.0403 9.3179,-15.59138 -2.43667,-5.9604 -9.20529,-8.30058 -14.4872,-11.12638 -8.20272,-3.60455 -16.80418,-9.21719 -19.06769,-18.4356 -0.91816,-7.38093 2.73192,-15.86547 9.57558,-19.24678 7.0226,-2.99944 15.87816,2.72909 16.46011,10.2188 -0.36606,2.17836 -3.67568,2.13416 -3.97824,-0.0781 z"
       id="path3924"
       inkscape:connector-curvature="0"
       inkscape:export-filename="/home/avp/src/projects/guile-ssh/doc/logo.png"
       inkscape:export-xdpi="151.23"
       inkscape:export-ydpi="151.23"
       sodipodi:nodetypes="ccccccccccccccc" />
    <path
       style="fill:#241c1c;fill-opacity:1;fill-rule:nonzero;stroke:none"
       d="m 573.25,498.65625 c -0.41463,-0.004 -0.83462,0.0161 -1.25,0.0625 -10.18696,2.43446 -16.34276,15.32644 -11.90625,24.84375 5.20222,10.27256 16.92835,13.72189 26.625,18.25 4.87838,2.11135 10.42882,7.44102 7.625,13.1875 -2.36937,5.85608 -7.84442,9.26135 -13.28125,11.875 -4.31697,1.90479 -10.83865,5.24596 -15.4375,3.25 -2.58337,-1.9507 -5.7924,-5.84502 -6.375,-1.09375 2.09372,7.39164 11.5383,6.10271 17.1875,4.21875 7.49134,-3.16213 15.9286,-6.53464 20.15625,-13.96875 3.89828,-5.07292 3.09118,-12.66138 -1.78125,-16.8125 -8.50674,-7.48937 -21.23222,-8.34598 -28.8125,-17.1875 -6.76786,-7.00535 -2.414,-19.82273 6.46875,-22.5625 5.6113,-0.48696 9.55116,5.19717 8.65625,10.4375 1.24733,4.72359 5.30257,0.94845 3.96875,-2.40625 0.30656,-6.41373 -5.62435,-12.03063 -11.84375,-12.09375 z"
       id="path3928"
       inkscape:connector-curvature="0"
       sodipodi:nodetypes="sccccccccccccccs"
       inkscape:export-filename="/home/avp/src/projects/guile-ssh/doc/logo.png"
       inkscape:export-xdpi="151.23"
       inkscape:export-ydpi="151.23" />
    <g
       id="g3948"
       transform="translate(-131.66816,7.2881032)"
       inkscape:export-filename="/home/avp/src/projects/guile-ssh/doc/logo.png"
       inkscape:export-xdpi="151.23"
       inkscape:export-ydpi="151.23">
      <path
         style="fill:#241c1c;fill-opacity:1;fill-rule:nonzero;stroke:none"
         d="m 608.03125,496.34375 c -0.6798,0.008 -1.36173,0.34627 -1.71875,1.09375 -1.04386,9.99948 0.0361,20.12122 0.8125,30.125 1.11753,10.88234 2.56738,21.74953 2.25,32.71875 0.26102,3.64259 0.52081,9.98974 0.5625,13.0625 -1.59543,2.94281 3.8271,8.34423 3.875,1.34375 -0.25988,-8.4921 -0.48499,-16.99285 -0.59375,-25.5 -0.25459,-3.79386 -0.59632,-7.58357 -0.96875,-11.375 2.2629,1.89476 5.98429,3.65695 7.90625,3.46875 8.34206,0.96005 13.7548,-7.11936 17.28125,-13.5 0.41041,-0.83716 1.26944,-2.23465 2.09375,-3.71875 0.19562,2.19669 0.3798,4.38301 0.5,6.5625 1.34927,12.9287 1.00478,25.95626 2.34375,38.875 0.33107,3.59203 5.551,3.93178 3.90625,-1.25 -1.15152,-13.24456 -0.99324,-26.60653 -2.375,-39.84375 -0.47934,-9.15054 -2.30146,-18.53224 -0.0313,-27.5625 1.32688,-3.16122 -3.63874,-4.19819 -3.96875,-0.84375 -1.36275,5.605 -1.32378,11.33457 -0.9375,17.0625 -3.64084,6.17693 -6.87771,13.96272 -12.625,18.5625 -3.99821,3.59116 -10.90525,-0.054 -14.59375,-2.78125 -1.14938,-11.38653 -2.27261,-22.79418 -1.625,-34.25 0.19941,-1.38117 -0.96076,-2.26274 -2.09375,-2.25 z M 639,517.25 c 0.003,0.0416 -0.003,0.0834 0,0.125 -0.0514,0.005 -0.0347,-0.0461 0,-0.125 z"
         transform="translate(131.66816,-7.2881032)"
         id="path3930"
         inkscape:connector-curvature="0"
         sodipodi:nodetypes="ccccccccccccccccccccccccc" />
    </g>
    <path
       style="fill:#241c1c;fill-opacity:1;fill-rule:nonzero;stroke:none"
       id="path3942"
       d="m 313.65214,539.15381 c 1.54515,0.20429 3.10124,0.35304 4.65335,0.16161 0.98841,-0.13862 1.91622,-0.49702 2.81502,-0.91537 0.83928,-0.43004 1.70857,-0.79432 2.57528,-1.16407 0.50712,-0.20498 0.99698,-0.44695 1.47922,-0.70411 0.0426,-0.0298 0.0852,-0.0596 0.12785,-0.0894 2.40699,-1.53936 4.58399,1.86464 2.17699,3.40401 l 0,0 c -0.13542,0.0841 -0.27084,0.16812 -0.40626,0.25218 -0.58476,0.31079 -1.17875,0.60359 -1.79233,0.85389 -0.83055,0.35431 -1.66356,0.70277 -2.46727,1.11611 -1.29316,0.59322 -2.63359,1.08054 -4.05368,1.2617 -1.87879,0.20041 -3.75651,0.10113 -5.62604,-0.16925 -2.83358,-0.36619 -2.31571,-4.37347 0.51787,-4.00729 z"
       inkscape:connector-curvature="0"
       inkscape:export-filename="/home/avp/src/projects/guile-ssh/doc/logo.png"
       inkscape:export-xdpi="151.23"
       inkscape:export-ydpi="151.23" />
  </g>
</svg>
